Athinkra-Sheikh-Bakri-Sapalo.ufo
<glyph name="exclam" format="2">
  <advance width="569"/>
  <unicode hex="0021"/>
  <outline>
    <contour>
      <point x="399.36" y="1140.74" type="line"/>
      <point x="346.112" y="364.544" type="line"/>
      <point x="231.424" y="364.544" type="line"/>
      <point x="176.128" y="1140.74" type="line"/>
      <point x="176.128" y="1466.37" type="line"/>
      <point x="399.36" y="1466.37" type="line"/>
    </contour>
    <contour>
      <point x="391.168" y="0" type="line"/>
      <point x="184.32" y="0" type="line"/>
      <point x="184.32" y="204.8" type="line"/>
      <point x="391.168" y="204.8" type="line"/>
    </contour>
  </outline>
</glyph>
<glyph name="dollar" format="2">
  <advance width="1139"/>
  <unicode hex="0024"/>
  <outline>
    <contour>
      <point x="1042.43" y="417.792" type="qcurve" smooth="yes"/>
      <point x="1042.43" y="227.328"/>
      <point x="804.864" y="-20.48"/>
      <point x="616.448" y="-28.672" type="qcurve"/>
      <point x="616.448" y="-210.944" type="line"/>
      <point x="509.952" y="-210.944" type="line"/>
      <point x="509.952" y="-30.72" type="line"/>
      <point x="378.88" y="-14.336"/>
      <point x="301.056" y="24.576" type="qcurve" smooth="yes"/>
      <point x="206.848" y="71.68"/>
      <point x="83.968" y="266.24"/>
      <point x="73.728" y="407.552" type="qcurve"/>
      <point x="253.952" y="440.32" type="line"/>
      <point x="296.96" y="143.36"/>
      <point x="509.952" y="120.832" type="qcurve"/>
      <point x="509.952" y="694.272" type="line"/>
      <point x="399.36" y="714.752"/>
      <point x="282.624" y="780.288" type="qcurve" smooth="yes"/>
      <point x="104.448" y="880.64"/>
      <point x="104.448" y="1105.92" type="qcurve" smooth="yes"/>
      <point x="104.448" y="1298.43"/>
      <point x="239.616" y="1417.22" type="qcurve" smooth="yes"/>
      <point x="331.776" y="1497.09"/>
      <point x="509.952" y="1515.52" type="qcurve"/>
      <point x="509.952" y="1601.54" type="line"/>
      <point x="616.448" y="1601.54" type="line"/>
      <point x="616.448" y="1515.52" type="line"/>
      <point x="960.512" y="1482.75"/>
      <point x="1007.62" y="1153.02" type="qcurve"/>
      <point x="821.248" y="1126.4" type="line"/>
      <point x="790.528" y="1327.1"/>
      <point x="616.448" y="1363.97" type="qcurve"/>
      <point x="616.448" y="843.776" type="line"/>
      <point x="753.664" y="808.96"/>
      <point x="796.672" y="790.528" type="qcurve" smooth="yes"/>
      <point x="958.464" y="720.896"/>
      <point x="1013.76" y="575.488" type="qcurve" smooth="yes"/>
      <point x="1042.43" y="501.76"/>
    </contour>
    <contour>
      <point x="509.952" y="866.304" type="qcurve"/>
      <point x="509.952" y="1366.02" type="line"/>
      <point x="409.6" y="1349.63"/>
      <point x="284.672" y="1218.56"/>
      <point x="284.672" y="1120.26" type="qcurve" smooth="yes"/>
      <point x="284.672" y="935.936"/>
    </contour>
    <contour>
      <point x="858.112" y="405.504" type="qcurve" smooth="yes"/>
      <point x="858.112" y="518.144"/>
      <point x="790.528" y="581.632" type="qcurve" smooth="yes"/>
      <point x="739.328" y="628.736"/>
      <point x="616.448" y="669.696" type="qcurve"/>
      <point x="616.448" y="120.832" type="line"/>
      <point x="724.992" y="135.168"/>
      <point x="858.112" y="292.864"/>
    </contour>
  </outline>
</glyph>
<glyph name="percent" format="2">
  <advance width="1821"/>
  <unicode hex="0025"/>
  <outline>
    <contour>
      <point x="1695.74" y="333.824" type="qcurve" smooth="yes"/>
      <point x="1695.74" y="172.032"/>
      <point x="1617.92" y="65.536" type="qcurve" smooth="yes"/>
      <point x="1531.9" y="-53.248"/>
      <point x="1376.26" y="-53.248" type="qcurve" smooth="yes"/>
      <point x="1218.56" y="-53.248"/>
      <point x="1136.64" y="71.68" type="qcurve" smooth="yes"/>
      <point x="1067.01" y="176.128"/>
      <point x="1067.01" y="344.064" type="qcurve" smooth="yes"/>
      <point x="1067.01" y="501.76"/>
      <point x="1140.74" y="604.16" type="qcurve" smooth="yes"/>
      <point x="1224.7" y="720.896"/>
      <point x="1376.26" y="720.896" type="qcurve" smooth="yes"/>
      <point x="1536" y="720.896"/>
      <point x="1619.97" y="602.112" type="qcurve"/>
      <point x="1695.74" y="499.712"/>
    </contour>
    <contour>
      <point x="1380.35" y="1490.94" type="line"/>
      <point x="581.632" y="-53.248" type="line"/>
      <point x="432.128" y="-53.248" type="line"/>
      <point x="1234.94" y="1490.94" type="line"/>
    </contour>
    <contour>
      <point x="745.472" y="1103.87" type="qcurve" smooth="yes"/>
      <point x="745.472" y="942.08"/>
      <point x="669.696" y="835.584" type="qcurve" smooth="yes"/>
      <point x="583.68" y="716.8"/>
      <point x="428.032" y="716.8" type="qcurve" smooth="yes"/>
      <point x="270.336" y="716.8"/>
      <point x="188.416" y="839.68" type="qcurve" smooth="yes"/>
      <point x="118.784" y="946.176"/>
      <point x="118.784" y="1114.11" type="qcurve" smooth="yes"/>
      <point x="118.784" y="1271.81"/>
      <point x="192.512" y="1374.21" type="qcurve" smooth="yes"/>
      <point x="276.48" y="1490.94"/>
      <point x="425.984" y="1490.94" type="qcurve" smooth="yes"/>
      <point x="585.728" y="1490.94"/>
      <point x="671.744" y="1372.16" type="qcurve" smooth="yes"/>
      <point x="745.472" y="1269.76"/>
    </contour>
    <contour>
      <point x="1538.05" y="339.968" type="qcurve" smooth="yes"/>
      <point x="1538.05" y="598.016"/>
      <point x="1380.35" y="598.016" type="qcurve" smooth="yes"/>
      <point x="1224.7" y="598.016"/>
      <point x="1224.7" y="325.632" type="qcurve" smooth="yes"/>
      <point x="1224.7" y="69.632"/>
      <point x="1380.35" y="69.632" type="qcurve" smooth="yes"/>
      <point x="1538.05" y="69.632"/>
    </contour>
    <contour>
      <point x="589.824" y="1110.02" type="qcurve" smooth="yes"/>
      <point x="589.824" y="1366.02"/>
      <point x="432.128" y="1366.02" type="qcurve" smooth="yes"/>
      <point x="276.48" y="1366.02"/>
      <point x="276.48" y="1095.68" type="qcurve" smooth="yes"/>
      <point x="276.48" y="839.68"/>
      <point x="432.128" y="839.68" type="qcurve" smooth="yes"/>
      <point x="589.824" y="839.68"/>
    </contour>
  </outline>
</glyph>
<glyph name="ampersand" format="2">
  <advance width="1366"/>
  <unicode hex="0026"/>
  <outline>
    <contour>
      <point x="1318.91" y="108.544" type="qcurve"/>
      <point x="1198.08" y="-34.816" type="line"/>
      <point x="1089.54" y="36.864"/>
      <point x="972.8" y="172.032" type="qcurve"/>
      <point x="794.624" y="-24.576"/>
      <point x="552.96" y="-24.576" type="qcurve" smooth="yes"/>
      <point x="325.632" y="-24.576"/>
      <point x="194.56" y="126.976" type="qcurve" smooth="yes"/>
      <point x="88.064" y="249.856"/>
      <point x="88.064" y="403.456" type="qcurve" smooth="yes"/>
      <point x="88.064" y="675.84"/>
      <point x="436.224" y="841.728" type="qcurve"/>
      <point x="272.384" y="1032.19"/>
      <point x="272.384" y="1163.26" type="qcurve" smooth="yes"/>
      <point x="272.384" y="1306.62"/>
      <point x="385.024" y="1400.83" type="qcurve" smooth="yes"/>
      <point x="489.472" y="1490.94"/>
      <point x="636.928" y="1490.94" type="qcurve" smooth="yes"/>
      <point x="776.192" y="1490.94"/>
      <point x="976.896" y="1316.86"/>
      <point x="976.896" y="1177.6" type="qcurve" smooth="yes"/>
      <point x="976.896" y="968.704"/>
      <point x="700.416" y="821.248" type="qcurve"/>
      <point x="962.56" y="485.376" type="line"/>
      <point x="1007.62" y="573.44"/>
      <point x="1032.19" y="690.176" type="qcurve"/>
      <point x="1220.61" y="649.216" type="line"/>
      <point x="1171.46" y="458.752"/>
      <point x="1089.54" y="333.824" type="qcurve"/>
      <point x="1191.94" y="200.704"/>
    </contour>
    <contour>
      <point x="792.576" y="1173.5" type="qcurve" smooth="yes"/>
      <point x="792.576" y="1247.23"/>
      <point x="700.416" y="1343.49"/>
      <point x="626.688" y="1343.49" type="qcurve" smooth="yes"/>
      <point x="555.008" y="1343.49"/>
      <point x="456.704" y="1251.33"/>
      <point x="456.704" y="1181.7" type="qcurve" smooth="yes"/>
      <point x="456.704" y="1112.06"/>
      <point x="526.336" y="1030.14" type="qcurve" smooth="yes"/>
      <point x="606.208" y="937.984" type="line"/>
      <point x="698.368" y="991.232"/>
      <point x="735.232" y="1030.14" type="qcurve" smooth="yes"/>
      <point x="792.576" y="1091.58"/>
    </contour>
    <contour>
      <point x="860.16" y="315.392" type="qcurve"/>
      <point x="530.432" y="724.992" type="line"/>
      <point x="282.624" y="575.488"/>
      <point x="282.624" y="415.744" type="qcurve" smooth="yes"/>
      <point x="282.624" y="303.104"/>
      <point x="442.368" y="133.12"/>
      <point x="555.008" y="133.12" type="qcurve" smooth="yes"/>
      <point x="641.024" y="133.12"/>
      <point x="811.008" y="239.616"/>
    </contour>
  </outline>
</glyph>
<glyph name="parenright" format="2">
  <advance width="682"/>
  <unicode hex="0029"/>
  <outline>
    <contour>
      <point x="608.256" y="530.432" type="line"/>
      <point x="608.256" y="20.48"/>
      <point x="253.952" y="-430.08" type="qcurve"/>
      <point x="124.928" y="-430.08" type="line"/>
      <point x="423.936" y="49.152"/>
      <point x="423.936" y="530.432" type="qcurve" smooth="yes"/>
      <point x="423.936" y="876.544"/>
      <point x="284.672" y="1191.94" type="qcurve" smooth="yes"/>
      <point x="243.712" y="1284.1"/>
      <point x="124.928" y="1490.94" type="qcurve"/>
      <point x="253.952" y="1490.94" type="line"/>
      <point x="608.256" y="1017.86"/>
      <point x="608.256" y="530.432" type="qcurve"/>
    </contour>
  </outline>
</glyph>
<glyph name="asterisk" format="2">
  <advance width="797"/>
  <unicode hex="002A"/>
  <outline>
    <contour>
      <point x="724.992" y="1196.03" type="line"/>
      <point x="598.016" y="1155.07"/>
      <point x="475.136" y="1140.74" type="qcurve"/>
      <point x="536.576" y="1087.49"/>
      <point x="647.168" y="952.32" type="qcurve"/>
      <point x="528.384" y="866.304" type="line"/>
      <point x="468.992" y="946.176"/>
      <point x="391.168" y="1081.34" type="qcurve"/>
      <point x="317.44" y="940.032"/>
      <point x="260.096" y="866.304" type="qcurve"/>
      <point x="143.36" y="952.32" type="line"/>
      <point x="258.048" y="1095.68"/>
      <point x="309.248" y="1140.74" type="qcurve"/>
      <point x="180.224" y="1165.31"/>
      <point x="63.488" y="1196.03" type="qcurve"/>
      <point x="110.592" y="1339.39" type="line"/>
      <point x="268.288" y="1282.05"/>
      <point x="342.016" y="1241.09" type="qcurve"/>
      <point x="321.536" y="1423.36"/>
      <point x="321.536" y="1490.94" type="qcurve"/>
      <point x="466.944" y="1490.94" type="line"/>
      <point x="462.848" y="1392.64"/>
      <point x="442.368" y="1243.14" type="qcurve"/>
      <point x="546.816" y="1294.34"/>
      <point x="679.936" y="1339.39" type="qcurve"/>
    </contour>
  </outline>
</glyph>
<glyph name="zero" format="2">
  <advance width="1139"/>
  <unicode hex="0030"/>
  <outline>
    <contour>
      <point x="1040.38" y="722.944" type="qcurve" smooth="yes"/>
      <point x="1040.38" y="235.52"/>
      <point x="829.44" y="61.44" type="qcurve" smooth="yes"/>
      <point x="724.992" y="-24.576"/>
      <point x="563.2" y="-24.576" type="qcurve" smooth="yes"/>
      <point x="86.016" y="-24.576"/>
      <point x="86.016" y="722.944" type="qcurve" smooth="yes"/>
      <point x="86.016" y="1212.42"/>
      <point x="296.96" y="1386.5" type="qcurve" smooth="yes"/>
      <point x="403.456" y="1472.51"/>
      <point x="563.2" y="1472.51" type="qcurve" smooth="yes"/>
      <point x="796.672" y="1472.51"/>
      <point x="917.504" y="1288.19" type="qcurve" smooth="yes"/>
      <point x="1040.38" y="1095.68"/>
    </contour>
    <contour>
      <point x="856.064" y="722.944" type="qcurve" smooth="yes"/>
      <point x="856.064" y="966.656"/>
      <point x="817.152" y="1097.73" type="qcurve" smooth="yes"/>
      <point x="749.568" y="1323.01"/>
      <point x="561.152" y="1323.01" type="qcurve" smooth="yes"/>
      <point x="376.832" y="1323.01"/>
      <point x="309.248" y="1097.73" type="qcurve" smooth="yes"/>
      <point x="270.336" y="964.608"/>
      <point x="270.336" y="722.944" type="qcurve" smooth="yes"/>
      <point x="270.336" y="481.28"/>
      <point x="309.248" y="350.208" type="qcurve" smooth="yes"/>
      <point x="376.832" y="122.88"/>
      <point x="563.2" y="122.88" type="qcurve" smooth="yes"/>
      <point x="856.064" y="122.88"/>
    </contour>
  </outline>
</glyph>
<glyph name="three" format="2">
  <advance width="1139"/>
  <unicode hex="0033"/>
  <outline>
    <contour>
      <point x="1046.53" y="432.128" type="qcurve" smooth="yes"/>
      <point x="1046.53" y="231.424"/>
      <point x="757.76" y="-26.624"/>
      <point x="552.96" y="-26.624" type="qcurve" smooth="yes"/>
      <point x="362.496" y="-26.624"/>
      <point x="104.448" y="198.656"/>
      <point x="86.016" y="387.072" type="qcurve"/>
      <point x="266.24" y="411.648" type="line"/>
      <point x="323.584" y="122.88"/>
      <point x="552.96" y="122.88" type="qcurve" smooth="yes"/>
      <point x="681.984" y="122.88"/>
      <point x="854.016" y="299.008"/>
      <point x="854.016" y="428.032" type="qcurve" smooth="yes"/>
      <point x="854.016" y="555.008"/>
      <point x="692.224" y="714.752"/>
      <point x="567.296" y="714.752" type="qcurve" smooth="yes"/>
      <point x="516.096" y="714.752"/>
      <point x="440.32" y="694.272" type="qcurve"/>
      <point x="460.8" y="851.968" type="line"/>
      <point x="479.232" y="849.92"/>
      <point x="489.472" y="849.92" type="qcurve" smooth="yes"/>
      <point x="614.4" y="849.92"/>
      <point x="696.32" y="909.312" type="qcurve" smooth="yes"/>
      <point x="788.48" y="974.848"/>
      <point x="788.48" y="1095.68" type="qcurve" smooth="yes"/>
      <point x="788.48" y="1198.08"/>
      <point x="653.312" y="1323.01"/>
      <point x="548.864" y="1323.01" type="qcurve" smooth="yes"/>
      <point x="323.584" y="1323.01"/>
      <point x="284.672" y="1060.86" type="qcurve"/>
      <point x="104.448" y="1091.58" type="line"/>
      <point x="137.216" y="1269.76"/>
      <point x="366.592" y="1472.51"/>
      <point x="544.768" y="1472.51" type="qcurve" smooth="yes"/>
      <point x="659.456" y="1472.51"/>
      <point x="757.76" y="1425.41" type="qcurve" smooth="yes"/>
      <point x="864.256" y="1372.16"/>
      <point x="974.848" y="1191.94"/>
      <point x="974.848" y="1091.58" type="qcurve" smooth="yes"/>
      <point x="974.848" y="886.784"/>
      <point x="772.096" y="794.624" type="qcurve"/>
      <point x="905.216" y="763.904"/>
      <point x="1046.53" y="571.392"/>
    </contour>
  </outline>
</glyph>
<glyph name="five" format="2">
  <advance width="1139"/>
  <unicode hex="0035"/>
  <outline>
    <contour>
      <point x="1056.77" y="497.664" type="qcurve" smooth="yes"/>
      <point x="1056.77" y="299.008"/>
      <point x="940.032" y="153.6" type="qcurve" smooth="yes"/>
      <point x="798.72" y="-24.576"/>
      <point x="555.008" y="-24.576" type="qcurve" smooth="yes"/>
      <point x="362.496" y="-24.576"/>
      <point x="104.448" y="192.512"/>
      <point x="86.016" y="385.024" type="qcurve"/>
      <point x="274.432" y="399.36" type="line"/>
      <point x="292.864" y="276.48"/>
      <point x="360.448" y="202.752" type="qcurve" smooth="yes"/>
      <point x="436.224" y="122.88"/>
      <point x="555.008" y="122.88" type="qcurve" smooth="yes"/>
      <point x="700.416" y="122.88"/>
      <point x="786.432" y="233.472" type="qcurve" smooth="yes"/>
      <point x="866.304" y="333.824"/>
      <point x="866.304" y="481.28" type="qcurve" smooth="yes"/>
      <point x="866.304" y="628.736"/>
      <point x="700.416" y="813.056"/>
      <point x="552.96" y="813.056" type="qcurve" smooth="yes"/>
      <point x="376.832" y="813.056"/>
      <point x="286.72" y="671.744" type="qcurve"/>
      <point x="116.736" y="692.224" type="line"/>
      <point x="258.048" y="1445.89" type="line"/>
      <point x="987.136" y="1445.89" type="line"/>
      <point x="987.136" y="1273.86" type="line"/>
      <point x="403.456" y="1273.86" type="line"/>
      <point x="323.584" y="880.64" type="line"/>
      <point x="456.704" y="972.8"/>
      <point x="600.064" y="972.8" type="qcurve" smooth="yes"/>
      <point x="800.768" y="972.8"/>
      <point x="1056.77" y="698.368"/>
    </contour>
  </outline>
</glyph>
<glyph name="six" format="2">
  <advance width="1139"/>
  <unicode hex="0036"/>
  <outline>
    <contour>
      <point x="1044.48" y="475.136" type="line"/>
      <point x="1044.48" y="342.016"/>
      <point x="989.184" y="227.328" type="qcurve" smooth="yes"/>
      <point x="929.792" y="102.4"/>
      <point x="718.848" y="-24.576"/>
      <point x="585.728" y="-24.576" type="qcurve" smooth="yes"/>
      <point x="305.152" y="-24.576"/>
      <point x="178.176" y="202.752" type="qcurve" smooth="yes"/>
      <point x="77.824" y="380.928"/>
      <point x="77.824" y="686.08" type="qcurve" smooth="yes"/>
      <point x="77.824" y="1472.51"/>
      <point x="602.112" y="1472.51" type="qcurve" smooth="yes"/>
      <point x="776.192" y="1472.51"/>
      <point x="997.376" y="1277.95"/>
      <point x="1019.9" y="1107.97" type="qcurve"/>
      <point x="839.68" y="1093.63" type="line"/>
      <point x="815.104" y="1200.13"/>
      <point x="772.096" y="1247.23" type="qcurve" smooth="yes"/>
      <point x="700.416" y="1323.01"/>
      <point x="591.872" y="1323.01" type="qcurve" smooth="yes"/>
      <point x="401.408" y="1323.01"/>
      <point x="307.2" y="1095.68" type="qcurve" smooth="yes"/>
      <point x="258.048" y="976.896"/>
      <point x="256" y="755.712" type="qcurve"/>
      <point x="385.024" y="950.272"/>
      <point x="612.352" y="950.272" type="qcurve" smooth="yes"/>
      <point x="804.864" y="950.272"/>
      <point x="927.744" y="808.96" type="qcurve" smooth="yes"/>
      <point x="1044.48" y="673.792"/>
      <point x="1044.48" y="475.136" type="qcurve"/>
    </contour>
    <contour>
      <point x="860.16" y="464.896" type="line"/>
      <point x="860.16" y="604.16"/>
      <point x="788.48" y="694.272" type="qcurve" smooth="yes"/>
      <point x="710.656" y="792.576"/>
      <point x="575.488" y="792.576" type="qcurve" smooth="yes"/>
      <point x="444.416" y="792.576"/>
      <point x="284.672" y="608.256"/>
      <point x="284.672" y="475.136" type="qcurve" smooth="yes"/>
      <point x="284.672" y="262.144"/>
      <point x="434.176" y="167.936" type="qcurve" smooth="yes"/>
      <point x="505.856" y="122.88"/>
      <point x="583.68" y="122.88" type="qcurve" smooth="yes"/>
      <point x="714.752" y="122.88"/>
      <point x="792.576" y="231.424" type="qcurve" smooth="yes"/>
      <point x="860.16" y="327.68"/>
      <point x="860.16" y="464.896" type="qcurve"/>
    </contour>
  </outline>
</glyph>
<glyph name="eight" format="2">
  <advance width="1139"/>
  <unicode hex="0038"/>
  <outline>
    <contour>
      <point x="1048.58" y="419.84" type="qcurve" smooth="yes"/>
      <point x="1048.58" y="217.088"/>
      <point x="770.048" y="-24.576"/>
      <point x="565.248" y="-24.576" type="qcurve" smooth="yes"/>
      <point x="360.448" y="-24.576"/>
      <point x="223.232" y="94.208" type="qcurve"/>
      <point x="83.968" y="221.184"/>
      <point x="83.968" y="423.936" type="qcurve" smooth="yes"/>
      <point x="83.968" y="722.944"/>
      <point x="362.496" y="794.624" type="qcurve"/>
      <point x="141.312" y="876.544"/>
      <point x="141.312" y="1093.63" type="qcurve" smooth="yes"/>
      <point x="141.312" y="1267.71"/>
      <point x="268.288" y="1372.16" type="qcurve"/>
      <point x="385.024" y="1472.51"/>
      <point x="563.2" y="1472.51" type="qcurve" smooth="yes"/>
      <point x="741.376" y="1472.51"/>
      <point x="860.16" y="1370.11" type="qcurve"/>
      <point x="989.184" y="1263.62"/>
      <point x="989.184" y="1089.54" type="qcurve" smooth="yes"/>
      <point x="989.184" y="876.544"/>
      <point x="772.096" y="794.624" type="qcurve"/>
      <point x="1048.58" y="704.512"/>
    </contour>
    <contour>
      <point x="804.864" y="1089.54" type="qcurve" smooth="yes"/>
      <point x="804.864" y="1189.89"/>
      <point x="665.6" y="1323.01"/>
      <point x="565.248" y="1323.01" type="qcurve" smooth="yes"/>
      <point x="466.944" y="1323.01"/>
      <point x="325.632" y="1198.08"/>
      <point x="325.632" y="1099.78" type="qcurve" smooth="yes"/>
      <point x="325.632" y="993.28"/>
      <point x="460.8" y="864.256"/>
      <point x="567.296" y="864.256" type="qcurve" smooth="yes"/>
      <point x="667.648" y="864.256"/>
      <point x="804.864" y="991.232"/>
    </contour>
    <contour>
      <point x="864.256" y="417.792" type="qcurve" smooth="yes"/>
      <point x="864.256" y="546.816"/>
      <point x="692.224" y="716.8"/>
      <point x="561.152" y="716.8" type="qcurve" smooth="yes"/>
      <point x="434.176" y="716.8"/>
      <point x="268.288" y="550.912"/>
      <point x="268.288" y="423.936" type="qcurve" smooth="yes"/>
      <point x="268.288" y="241.664"/>
      <point x="413.696" y="161.792" type="qcurve" smooth="yes"/>
      <point x="485.376" y="122.88"/>
      <point x="567.296" y="122.88" type="qcurve" smooth="yes"/>
      <point x="696.32" y="122.88"/>
      <point x="864.256" y="288.768"/>
    </contour>
  </outline>
</glyph>
<glyph name="semicolon" format="2">
  <advance width="569"/>
  <unicode hex="003B"/>
  <outline>
    <contour>
      <point x="387.072" y="856.064" type="line"/>
      <point x="182.272" y="856.064" type="line"/>
      <point x="182.272" y="1062.91" type="line"/>
      <point x="387.072" y="1062.91" type="line"/>
    </contour>
    <contour>
      <point x="387.072" y="0" type="line" smooth="yes"/>
      <point x="387.072" y="-217.088"/>
      <point x="219.136" y="-290.816" type="qcurve"/>
      <point x="169.984" y="-212.992" type="line"/>
      <point x="278.528" y="-165.888"/>
      <point x="284.672" y="0" type="qcurve"/>
      <point x="182.272" y="0" type="line"/>
      <point x="182.272" y="204.8" type="line"/>
      <point x="387.072" y="204.8" type="line"/>
    </contour>
  </outline>
</glyph>
<glyph name="less" format="2">
  <advance width="1196"/>
  <unicode hex="003C"/>
  <outline>
    <contour>
      <point x="1083.39" y="225.28" type="line"/>
      <point x="112.64" y="641.024" type="line"/>
      <point x="112.64" y="808.96" type="line"/>
      <point x="1083.39" y="1218.56" type="line"/>
      <point x="1083.39" y="1040.38" type="line"/>
      <point x="313.344" y="724.992" type="line"/>
      <point x="1083.39" y="405.504" type="line"/>
    </contour>
  </outline>
</glyph>
<glyph name="equal" format="2">
  <advance width="1196"/>
  <unicode hex="003D"/>
  <outline>
    <contour>
      <point x="1081.34" y="862.208" type="line"/>
      <point x="114.688" y="862.208" type="line"/>
      <point x="114.688" y="1030.14" type="line"/>
      <point x="1081.34" y="1030.14" type="line"/>
    </contour>
    <contour>
      <point x="1081.34" y="417.792" type="line"/>
      <point x="114.688" y="417.792" type="line"/>
      <point x="114.688" y="585.728" type="line"/>
      <point x="1081.34" y="585.728" type="line"/>
    </contour>
  </outline>
</glyph>
<glyph name="question" format="2">
  <advance width="1139"/>
  <unicode hex="003F"/>
  <outline>
    <contour>
      <point x="1036.29" y="1091.58" type="qcurve" smooth="yes"/>
      <point x="1036.29" y="978.944"/>
      <point x="968.704" y="880.64" type="qcurve" smooth="yes"/>
      <point x="923.648" y="813.056"/>
      <point x="815.104" y="716.8" type="qcurve" smooth="yes"/>
      <point x="745.472" y="655.36"/>
      <point x="720.896" y="628.736" type="qcurve" smooth="yes"/>
      <point x="675.84" y="575.488"/>
      <point x="659.456" y="516.096" type="qcurve" smooth="yes"/>
      <point x="647.168" y="468.992"/>
      <point x="645.12" y="360.448" type="qcurve"/>
      <point x="471.04" y="360.448" type="line"/>
      <point x="471.04" y="397.312"/>
      <point x="471.04" y="415.744" type="qcurve" smooth="yes"/>
      <point x="471.04" y="593.92"/>
      <point x="571.392" y="714.752" type="qcurve" smooth="yes"/>
      <point x="598.016" y="745.472"/>
      <point x="704.512" y="841.728" type="qcurve" smooth="yes"/>
      <point x="794.624" y="921.6"/>
      <point x="851.968" y="1021.95"/>
      <point x="851.968" y="1079.3" type="qcurve" smooth="yes"/>
      <point x="851.968" y="1191.94"/>
      <point x="681.984" y="1343.49"/>
      <point x="567.296" y="1343.49" type="qcurve" smooth="yes"/>
      <point x="321.536" y="1343.49"/>
      <point x="274.432" y="1046.53" type="qcurve"/>
      <point x="90.112" y="1067.01" type="line"/>
      <point x="114.688" y="1271.81"/>
      <point x="360.448" y="1490.94"/>
      <point x="565.248" y="1490.94" type="qcurve" smooth="yes"/>
      <point x="757.76" y="1490.94"/>
      <point x="890.88" y="1388.54" type="qcurve" smooth="yes"/>
      <point x="1036.29" y="1277.95"/>
    </contour>
    <contour>
      <point x="665.6" y="0" type="line"/>
      <point x="460.8" y="0" type="line"/>
      <point x="460.8" y="204.8" type="line"/>
      <point x="665.6" y="204.8" type="line"/>
    </contour>
  </outline>
</glyph>
<glyph name="at" format="2">
  <advance width="2079"/>
  <unicode hex="0040"/>
  <outline>
    <contour>
      <point x="2004.99" y="18.432" type="line"/>
      <point x="1943.55" y="-106.496"/>
      <point x="1804.29" y="-215.04" type="qcurve" smooth="yes"/>
      <point x="1681.41" y="-313.344"/>
      <point x="1536" y="-366.592" type="qcurve" smooth="yes"/>
      <point x="1363.97" y="-430.08"/>
      <point x="1122.3" y="-430.08" type="qcurve" smooth="yes"/>
      <point x="657.408" y="-430.08"/>
      <point x="393.216" y="-202.752" type="qcurve" smooth="yes"/>
      <point x="110.592" y="43.008"/>
      <point x="110.592" y="468.992" type="qcurve" smooth="yes"/>
      <point x="110.592" y="712.704"/>
      <point x="210.944" y="933.888" type="qcurve" smooth="yes"/>
      <point x="462.848" y="1492.99"/>
      <point x="1101.82" y="1492.99" type="qcurve" smooth="yes"/>
      <point x="1347.58" y="1492.99"/>
      <point x="1538.05" y="1396.74" type="qcurve" smooth="yes"/>
      <point x="1744.9" y="1292.29"/>
      <point x="1859.58" y="1089.54" type="qcurve" smooth="yes"/>
      <point x="1955.84" y="917.504"/>
      <point x="1955.84" y="712.704" type="qcurve" smooth="yes"/>
      <point x="1955.84" y="423.936"/>
      <point x="1751.04" y="198.656" type="qcurve" smooth="yes"/>
      <point x="1568.77" y="-4.096"/>
      <point x="1353.73" y="-4.096" type="qcurve" smooth="yes"/>
      <point x="1222.66" y="-4.096"/>
      <point x="1179.65" y="77.824" type="qcurve" smooth="yes"/>
      <point x="1167.36" y="102.4"/>
      <point x="1161.22" y="163.84" type="qcurve"/>
      <point x="1017.86" y="-2.048"/>
      <point x="854.016" y="-2.048" type="qcurve" smooth="yes"/>
      <point x="647.168" y="-2.048"/>
      <point x="544.768" y="208.896" type="qcurve" smooth="yes"/>
      <point x="491.52" y="317.44"/>
      <point x="491.52" y="446.464" type="qcurve" smooth="yes"/>
      <point x="491.52" y="602.112"/>
      <point x="569.344" y="757.76" type="qcurve" smooth="yes"/>
      <point x="651.264" y="921.6"/>
      <point x="897.024" y="1083.39"/>
      <point x="1011.71" y="1083.39" type="qcurve" smooth="yes"/>
      <point x="1200.13" y="1083.39"/>
      <point x="1312.77" y="899.072" type="qcurve"/>
      <point x="1347.58" y="1054.72" type="line"/>
      <point x="1525.76" y="1054.72" type="line"/>
      <point x="1382.4" y="385.024" type="line" smooth="yes"/>
      <point x="1351.68" y="243.712"/>
      <point x="1351.68" y="229.376" type="qcurve" smooth="yes"/>
      <point x="1351.68" y="200.704"/>
      <point x="1394.69" y="163.84"/>
      <point x="1421.31" y="163.84" type="qcurve" smooth="yes"/>
      <point x="1474.56" y="163.84"/>
      <point x="1560.58" y="223.232" type="qcurve" smooth="yes"/>
      <point x="1675.26" y="305.152"/>
      <point x="1808.38" y="573.44"/>
      <point x="1808.38" y="716.8" type="qcurve" smooth="yes"/>
      <point x="1808.38" y="892.928"/>
      <point x="1628.16" y="1177.6"/>
      <point x="1468.42" y="1259.52" type="qcurve" smooth="yes"/>
      <point x="1298.43" y="1347.58"/>
      <point x="1093.63" y="1347.58" type="qcurve" smooth="yes"/>
      <point x="858.112" y="1347.58"/>
      <point x="667.648" y="1239.04" type="qcurve" smooth="yes"/>
      <point x="471.04" y="1128.45"/>
      <point x="258.048" y="718.848"/>
      <point x="258.048" y="485.376" type="qcurve" smooth="yes"/>
      <point x="258.048" y="247.808"/>
      <point x="358.4" y="75.776" type="qcurve" smooth="yes"/>
      <point x="464.896" y="-110.592"/>
      <point x="673.792" y="-198.656" type="qcurve" smooth="yes"/>
      <point x="874.496" y="-282.624"/>
      <point x="1120.26" y="-282.624" type="qcurve" smooth="yes"/>
      <point x="1335.3" y="-282.624"/>
      <point x="1511.42" y="-215.04" type="qcurve" smooth="yes"/>
      <point x="1714.18" y="-137.216"/>
      <point x="1824.77" y="18.432" type="qcurve"/>
    </contour>
    <contour>
      <point x="1255.42" y="649.216" type="qcurve" smooth="yes"/>
      <point x="1255.42" y="765.952"/>
      <point x="1200.13" y="845.824" type="qcurve" smooth="yes"/>
      <point x="1136.64" y="935.936"/>
      <point x="1024" y="935.936" type="qcurve" smooth="yes"/>
      <point x="894.976" y="935.936"/>
      <point x="794.624" y="798.72" type="qcurve" smooth="yes"/>
      <point x="677.888" y="638.976"/>
      <point x="677.888" y="434.176" type="qcurve" smooth="yes"/>
      <point x="677.888" y="323.584"/>
      <point x="727.04" y="241.664" type="qcurve" smooth="yes"/>
      <point x="786.432" y="145.408"/>
      <point x="890.88" y="145.408" type="qcurve" smooth="yes"/>
      <point x="1013.76" y="145.408"/>
      <point x="1128.45" y="278.528" type="qcurve" smooth="yes"/>
      <point x="1255.42" y="428.032"/>
    </contour>
  </outline>
</glyph>
<glyph name="A" format="2">
  <advance width="1366"/>
  <unicode hex="0041"/>
  <outline>
    <contour>
      <point x="1368.06" y="0" type="line"/>
      <point x="1148.93" y="0" type="line"/>
      <point x="976.896" y="444.416" type="line"/>
      <point x="364.544" y="444.416" type="line"/>
      <point x="202.752" y="0" type="line"/>
      <point x="-2.048" y="0" type="line"/>
      <point x="559.104" y="1466.37" type="line"/>
      <point x="768" y="1466.37" type="line"/>
    </contour>
    <contour>
      <point x="917.504" y="602.112" type="line"/>
      <point x="763.904" y="1007.62" type="line" smooth="yes"/>
      <point x="692.224" y="1196.03"/>
      <point x="659.456" y="1312.77" type="qcurve"/>
      <point x="630.784" y="1165.31"/>
      <point x="581.632" y="1032.19" type="qcurve" smooth="yes"/>
      <point x="419.84" y="602.112" type="line"/>
    </contour>
  </outline>
</glyph>
<glyph name="B" format="2">
  <advance width="1366"/>
  <unicode hex="0042"/>
  <outline>
    <contour>
      <point x="1257.47" y="425.984" type="qcurve" smooth="yes"/>
      <point x="1257.47" y="210.944"/>
      <point x="1105.92" y="96.256" type="qcurve" smooth="yes"/>
      <point x="976.896" y="0"/>
      <point x="708.608" y="0" type="qcurve" smooth="yes"/>
      <point x="149.504" y="0" type="line"/>
      <point x="149.504" y="1466.37" type="line"/>
      <point x="700.416" y="1466.37" type="line" smooth="yes"/>
      <point x="1015.81" y="1466.37"/>
      <point x="1128.45" y="1284.1" type="qcurve" smooth="yes"/>
      <point x="1185.79" y="1191.94"/>
      <point x="1185.79" y="1091.58" type="qcurve" smooth="yes"/>
      <point x="1185.79" y="880.64"/>
      <point x="980.992" y="780.288" type="qcurve"/>
      <point x="1110.02" y="741.376"/>
      <point x="1257.47" y="557.056"/>
    </contour>
    <contour>
      <point x="995.328" y="1067.01" type="qcurve" smooth="yes"/>
      <point x="995.328" y="1230.85"/>
      <point x="860.16" y="1271.81" type="qcurve" smooth="yes"/>
      <point x="794.624" y="1292.29"/>
      <point x="636.928" y="1292.29" type="qcurve" smooth="yes"/>
      <point x="344.064" y="1292.29" type="line"/>
      <point x="344.064" y="849.92" type="line"/>
      <point x="661.504" y="849.92" type="line" smooth="yes"/>
      <point x="788.48" y="849.92"/>
      <point x="845.824" y="866.304" type="qcurve" smooth="yes"/>
      <point x="995.328" y="911.36"/>
    </contour>
    <contour>
      <point x="1056.77" y="425.984" type="qcurve" smooth="yes"/>
      <point x="1056.77" y="600.064"/>
      <point x="897.024" y="653.312" type="qcurve" smooth="yes"/>
      <point x="823.296" y="677.888"/>
      <point x="681.984" y="677.888" type="qcurve" smooth="yes"/>
      <point x="344.064" y="677.888" type="line"/>
      <point x="344.064" y="172.032" type="line"/>
      <point x="708.608" y="172.032" type="line" smooth="yes"/>
      <point x="802.816" y="172.032"/>
      <point x="841.728" y="180.224" type="qcurve" smooth="yes"/>
      <point x="974.848" y="204.8"/>
      <point x="1026.05" y="301.056" type="qcurve"/>
      <point x="1056.77" y="354.304"/>
    </contour>
  </outline>
</glyph>
<glyph name="C" format="2">
  <advance width="1479"/>
  <unicode hex="0043"/>
  <outline>
    <contour>
      <point x="1398.78" y="464.896" type="line"/>
      <point x="1339.39" y="233.472"/>
      <point x="1028.1" y="-24.576"/>
      <point x="790.528" y="-24.576" type="qcurve" smooth="yes"/>
      <point x="337.92" y="-24.576"/>
      <point x="180.224" y="350.208" type="qcurve" smooth="yes"/>
      <point x="102.4" y="534.528"/>
      <point x="102.4" y="743.424" type="qcurve" smooth="yes"/>
      <point x="102.4" y="1218.56"/>
      <point x="438.272" y="1402.88" type="qcurve" smooth="yes"/>
      <point x="600.064" y="1490.94"/>
      <point x="794.624" y="1490.94" type="qcurve" smooth="yes"/>
      <point x="1011.71" y="1490.94"/>
      <point x="1312.77" y="1269.76"/>
      <point x="1372.16" y="1064.96" type="qcurve"/>
      <point x="1181.7" y="1019.9" type="line"/>
      <point x="1085.44" y="1325.06"/>
      <point x="790.528" y="1325.06" type="qcurve" smooth="yes"/>
      <point x="630.784" y="1325.06"/>
      <point x="518.144" y="1251.33" type="qcurve" smooth="yes"/>
      <point x="397.312" y="1173.5"/>
      <point x="348.16" y="1026.05" type="qcurve" smooth="yes"/>
      <point x="301.056" y="890.88"/>
      <point x="301.056" y="745.472" type="qcurve" smooth="yes"/>
      <point x="301.056" y="344.064"/>
      <point x="526.336" y="210.944" type="qcurve" smooth="yes"/>
      <point x="641.024" y="141.312"/>
      <point x="774.144" y="141.312" type="qcurve" smooth="yes"/>
      <point x="1124.35" y="141.312"/>
      <point x="1204.22" y="514.048" type="qcurve"/>
    </contour>
  </outline>
</glyph>
<glyph name="D" format="2">
  <advance width="1479"/>
  <unicode hex="0044"/>
  <outline>
    <contour>
      <point x="1370" y="741" type="line"/>
      <point x="1370" y="424"/>
      <point x="1231" y="231" type="qcurve" smooth="yes"/>
      <point x="1116" y="72"/>
      <point x="922" y="25" type="qcurve" smooth="yes"/>
      <point x="819" y="0"/>
      <point x="686" y="0" type="qcurve" smooth="yes"/>
      <point x="158" y="0" type="line"/>
      <point x="158" y="1466" type="line"/>
      <point x="664" y="1466" type="line" smooth="yes"/>
      <point x="834" y="1466"/>
      <point x="924" y="1446" type="qcurve" smooth="yes"/>
      <point x="1202" y="1380"/>
      <point x="1313" y="1090" type="qcurve" smooth="yes"/>
      <point x="1370" y="938"/>
      <point x="1370" y="741" type="qcurve"/>
    </contour>
    <contour>
      <point x="1169" y="743" type="line"/>
      <point x="1169" y="1163"/>
      <point x="911" y="1264" type="qcurve" smooth="yes"/>
      <point x="834" y="1292"/>
      <point x="659" y="1292" type="qcurve" smooth="yes"/>
      <point x="352" y="1292" type="line"/>
      <point x="352" y="172" type="line"/>
      <point x="666" y="172" type="line" smooth="yes"/>
      <point x="922" y="172"/>
      <point x="1024" y="276" type="qcurve" smooth="yes"/>
      <point x="1169" y="422"/>
      <point x="1169" y="743" type="qcurve"/>
    </contour>
  </outline>
</glyph>
<glyph name="E" format="2">
  <advance width="1366"/>
  <unicode hex="0045"/>
  <outline>
    <contour>
      <point x="1255.42" y="0" type="line"/>
      <point x="161.792" y="0" type="line"/>
      <point x="161.792" y="1466.37" type="line"/>
      <point x="1222.66" y="1466.37" type="line"/>
      <point x="1222.66" y="1292.29" type="line"/>
      <point x="356.352" y="1292.29" type="line"/>
      <point x="356.352" y="843.776" type="line"/>
      <point x="1167.36" y="843.776" type="line"/>
      <point x="1167.36" y="671.744" type="line"/>
      <point x="356.352" y="671.744" type="line"/>
      <point x="356.352" y="172.032" type="line"/>
      <point x="1255.42" y="172.032" type="line"/>
    </contour>
  </outline>
</glyph>
<glyph name="H" format="2">
  <advance width="1479"/>
  <unicode hex="0048"/>
  <outline>
    <contour>
      <point x="1315" y="0" type="line"/>
      <point x="1120" y="0" type="line"/>
      <point x="1120" y="690" type="line"/>
      <point x="358" y="690" type="line"/>
      <point x="358" y="0" type="line"/>
      <point x="164" y="0" type="line"/>
      <point x="164" y="1466" type="line"/>
      <point x="358" y="1466" type="line"/>
      <point x="358" y="864" type="line"/>
      <point x="1120" y="864" type="line"/>
      <point x="1120" y="1466" type="line"/>
      <point x="1315" y="1466" type="line"/>
    </contour>
  </outline>
</glyph>
<glyph name="I" format="2">
  <advance width="569"/>
  <unicode hex="0049"/>
  <outline>
    <contour>
      <point x="385.024" y="0" type="line"/>
      <point x="190.464" y="0" type="line"/>
      <point x="190.464" y="1466.37" type="line"/>
      <point x="385.024" y="1466.37" type="line"/>
    </contour>
  </outline>
</glyph>
<glyph name="L" format="2">
  <advance width="1139"/>
  <unicode hex="004C"/>
  <outline>
    <contour>
      <point x="1067.01" y="0" type="line"/>
      <point x="149.504" y="0" type="line"/>
      <point x="149.504" y="1466.37" type="line"/>
      <point x="344.064" y="1466.37" type="line"/>
      <point x="344.064" y="172.032" type="line"/>
      <point x="1067.01" y="172.032" type="line"/>
    </contour>
  </outline>
</glyph>
<glyph name="M" format="2">
  <advance width="1706"/>
  <unicode hex="004D"/>
  <outline>
    <contour>
      <point x="1550.34" y="0" type="line"/>
      <point x="1363.97" y="0" type="line"/>
      <point x="1363.97" y="1226.75" type="line"/>
      <point x="937.984" y="0" type="line"/>
      <point x="763.904" y="0" type="line"/>
      <point x="339.968" y="1247.23" type="line"/>
      <point x="339.968" y="0" type="line"/>
      <point x="151.552" y="0" type="line"/>
      <point x="151.552" y="1466.37" type="line"/>
      <point x="444.416" y="1466.37" type="line"/>
      <point x="790.528" y="428.032" type="line" smooth="yes"/>
      <point x="833.536" y="299.008"/>
      <point x="860.16" y="210.944" type="qcurve"/>
      <point x="888.832" y="301.056"/>
      <point x="937.984" y="446.464" type="qcurve" smooth="yes"/>
      <point x="1290.24" y="1466.37" type="line"/>
      <point x="1550.34" y="1466.37" type="line"/>
    </contour>
  </outline>
</glyph>
<glyph name="O" format="2">
  <advance width="1593"/>
  <unicode hex="004F"/>
  <outline>
    <contour>
      <point x="1501.18" y="731.136" type="qcurve" smooth="yes"/>
      <point x="1501.18" y="518.144"/>
      <point x="1419.26" y="348.16" type="qcurve" smooth="yes"/>
      <point x="1329.15" y="159.744"/>
      <point x="1155.07" y="65.536" type="qcurve" smooth="yes"/>
      <point x="991.232" y="-24.576"/>
      <point x="800.768" y="-24.576" type="qcurve" smooth="yes"/>
      <point x="598.016" y="-24.576"/>
      <point x="270.336" y="169.984"/>
      <point x="182.272" y="348.16" type="qcurve" smooth="yes"/>
      <point x="98.304" y="520.192"/>
      <point x="98.304" y="714.752" type="qcurve" smooth="yes"/>
      <point x="98.304" y="1054.72"/>
      <point x="276.48" y="1265.66" type="qcurve" smooth="yes"/>
      <point x="466.944" y="1492.99"/>
      <point x="800.768" y="1492.99" type="qcurve" smooth="yes"/>
      <point x="1001.47" y="1492.99"/>
      <point x="1329.15" y="1300.48"/>
      <point x="1501.18" y="950.272"/>
    </contour>
    <contour>
      <point x="1300.48" y="731.136" type="qcurve" smooth="yes"/>
      <point x="1300.48" y="1101.82"/>
      <point x="1062.91" y="1251.33" type="qcurve" smooth="yes"/>
      <point x="946.176" y="1325.06"/>
      <point x="802.816" y="1325.06" type="qcurve" smooth="yes"/>
      <point x="542.72" y="1325.06"/>
      <point x="413.696" y="1140.74" type="qcurve" smooth="yes"/>
      <point x="299.008" y="980.992"/>
      <point x="299.008" y="710.656" type="qcurve" smooth="yes"/>
      <point x="299.008" y="468.992"/>
      <point x="425.984" y="311.296" type="qcurve" smooth="yes"/>
      <point x="563.2" y="141.312"/>
      <point x="798.72" y="141.312" type="qcurve" smooth="yes"/>
      <point x="1044.48" y="141.312"/>
      <point x="1179.65" y="317.44" type="qcurve" smooth="yes"/>
      <point x="1300.48" y="479.232"/>
    </contour>
  </outline>
</glyph>
<glyph name="T" format="2">
  <advance width="1251"/>
  <unicode hex="0054"/>
  <outline>
    <contour>
      <point x="1210.37" y="1292.29" type="line"/>
      <point x="724.992" y="1292.29" type="line"/>
      <point x="724.992" y="0" type="line"/>
      <point x="530.432" y="0" type="line"/>
      <point x="530.432" y="1292.29" type="line"/>
      <point x="47.104" y="1292.29" type="line"/>
      <point x="47.104" y="1466.37" type="line"/>
      <point x="1210.37" y="1466.37" type="line"/>
    </contour>
  </outline>
</glyph>
<glyph name="Y" format="2">
  <advance width="1366"/>
  <unicode hex="0059"/>
  <outline>
    <contour>
      <point x="1349.63" y="1466.37" type="line"/>
      <point x="765.952" y="620.544" type="line"/>
      <point x="765.952" y="0" type="line"/>
      <point x="571.392" y="0" type="line"/>
      <point x="571.392" y="620.544" type="line"/>
      <point x="6.144" y="1466.37" type="line"/>
      <point x="241.664" y="1466.37" type="line"/>
      <point x="530.432" y="1024" type="line" smooth="yes"/>
      <point x="604.16" y="911.36"/>
      <point x="679.936" y="776.192" type="qcurve"/>
      <point x="751.616" y="901.12"/>
      <point x="839.68" y="1034.24" type="qcurve" smooth="yes"/>
      <point x="1124.35" y="1466.37" type="line"/>
    </contour>
  </outline>
</glyph>
<glyph name="a" format="2">
  <advance width="1139"/>
  <unicode hex="0061"/>
  <outline>
    <contour>
      <point x="1052.67" y="0" type="qcurve"/>
      <point x="864.256" y="0" type="line"/>
      <point x="835.584" y="55.296"/>
      <point x="827.392" y="131.072" type="qcurve"/>
      <point x="645.12" y="-24.576"/>
      <point x="436.224" y="-24.576" type="qcurve" smooth="yes"/>
      <point x="280.576" y="-24.576"/>
      <point x="184.32" y="49.152" type="qcurve"/>
      <point x="73.728" y="129.024"/>
      <point x="73.728" y="280.576" type="qcurve" smooth="yes"/>
      <point x="73.728" y="438.272"/>
      <point x="202.752" y="526.336" type="qcurve" smooth="yes"/>
      <point x="260.096" y="565.248"/>
      <point x="331.776" y="585.728" type="qcurve"/>
      <point x="382.976" y="598.016"/>
      <point x="491.52" y="612.352" type="qcurve" smooth="yes"/>
      <point x="710.656" y="638.976"/>
      <point x="813.056" y="673.792" type="qcurve"/>
      <point x="813.056" y="710.656"/>
      <point x="813.056" y="720.896" type="qcurve" smooth="yes"/>
      <point x="813.056" y="937.984"/>
      <point x="557.056" y="937.984" type="qcurve" smooth="yes"/>
      <point x="436.224" y="937.984"/>
      <point x="311.296" y="849.92"/>
      <point x="280.576" y="735.232" type="qcurve"/>
      <point x="104.448" y="759.808" type="line"/>
      <point x="151.552" y="978.944"/>
      <point x="342.016" y="1048.58" type="qcurve" smooth="yes"/>
      <point x="446.464" y="1085.44"/>
      <point x="583.68" y="1085.44" type="qcurve" smooth="yes"/>
      <point x="837.632" y="1085.44"/>
      <point x="929.792" y="972.8" type="qcurve" smooth="yes"/>
      <point x="970.752" y="923.648"/>
      <point x="985.088" y="851.968" type="qcurve" smooth="yes"/>
      <point x="995.328" y="806.912"/>
      <point x="995.328" y="684.032" type="qcurve" smooth="yes"/>
      <point x="995.328" y="444.416" type="line" smooth="yes"/>
      <point x="995.328" y="233.472"/>
      <point x="995.328" y="217.088" type="qcurve"/>
      <point x="1005.57" y="83.968"/>
    </contour>
    <contour>
      <point x="813.056" y="466.944" type="qcurve" smooth="yes"/>
      <point x="813.056" y="532.48" type="line"/>
      <point x="714.752" y="493.568"/>
      <point x="518.144" y="464.896" type="qcurve" smooth="yes"/>
      <point x="430.08" y="452.608"/>
      <point x="393.216" y="440.32" type="qcurve" smooth="yes"/>
      <point x="321.536" y="417.792"/>
      <point x="290.816" y="370.688" type="qcurve" smooth="yes"/>
      <point x="266.24" y="331.776"/>
      <point x="266.24" y="284.672" type="qcurve" smooth="yes"/>
      <point x="266.24" y="200.704"/>
      <point x="333.824" y="155.648" type="qcurve" smooth="yes"/>
      <point x="391.168" y="116.736"/>
      <point x="479.232" y="116.736" type="qcurve" smooth="yes"/>
      <point x="702.464" y="116.736"/>
      <point x="784.384" y="286.72" type="qcurve" smooth="yes"/>
      <point x="813.056" y="348.16"/>
    </contour>
  </outline>
</glyph>
<glyph name="b" format="2">
  <advance width="1139"/>
  <unicode hex="0062"/>
  <outline>
    <contour>
      <point x="1054.72" y="546.816" type="qcurve" smooth="yes"/>
      <point x="1054.72" y="315.392"/>
      <point x="944.128" y="155.648" type="qcurve" smooth="yes"/>
      <point x="819.2" y="-24.576"/>
      <point x="595.968" y="-24.576" type="qcurve" smooth="yes"/>
      <point x="407.552" y="-24.576"/>
      <point x="301.056" y="133.12" type="qcurve"/>
      <point x="301.056" y="0" type="line"/>
      <point x="133.12" y="0" type="line"/>
      <point x="133.12" y="1466.37" type="line"/>
      <point x="313.344" y="1466.37" type="line"/>
      <point x="313.344" y="942.08" type="line"/>
      <point x="428.032" y="1085.44"/>
      <point x="604.16" y="1085.44" type="qcurve" smooth="yes"/>
      <point x="815.104" y="1085.44"/>
      <point x="1054.72" y="782.336"/>
    </contour>
    <contour>
      <point x="870.4" y="532.48" type="qcurve" smooth="yes"/>
      <point x="870.4" y="694.272"/>
      <point x="813.056" y="802.816" type="qcurve" smooth="yes"/>
      <point x="739.328" y="937.984"/>
      <point x="589.824" y="937.984" type="qcurve" smooth="yes"/>
      <point x="442.368" y="937.984"/>
      <point x="364.544" y="804.864" type="qcurve" smooth="yes"/>
      <point x="299.008" y="694.272"/>
      <point x="299.008" y="538.624" type="qcurve" smooth="yes"/>
      <point x="299.008" y="348.16"/>
      <point x="350.208" y="262.144" type="qcurve"/>
      <point x="436.224" y="124.928"/>
      <point x="581.632" y="124.928" type="qcurve" smooth="yes"/>
      <point x="729.088" y="124.928"/>
      <point x="806.912" y="260.096" type="qcurve" smooth="yes"/>
      <point x="870.4" y="372.736"/>
    </contour>
  </outline>
</glyph>
<glyph name="d" format="2">
  <advance width="1139"/>
  <unicode hex="0064"/>
  <outline>
    <contour>
      <point x="991.232" y="0" type="line"/>
      <point x="823.296" y="0" type="line"/>
      <point x="823.296" y="133.12" type="line"/>
      <point x="722.944" y="-24.576"/>
      <point x="526.336" y="-24.576" type="qcurve" smooth="yes"/>
      <point x="395.264" y="-24.576"/>
      <point x="184.32" y="118.784"/>
      <point x="69.632" y="366.592"/>
      <point x="69.632" y="530.432" type="qcurve" smooth="yes"/>
      <point x="69.632" y="878.592"/>
      <point x="282.624" y="1017.86" type="qcurve" smooth="yes"/>
      <point x="387.072" y="1085.44"/>
      <point x="518.144" y="1085.44" type="qcurve" smooth="yes"/>
      <point x="706.56" y="1085.44"/>
      <point x="811.008" y="940.032" type="qcurve"/>
      <point x="811.008" y="1466.37" type="line"/>
      <point x="991.232" y="1466.37" type="line"/>
    </contour>
    <contour>
      <point x="827.392" y="514.048" type="qcurve" smooth="yes"/>
      <point x="827.392" y="686.08"/>
      <point x="768" y="796.672" type="qcurve" smooth="yes"/>
      <point x="692.224" y="937.984"/>
      <point x="536.576" y="937.984" type="qcurve" smooth="yes"/>
      <point x="385.024" y="937.984"/>
      <point x="311.296" y="800.768" type="qcurve" smooth="yes"/>
      <point x="256" y="696.32"/>
      <point x="256" y="530.432" type="qcurve" smooth="yes"/>
      <point x="256" y="368.64"/>
      <point x="317.44" y="260.096" type="qcurve" smooth="yes"/>
      <point x="395.264" y="124.928"/>
      <point x="544.768" y="124.928" type="qcurve" smooth="yes"/>
      <point x="692.224" y="124.928"/>
      <point x="765.952" y="251.904" type="qcurve" smooth="yes"/>
      <point x="827.392" y="356.352"/>
    </contour>
  </outline>
</glyph>
<glyph name="e" format="2">
  <advance width="1139"/>
  <unicode hex="0065"/>
  <outline>
    <contour>
      <point x="1054.72" y="532.48" type="qcurve" smooth="yes"/>
      <point x="1054.72" y="516.096"/>
      <point x="1052.67" y="485.376" type="qcurve"/>
      <point x="260.096" y="485.376" type="line"/>
      <point x="270.336" y="329.728"/>
      <point x="346.112" y="233.472" type="qcurve" smooth="yes"/>
      <point x="432.128" y="124.928"/>
      <point x="581.632" y="124.928" type="qcurve" smooth="yes"/>
      <point x="784.384" y="124.928"/>
      <point x="862.208" y="342.016" type="qcurve"/>
      <point x="1048.58" y="319.488" type="line"/>
      <point x="956.416" y="-24.576"/>
      <point x="581.632" y="-24.576" type="qcurve" smooth="yes"/>
      <point x="335.872" y="-24.576"/>
      <point x="202.752" y="129.024" type="qcurve" smooth="yes"/>
      <point x="75.776" y="274.432"/>
      <point x="75.776" y="522.24" type="qcurve" smooth="yes"/>
      <point x="75.776" y="768"/>
      <point x="198.656" y="921.6" type="qcurve" smooth="yes"/>
      <point x="331.776" y="1085.44"/>
      <point x="571.392" y="1085.44" type="qcurve" smooth="yes"/>
      <point x="804.864" y="1085.44"/>
      <point x="933.888" y="923.648" type="qcurve" smooth="yes"/>
      <point x="1054.72" y="774.144"/>
    </contour>
    <contour>
      <point x="864.256" y="632.832" type="line"/>
      <point x="851.968" y="765.952"/>
      <point x="796.672" y="833.536" type="qcurve" smooth="yes"/>
      <point x="710.656" y="937.984"/>
      <point x="573.44" y="937.984" type="qcurve" smooth="yes"/>
      <point x="442.368" y="937.984"/>
      <point x="280.576" y="765.952"/>
      <point x="270.336" y="632.832" type="qcurve"/>
    </contour>
  </outline>
</glyph>
<glyph name="f" format="2">
  <advance width="569"/>
  <unicode hex="0066"/>
  <outline>
    <contour>
      <point x="641.024" y="1472.51" type="qcurve"/>
      <point x="612.352" y="1316.86" type="line"/>
      <point x="557.056" y="1325.06"/>
      <point x="507.904" y="1325.06" type="qcurve" smooth="yes"/>
      <point x="419.84" y="1325.06"/>
      <point x="356.352" y="1249.28"/>
      <point x="356.352" y="1159.17" type="qcurve" smooth="yes"/>
      <point x="356.352" y="1062.91" type="line"/>
      <point x="563.2" y="1062.91" type="line"/>
      <point x="563.2" y="921.6" type="line"/>
      <point x="356.352" y="921.6" type="line"/>
      <point x="356.352" y="0" type="line"/>
      <point x="178.176" y="0" type="line"/>
      <point x="178.176" y="921.6" type="line"/>
      <point x="18.432" y="921.6" type="line"/>
      <point x="18.432" y="1062.91" type="line"/>
      <point x="178.176" y="1062.91" type="line"/>
      <point x="178.176" y="1175.55" type="line" smooth="yes"/>
      <point x="178.176" y="1275.9"/>
      <point x="194.56" y="1327.1" type="qcurve" smooth="yes"/>
      <point x="219.136" y="1400.83"/>
      <point x="354.304" y="1490.94"/>
      <point x="471.04" y="1490.94" type="qcurve" smooth="yes"/>
      <point x="548.864" y="1490.94"/>
    </contour>
  </outline>
</glyph>
<glyph name="g" format="2">
  <advance width="1139"/>
  <unicode hex="0067"/>
  <outline>
    <contour>
      <point x="1001.47" y="143.36" type="line" smooth="yes"/>
      <point x="1001.47" y="-55.296"/>
      <point x="972.8" y="-149.504" type="qcurve" smooth="yes"/>
      <point x="927.744" y="-296.96"/>
      <point x="790.528" y="-370.688" type="qcurve" smooth="yes"/>
      <point x="681.984" y="-430.08"/>
      <point x="522.24" y="-430.08" type="qcurve" smooth="yes"/>
      <point x="335.872" y="-430.08"/>
      <point x="227.328" y="-354.304" type="qcurve" smooth="yes"/>
      <point x="98.304" y="-264.192"/>
      <point x="102.4" y="-88.064" type="qcurve"/>
      <point x="276.48" y="-114.688" type="line"/>
      <point x="299.008" y="-282.624"/>
      <point x="520.192" y="-282.624" type="qcurve" smooth="yes"/>
      <point x="755.712" y="-282.624"/>
      <point x="806.912" y="-92.16" type="qcurve"/>
      <point x="819.2" y="-38.912"/>
      <point x="819.2" y="139.264" type="qcurve"/>
      <point x="700.416" y="0"/>
      <point x="524.288" y="0" type="qcurve" smooth="yes"/>
      <point x="307.2" y="0"/>
      <point x="180.224" y="163.84" type="qcurve" smooth="yes"/>
      <point x="65.536" y="311.296"/>
      <point x="65.536" y="536.576" type="qcurve" smooth="yes"/>
      <point x="65.536" y="872.448"/>
      <point x="280.576" y="1015.81" type="qcurve" smooth="yes"/>
      <point x="385.024" y="1085.44"/>
      <point x="526.336" y="1085.44" type="qcurve" smooth="yes"/>
      <point x="714.752" y="1085.44"/>
      <point x="835.584" y="933.888" type="qcurve"/>
      <point x="835.584" y="1062.91" type="line"/>
      <point x="1001.47" y="1062.91" type="line"/>
    </contour>
    <contour>
      <point x="833.536" y="544.768" type="qcurve" smooth="yes"/>
      <point x="833.536" y="702.464"/>
      <point x="768" y="808.96" type="qcurve" smooth="yes"/>
      <point x="688.128" y="937.984"/>
      <point x="538.624" y="937.984" type="qcurve" smooth="yes"/>
      <point x="391.168" y="937.984"/>
      <point x="315.392" y="811.008" type="qcurve" smooth="yes"/>
      <point x="251.904" y="706.56"/>
      <point x="251.904" y="550.912" type="qcurve" smooth="yes"/>
      <point x="251.904" y="382.976"/>
      <point x="311.296" y="278.528" type="qcurve" smooth="yes"/>
      <point x="387.072" y="149.504"/>
      <point x="542.72" y="149.504" type="qcurve" smooth="yes"/>
      <point x="696.32" y="149.504"/>
      <point x="772.096" y="276.48" type="qcurve" smooth="yes"/>
      <point x="833.536" y="378.88"/>
    </contour>
  </outline>
</glyph>
<glyph name="i" format="2">
  <advance width="455"/>
  <unicode hex="0069"/>
  <outline>
    <contour>
      <point x="315.392" y="1259.52" type="line"/>
      <point x="135.168" y="1259.52" type="line"/>
      <point x="135.168" y="1466.37" type="line"/>
      <point x="315.392" y="1466.37" type="line"/>
    </contour>
    <contour>
      <point x="315.392" y="0" type="line"/>
      <point x="135.168" y="0" type="line"/>
      <point x="135.168" y="1062.91" type="line"/>
      <point x="315.392" y="1062.91" type="line"/>
    </contour>
  </outline>
</glyph>
<glyph name="m" format="2">
  <advance width="1706"/>
  <unicode hex="006D"/>
  <outline>
    <contour>
      <point x="1574.91" y="0" type="line"/>
      <point x="1394.69" y="0" type="line"/>
      <point x="1394.69" y="669.696" type="line" smooth="yes"/>
      <point x="1394.69" y="757.76"/>
      <point x="1384.45" y="798.72" type="qcurve" smooth="yes"/>
      <point x="1368.06" y="866.304"/>
      <point x="1314.82" y="901.12" type="qcurve"/>
      <point x="1267.71" y="929.792"/>
      <point x="1206.27" y="929.792" type="qcurve" smooth="yes"/>
      <point x="1073.15" y="929.792"/>
      <point x="1005.57" y="837.632" type="qcurve" smooth="yes"/>
      <point x="946.176" y="755.712"/>
      <point x="946.176" y="616.448" type="qcurve" smooth="yes"/>
      <point x="946.176" y="0" type="line"/>
      <point x="765.952" y="0" type="line"/>
      <point x="765.952" y="690.176" type="line" smooth="yes"/>
      <point x="765.952" y="929.792"/>
      <point x="577.536" y="929.792" type="qcurve" smooth="yes"/>
      <point x="403.456" y="929.792"/>
      <point x="344.064" y="772.096" type="qcurve" smooth="yes"/>
      <point x="315.392" y="696.32"/>
      <point x="315.392" y="550.912" type="qcurve" smooth="yes"/>
      <point x="315.392" y="0" type="line"/>
      <point x="135.168" y="0" type="line"/>
      <point x="135.168" y="1062.91" type="line"/>
      <point x="296.96" y="1062.91" type="line"/>
      <point x="296.96" y="913.408" type="line"/>
      <point x="407.552" y="1085.44"/>
      <point x="618.496" y="1085.44" type="qcurve" smooth="yes"/>
      <point x="851.968" y="1085.44"/>
      <point x="917.504" y="899.072" type="qcurve"/>
      <point x="1044.48" y="1085.44"/>
      <point x="1245.18" y="1085.44" type="qcurve" smooth="yes"/>
      <point x="1574.91" y="1085.44"/>
      <point x="1574.91" y="729.088" type="qcurve" smooth="yes"/>
    </contour>
  </outline>
</glyph>
<glyph name="n" format="2">
  <advance width="1139"/>
  <unicode hex="006E"/>
  <outline>
    <contour>
      <point x="997" y="0" type="line"/>
      <point x="817" y="0" type="line"/>
      <point x="817" y="645" type="line" smooth="yes"/>
      <point x="817" y="840"/>
      <point x="723" y="897" type="qcurve" smooth="yes"/>
      <point x="670" y="930"/>
      <point x="598" y="930" type="qcurve" smooth="yes"/>
      <point x="315" y="930"/>
      <point x="315" y="580" type="qcurve" smooth="yes"/>
      <point x="315" y="0" type="line"/>
      <point x="135" y="0" type="line"/>
      <point x="135" y="1063" type="line"/>
      <point x="297" y="1063" type="line"/>
      <point x="297" y="911" type="line"/>
      <point x="414" y="1085"/>
      <point x="635" y="1085" type="qcurve" smooth="yes"/>
      <point x="842" y="1085"/>
      <point x="932" y="961" type="qcurve" smooth="yes"/>
      <point x="973" y="905"/>
      <point x="987" y="827" type="qcurve" smooth="yes"/>
      <point x="997" y="778"/>
      <point x="997" y="653" type="qcurve" smooth="yes"/>
    </contour>
  </outline>
</glyph>
<glyph name="o" format="2">
  <advance width="1139"/>
  <unicode hex="006F"/>
  <outline>
    <contour>
      <point x="1062.91" y="546.816" type="qcurve" smooth="yes"/>
      <point x="1062.91" y="174.08"/>
      <point x="823.296" y="40.96" type="qcurve" smooth="yes"/>
      <point x="704.512" y="-24.576"/>
      <point x="565.248" y="-24.576" type="qcurve" smooth="yes"/>
      <point x="323.584" y="-24.576"/>
      <point x="190.464" y="135.168" type="qcurve" smooth="yes"/>
      <point x="67.584" y="282.624"/>
      <point x="67.584" y="530.432" type="qcurve" smooth="yes"/>
      <point x="67.584" y="778.24"/>
      <point x="192.512" y="927.744" type="qcurve" smooth="yes"/>
      <point x="323.584" y="1085.44"/>
      <point x="565.248" y="1085.44" type="qcurve" smooth="yes"/>
      <point x="800.768" y="1085.44"/>
      <point x="935.936" y="931.84" type="qcurve" smooth="yes"/>
      <point x="1062.91" y="784.384"/>
    </contour>
    <contour>
      <point x="878.592" y="536.576" type="qcurve" smooth="yes"/>
      <point x="878.592" y="702.464"/>
      <point x="806.912" y="811.008" type="qcurve" smooth="yes"/>
      <point x="722.944" y="937.984"/>
      <point x="565.248" y="937.984" type="qcurve" smooth="yes"/>
      <point x="405.504" y="937.984"/>
      <point x="321.536" y="808.96" type="qcurve" smooth="yes"/>
      <point x="253.952" y="702.464"/>
      <point x="253.952" y="530.432" type="qcurve" smooth="yes"/>
      <point x="253.952" y="360.448"/>
      <point x="321.536" y="251.904" type="qcurve"/>
      <point x="405.504" y="124.928"/>
      <point x="565.248" y="124.928" type="qcurve" smooth="yes"/>
      <point x="729.088" y="124.928"/>
      <point x="811.008" y="256" type="qcurve" smooth="yes"/>
      <point x="878.592" y="364.544"/>
    </contour>
  </outline>
</glyph>
<glyph name="p" format="2">
  <advance width="1139"/>
  <unicode hex="0070"/>
  <outline>
    <contour>
      <point x="1056.77" y="538.624" type="qcurve" smooth="yes"/>
      <point x="1056.77" y="188.416"/>
      <point x="829.44" y="45.056" type="qcurve" smooth="yes"/>
      <point x="716.8" y="-24.576"/>
      <point x="593.92" y="-24.576" type="qcurve" smooth="yes"/>
      <point x="421.888" y="-24.576"/>
      <point x="315.392" y="110.592" type="qcurve"/>
      <point x="315.392" y="-407.552" type="line"/>
      <point x="135.168" y="-407.552" type="line"/>
      <point x="135.168" y="1062.91" type="line"/>
      <point x="299.008" y="1062.91" type="line"/>
      <point x="299.008" y="923.648" type="line"/>
      <point x="415.744" y="1085.44"/>
      <point x="606.208" y="1085.44" type="qcurve" smooth="yes"/>
      <point x="892.928" y="1085.44"/>
      <point x="1003.52" y="819.2" type="qcurve" smooth="yes"/>
      <point x="1056.77" y="690.176"/>
    </contour>
    <contour>
      <point x="872.448" y="540.672" type="qcurve" smooth="yes"/>
      <point x="872.448" y="698.368"/>
      <point x="813.056" y="808.96" type="qcurve" smooth="yes"/>
      <point x="737.28" y="944.128"/>
      <point x="589.824" y="944.128" type="qcurve" smooth="yes"/>
      <point x="442.368" y="944.128"/>
      <point x="362.496" y="800.768" type="qcurve" smooth="yes"/>
      <point x="299.008" y="684.032"/>
      <point x="299.008" y="524.288" type="qcurve" smooth="yes"/>
      <point x="299.008" y="362.496"/>
      <point x="358.4" y="256" type="qcurve" smooth="yes"/>
      <point x="432.128" y="124.928"/>
      <point x="581.632" y="124.928" type="qcurve" smooth="yes"/>
      <point x="735.232" y="124.928"/>
      <point x="811.008" y="262.144" type="qcurve" smooth="yes"/>
      <point x="872.448" y="372.736"/>
    </contour>
  </outline>
</glyph>
<glyph name="r" format="2">
  <advance width="682"/>
  <unicode hex="0072"/>
  <outline>
    <contour>
      <point x="710.656" y="1028.1" type="qcurve"/>
      <point x="647.168" y="860.16" type="line"/>
      <point x="581.632" y="899.072"/>
      <point x="516.096" y="899.072" type="qcurve" smooth="yes"/>
      <point x="385.024" y="899.072"/>
      <point x="342.016" y="765.952" type="qcurve"/>
      <point x="313.344" y="669.696"/>
      <point x="313.344" y="555.008" type="qcurve" smooth="yes"/>
      <point x="313.344" y="0" type="line"/>
      <point x="133.12" y="0" type="line"/>
      <point x="133.12" y="1062.91" type="line"/>
      <point x="294.912" y="1062.91" type="line"/>
      <point x="294.912" y="901.12" type="line"/>
      <point x="397.312" y="1085.44"/>
      <point x="524.288" y="1085.44" type="qcurve" smooth="yes"/>
      <point x="616.448" y="1085.44"/>
    </contour>
  </outline>
</glyph>
<glyph name="s" format="2">
  <advance width="1024"/>
  <unicode hex="0073"/>
  <outline>
    <contour>
      <point x="944.128" y="311.296" type="qcurve" smooth="yes"/>
      <point x="944.128" y="108.544"/>
      <point x="741.376" y="20.48" type="qcurve" smooth="yes"/>
      <point x="641.024" y="-24.576"/>
      <point x="516.096" y="-24.576" type="qcurve" smooth="yes"/>
      <point x="122.88" y="-24.576"/>
      <point x="63.488" y="317.44" type="qcurve"/>
      <point x="241.664" y="344.064" type="line"/>
      <point x="272.384" y="124.928"/>
      <point x="516.096" y="124.928" type="qcurve" smooth="yes"/>
      <point x="612.352" y="124.928"/>
      <point x="677.888" y="159.744" type="qcurve" smooth="yes"/>
      <point x="759.808" y="204.8"/>
      <point x="759.808" y="292.864" type="qcurve" smooth="yes"/>
      <point x="759.808" y="354.304"/>
      <point x="706.56" y="389.12" type="qcurve" smooth="yes"/>
      <point x="671.744" y="413.696"/>
      <point x="522.24" y="450.56" type="qcurve" smooth="yes"/>
      <point x="356.352" y="491.52"/>
      <point x="309.248" y="509.952" type="qcurve" smooth="yes"/>
      <point x="180.224" y="559.104"/>
      <point x="133.12" y="636.928" type="qcurve" smooth="yes"/>
      <point x="92.16" y="702.464"/>
      <point x="92.16" y="780.288" type="qcurve" smooth="yes"/>
      <point x="92.16" y="923.648"/>
      <point x="212.992" y="1011.71" type="qcurve" smooth="yes"/>
      <point x="315.392" y="1085.44"/>
      <point x="483.328" y="1085.44" type="qcurve" smooth="yes"/>
      <point x="745.472" y="1085.44"/>
      <point x="843.776" y="952.32" type="qcurve" smooth="yes"/>
      <point x="888.832" y="890.88"/>
      <point x="905.216" y="788.48" type="qcurve"/>
      <point x="729.088" y="763.904" type="line"/>
      <point x="704.512" y="937.984"/>
      <point x="497.664" y="937.984" type="qcurve" smooth="yes"/>
      <point x="266.24" y="937.984"/>
      <point x="266.24" y="800.768" type="qcurve" smooth="yes"/>
      <point x="266.24" y="724.992"/>
      <point x="358.4" y="690.176" type="qcurve" smooth="yes"/>
      <point x="382.976" y="679.936"/>
      <point x="516.096" y="643.072" type="qcurve" smooth="yes"/>
      <point x="694.272" y="595.968"/>
      <point x="727.04" y="583.68" type="qcurve" smooth="yes"/>
      <point x="851.968" y="536.576"/>
      <point x="901.12" y="466.944" type="qcurve" smooth="yes"/>
      <point x="944.128" y="403.456"/>
    </contour>
  </outline>
</glyph>
<glyph name="t" format="2">
  <advance width="569"/>
  <unicode hex="0074"/>
  <outline>
    <contour>
      <point x="555.008" y="2.048" type="line"/>
      <point x="477.184" y="-14.336"/>
      <point x="417.792" y="-14.336" type="qcurve" smooth="yes"/>
      <point x="239.616" y="-14.336"/>
      <point x="190.464" y="98.304" type="qcurve" smooth="yes"/>
      <point x="167.936" y="149.504"/>
      <point x="167.936" y="311.296" type="qcurve" smooth="yes"/>
      <point x="167.936" y="921.6" type="line"/>
      <point x="36.864" y="921.6" type="line"/>
      <point x="36.864" y="1062.91" type="line"/>
      <point x="167.936" y="1062.91" type="line"/>
      <point x="167.936" y="1325.06" type="line"/>
      <point x="346.112" y="1433.6" type="line"/>
      <point x="346.112" y="1062.91" type="line"/>
      <point x="528.384" y="1062.91" type="line"/>
      <point x="528.384" y="921.6" type="line"/>
      <point x="346.112" y="921.6" type="line"/>
      <point x="346.112" y="301.056" type="line" smooth="yes"/>
      <point x="346.112" y="223.232"/>
      <point x="360.448" y="194.56" type="qcurve" smooth="yes"/>
      <point x="380.928" y="153.6"/>
      <point x="448.512" y="153.6" type="qcurve" smooth="yes"/>
      <point x="479.232" y="153.6"/>
      <point x="528.384" y="161.792" type="qcurve"/>
    </contour>
  </outline>
</glyph>
<glyph name="u" format="2">
  <advance width="1139"/>
  <unicode hex="0075"/>
  <outline>
    <contour>
      <point x="991.232" y="0" type="line"/>
      <point x="831.488" y="0" type="line"/>
      <point x="831.488" y="155.648" type="line"/>
      <point x="706.56" y="-24.576"/>
      <point x="493.568" y="-24.576" type="qcurve" smooth="yes"/>
      <point x="409.6" y="-24.576"/>
      <point x="331.776" y="6.144" type="qcurve" smooth="yes"/>
      <point x="241.664" y="40.96"/>
      <point x="196.608" y="102.4" type="qcurve" smooth="yes"/>
      <point x="157.696" y="157.696"/>
      <point x="141.312" y="235.52" type="qcurve" smooth="yes"/>
      <point x="131.072" y="288.768"/>
      <point x="131.072" y="403.456" type="qcurve" smooth="yes"/>
      <point x="131.072" y="1062.91" type="line"/>
      <point x="311.296" y="1062.91" type="line"/>
      <point x="311.296" y="473.088" type="line" smooth="yes"/>
      <point x="311.296" y="329.728"/>
      <point x="321.536" y="282.624" type="qcurve" smooth="yes"/>
      <point x="358.4" y="131.072"/>
      <point x="530.432" y="131.072" type="qcurve" smooth="yes"/>
      <point x="610.304" y="131.072"/>
      <point x="753.664" y="212.992"/>
      <point x="811.008" y="356.352"/>
      <point x="811.008" y="493.568" type="qcurve" smooth="yes"/>
      <point x="811.008" y="1062.91" type="line"/>
      <point x="991.232" y="1062.91" type="line"/>
    </contour>
  </outline>
</glyph>
<glyph name="x" format="2">
  <advance width="1024"/>
  <unicode hex="0078"/>
  <outline>
    <contour>
      <point x="1009.66" y="0" type="line"/>
      <point x="788.48" y="0" type="line"/>
      <point x="512" y="419.84" type="line"/>
      <point x="233.472" y="0" type="line"/>
      <point x="14.336" y="0" type="line"/>
      <point x="403.456" y="552.96" type="line"/>
      <point x="43.008" y="1062.91" type="line"/>
      <point x="268.288" y="1062.91" type="line"/>
      <point x="432.128" y="813.056" type="line" smooth="yes"/>
      <point x="473.088" y="749.568"/>
      <point x="505.856" y="694.272" type="qcurve"/>
      <point x="540.672" y="745.472"/>
      <point x="587.776" y="811.008" type="qcurve" smooth="yes"/>
      <point x="765.952" y="1062.91" type="line"/>
      <point x="980.992" y="1062.91" type="line"/>
      <point x="614.4" y="561.152" type="line"/>
    </contour>
  </outline>
</glyph>
<glyph name="braceleft" format="2">
  <advance width="684"/>
  <unicode hex="007B"/>
  <outline>
    <contour>
      <point x="636.928" y="-430.08" type="line"/>
      <point x="579.584" y="-430.08" type="line" smooth="yes"/>
      <point x="483.328" y="-430.08"/>
      <point x="438.272" y="-415.744" type="qcurve"/>
      <point x="303.104" y="-366.592"/>
      <point x="276.48" y="-210.944" type="qcurve"/>
      <point x="270.336" y="-161.792"/>
      <point x="270.336" y="157.696"/>
      <point x="258.048" y="235.52" type="qcurve" smooth="yes"/>
      <point x="239.616" y="360.448"/>
      <point x="182.272" y="407.552" type="qcurve" smooth="yes"/>
      <point x="133.12" y="446.464"/>
      <point x="57.344" y="448.512" type="qcurve"/>
      <point x="57.344" y="612.352" type="line"/>
      <point x="212.992" y="616.448"/>
      <point x="247.808" y="761.856" type="qcurve"/>
      <point x="262.144" y="831.488"/>
      <point x="264.192" y="997.376" type="qcurve"/>
      <point x="264.192" y="1073.15"/>
      <point x="270.336" y="1218.56" type="qcurve"/>
      <point x="292.864" y="1435.65"/>
      <point x="456.704" y="1480.7" type="qcurve" smooth="yes"/>
      <point x="491.52" y="1490.94"/>
      <point x="579.584" y="1490.94" type="qcurve" smooth="yes"/>
      <point x="636.928" y="1490.94" type="line"/>
      <point x="636.928" y="1333.25" type="line"/>
      <point x="604.16" y="1333.25" type="line" smooth="yes"/>
      <point x="493.568" y="1333.25"/>
      <point x="460.8" y="1286.14" type="qcurve" smooth="yes"/>
      <point x="432.128" y="1247.23"/>
      <point x="432.128" y="1128.45" type="qcurve" smooth="yes"/>
      <point x="432.128" y="864.256"/>
      <point x="421.888" y="798.72" type="qcurve" smooth="yes"/>
      <point x="405.504" y="694.272"/>
      <point x="317.44" y="575.488"/>
      <point x="223.232" y="530.432" type="qcurve"/>
      <point x="356.352" y="475.136"/>
      <point x="401.408" y="346.112" type="qcurve" smooth="yes"/>
      <point x="432.128" y="256"/>
      <point x="432.128" y="79.872" type="qcurve" smooth="yes"/>
      <point x="432.128" y="-116.736"/>
      <point x="436.224" y="-151.552" type="qcurve" smooth="yes"/>
      <point x="446.464" y="-227.328"/>
      <point x="487.424" y="-253.952" type="qcurve" smooth="yes"/>
      <point x="522.24" y="-274.432"/>
      <point x="604.16" y="-274.432" type="qcurve" smooth="yes"/>
      <point x="636.928" y="-274.432" type="line"/>
    </contour>
  </outline>
</glyph>
<glyph name="braceright" format="2">
  <advance width="684"/>
  <unicode hex="007D"/>
  <outline>
    <contour>
      <point x="626.688" y="448.512" type="line"/>
      <point x="471.04" y="444.416"/>
      <point x="436.224" y="299.008" type="qcurve" smooth="yes"/>
      <point x="417.792" y="221.184"/>
      <point x="417.792" y="73.728" type="qcurve" smooth="yes"/>
      <point x="417.792" y="-106.496"/>
      <point x="413.696" y="-157.696" type="qcurve" smooth="yes"/>
      <point x="391.168" y="-372.736"/>
      <point x="227.328" y="-419.84" type="qcurve" smooth="yes"/>
      <point x="188.416" y="-430.08"/>
      <point x="102.4" y="-430.08" type="qcurve" smooth="yes"/>
      <point x="47.104" y="-430.08" type="line"/>
      <point x="47.104" y="-274.432" type="line"/>
      <point x="77.824" y="-274.432" type="line" smooth="yes"/>
      <point x="188.416" y="-274.432"/>
      <point x="223.232" y="-225.28" type="qcurve" smooth="yes"/>
      <point x="249.856" y="-188.416"/>
      <point x="249.856" y="-67.584" type="qcurve" smooth="yes"/>
      <point x="249.856" y="184.32"/>
      <point x="258.048" y="249.856" type="qcurve" smooth="yes"/>
      <point x="288.768" y="458.752"/>
      <point x="458.752" y="530.432" type="qcurve"/>
      <point x="325.632" y="593.92"/>
      <point x="280.576" y="714.752" type="qcurve" smooth="yes"/>
      <point x="249.856" y="800.768"/>
      <point x="249.856" y="980.992" type="qcurve" smooth="yes"/>
      <point x="249.856" y="1169.41"/>
      <point x="245.76" y="1214.46" type="qcurve"/>
      <point x="235.52" y="1290.24"/>
      <point x="194.56" y="1314.82" type="qcurve" smooth="yes"/>
      <point x="161.792" y="1333.25"/>
      <point x="77.824" y="1333.25" type="qcurve" smooth="yes"/>
      <point x="47.104" y="1333.25" type="line"/>
      <point x="47.104" y="1490.94" type="line"/>
      <point x="102.4" y="1490.94" type="line" smooth="yes"/>
      <point x="198.656" y="1490.94"/>
      <point x="245.76" y="1474.56" type="qcurve" smooth="yes"/>
      <point x="380.928" y="1427.46"/>
      <point x="405.504" y="1269.76" type="qcurve" smooth="yes"/>
      <point x="417.792" y="1196.03"/>
      <point x="415.744" y="1015.81" type="qcurve"/>
      <point x="415.744" y="849.92"/>
      <point x="436.224" y="761.856" type="qcurve" smooth="yes"/>
      <point x="471.04" y="616.448"/>
      <point x="626.688" y="612.352" type="qcurve"/>
    </contour>
  </outline>
</glyph>
<glyph name="quoteright" format="2">
  <advance width="358"/>
  <unicode hex="2019"/>
  <outline>
    <contour>
      <point x="295" y="1221" type="curve" smooth="yes"/>
      <point x="264" y="1120"/>
      <point x="166" y="1024"/>
      <point x="82" y="946" type="curve"/>
      <point x="22" y="946" type="line"/>
      <point x="44" y="1037"/>
      <point x="78" y="1128"/>
      <point x="90" y="1221" type="curve" smooth="yes"/>
      <point x="100" y="1301"/>
      <point x="110" y="1385"/>
      <point x="90" y="1466" type="curve"/>
      <point x="295" y="1466" type="line"/>
      <point x="315" y="1385"/>
      <point x="319" y="1298"/>
    </contour>
  </outline>
</glyph>
<glyph name="uniE000" format="2">
  <advance width="1214"/>
  <unicode hex="E000"/>
  <outline>
    <contour>
      <point x="1210.37" y="409.6" type="qcurve" smooth="yes"/>
      <point x="1210.37" y="215.04"/>
      <point x="1103.87" y="69.632" type="qcurve" smooth="yes"/>
      <point x="987.136" y="-92.16"/>
      <point x="800.768" y="-92.16" type="qcurve" smooth="yes"/>
      <point x="632.832" y="-92.16"/>
      <point x="530.432" y="28.672" type="qcurve" smooth="yes"/>
      <point x="434.176" y="141.312"/>
      <point x="434.176" y="311.296" type="qcurve" smooth="yes"/>
      <point x="434.176" y="448.512"/>
      <point x="538.624" y="563.2" type="qcurve" smooth="yes"/>
      <point x="628.736" y="659.456"/>
      <point x="770.048" y="716.8" type="qcurve"/>
      <point x="718.848" y="727.04"/>
      <point x="661.504" y="727.04" type="qcurve" smooth="yes"/>
      <point x="620.544" y="727.04"/>
      <point x="567.296" y="778.24"/>
      <point x="567.296" y="819.2" type="qcurve" smooth="yes"/>
      <point x="567.296" y="860.16"/>
      <point x="620.544" y="911.36"/>
      <point x="661.504" y="911.36" type="qcurve" smooth="yes"/>
      <point x="901.12" y="911.36"/>
      <point x="995.328" y="1048.58" type="qcurve"/>
      <point x="1026.05" y="1089.54"/>
      <point x="1026.05" y="1128.45" type="qcurve" smooth="yes"/>
      <point x="1026.05" y="1165.31"/>
      <point x="995.328" y="1206.27" type="qcurve"/>
      <point x="901.12" y="1343.49"/>
      <point x="661.504" y="1343.49" type="qcurve" smooth="yes"/>
      <point x="491.52" y="1343.49"/>
      <point x="354.304" y="1257.47" type="qcurve" smooth="yes"/>
      <point x="321.536" y="1236.99"/>
      <point x="296.96" y="1236.99" type="qcurve" smooth="yes"/>
      <point x="260.096" y="1236.99"/>
      <point x="204.8" y="1296.38"/>
      <point x="204.8" y="1333.25" type="qcurve" smooth="yes"/>
      <point x="204.8" y="1370.11"/>
      <point x="241.664" y="1404.93" type="qcurve" smooth="yes"/>
      <point x="307.2" y="1462.27"/>
      <point x="440.32" y="1497.09" type="qcurve" smooth="yes"/>
      <point x="557.056" y="1527.81"/>
      <point x="661.504" y="1527.81" type="qcurve" smooth="yes"/>
      <point x="862.208" y="1527.81"/>
      <point x="1021.95" y="1429.5" type="qcurve" smooth="yes"/>
      <point x="1210.37" y="1314.82"/>
      <point x="1210.37" y="1128.45" type="qcurve" smooth="yes"/>
      <point x="1210.37" y="931.84"/>
      <point x="1005.57" y="815.104" type="qcurve"/>
      <point x="1210.37" y="684.032"/>
    </contour>
    <contour>
      <point x="1026.05" y="409.6" type="qcurve" smooth="yes"/>
      <point x="1026.05" y="509.952"/>
      <point x="980.992" y="581.632" type="qcurve"/>
      <point x="860.16" y="567.296"/>
      <point x="751.616" y="499.712" type="qcurve" smooth="yes"/>
      <point x="618.496" y="417.792"/>
      <point x="618.496" y="311.296" type="qcurve" smooth="yes"/>
      <point x="618.496" y="219.136"/>
      <point x="661.504" y="159.744" type="qcurve" smooth="yes"/>
      <point x="710.656" y="92.16"/>
      <point x="800.768" y="92.16" type="qcurve" smooth="yes"/>
      <point x="907.264" y="92.16"/>
      <point x="970.752" y="202.752" type="qcurve" smooth="yes"/>
      <point x="1026.05" y="294.912"/>
    </contour>
  </outline>
</glyph>
<glyph name="uniE003" format="2">
  <advance width="1466"/>
  <unicode hex="E003"/>
  <outline>
    <contour>
      <point x="1466.37" y="409.6" type="qcurve" smooth="yes"/>
      <point x="1466.37" y="215.04"/>
      <point x="1359.87" y="69.632" type="qcurve" smooth="yes"/>
      <point x="1243.14" y="-92.16"/>
      <point x="1056.77" y="-92.16" type="qcurve" smooth="yes"/>
      <point x="925.696" y="-92.16"/>
      <point x="831.488" y="-14.336" type="qcurve" smooth="yes"/>
      <point x="743.424" y="57.344"/>
      <point x="708.608" y="178.176" type="qcurve"/>
      <point x="430.08" y="178.176" type="line"/>
      <point x="452.608" y="159.744"/>
      <point x="479.232" y="147.456" type="qcurve"/>
      <point x="538.624" y="124.928"/>
      <point x="538.624" y="65.536" type="qcurve" smooth="yes"/>
      <point x="538.624" y="28.672"/>
      <point x="487.424" y="-30.72"/>
      <point x="448.512" y="-30.72" type="qcurve" smooth="yes"/>
      <point x="430.08" y="-30.72"/>
      <point x="411.648" y="-22.528" type="qcurve" smooth="yes"/>
      <point x="319.488" y="12.288"/>
      <point x="204.8" y="172.032"/>
      <point x="204.8" y="270.336" type="qcurve" smooth="yes"/>
      <point x="204.8" y="370.688"/>
      <point x="319.488" y="528.384"/>
      <point x="411.648" y="565.248" type="qcurve" smooth="yes"/>
      <point x="430.08" y="573.44"/>
      <point x="448.512" y="573.44" type="qcurve" smooth="yes"/>
      <point x="487.424" y="573.44"/>
      <point x="538.624" y="514.048"/>
      <point x="538.624" y="477.184" type="qcurve" smooth="yes"/>
      <point x="538.624" y="417.792"/>
      <point x="479.232" y="393.216" type="qcurve" smooth="yes"/>
      <point x="452.608" y="382.976"/>
      <point x="430.08" y="362.496" type="qcurve"/>
      <point x="694.272" y="362.496" type="line"/>
      <point x="729.088" y="595.968"/>
      <point x="1026.05" y="716.8" type="qcurve"/>
      <point x="974.848" y="727.04"/>
      <point x="919.552" y="727.04" type="qcurve" smooth="yes"/>
      <point x="823.296" y="727.04"/>
      <point x="823.296" y="819.2" type="qcurve" smooth="yes"/>
      <point x="823.296" y="911.36"/>
      <point x="919.552" y="911.36" type="qcurve" smooth="yes"/>
      <point x="1157.12" y="911.36"/>
      <point x="1253.38" y="1048.58" type="qcurve" smooth="yes"/>
      <point x="1282.05" y="1087.49"/>
      <point x="1282.05" y="1128.45" type="qcurve" smooth="yes"/>
      <point x="1282.05" y="1165.31"/>
      <point x="1253.38" y="1206.27" type="qcurve" smooth="yes"/>
      <point x="1157.12" y="1343.49"/>
      <point x="919.552" y="1343.49" type="qcurve" smooth="yes"/>
      <point x="741.376" y="1343.49"/>
      <point x="610.304" y="1257.47" type="qcurve" smooth="yes"/>
      <point x="579.584" y="1236.99"/>
      <point x="555.008" y="1236.99" type="qcurve" smooth="yes"/>
      <point x="516.096" y="1236.99"/>
      <point x="460.8" y="1296.38"/>
      <point x="460.8" y="1333.25" type="qcurve" smooth="yes"/>
      <point x="460.8" y="1372.16"/>
      <point x="499.712" y="1404.93" type="qcurve" smooth="yes"/>
      <point x="565.248" y="1462.27"/>
      <point x="698.368" y="1497.09" type="qcurve" smooth="yes"/>
      <point x="813.056" y="1527.81"/>
      <point x="919.552" y="1527.81" type="qcurve" smooth="yes"/>
      <point x="1120.26" y="1527.81"/>
      <point x="1280" y="1429.5" type="qcurve" smooth="yes"/>
      <point x="1466.37" y="1314.82"/>
      <point x="1466.37" y="1128.45" type="qcurve" smooth="yes"/>
      <point x="1466.37" y="931.84"/>
      <point x="1263.62" y="815.104" type="qcurve"/>
      <point x="1466.37" y="684.032"/>
    </contour>
    <contour>
      <point x="1282.05" y="409.6" type="qcurve" smooth="yes"/>
      <point x="1282.05" y="509.952"/>
      <point x="1236.99" y="581.632" type="qcurve"/>
      <point x="1110.02" y="565.248"/>
      <point x="1001.47" y="495.616" type="qcurve" smooth="yes"/>
      <point x="874.496" y="413.696"/>
      <point x="874.496" y="311.296" type="qcurve" smooth="yes"/>
      <point x="874.496" y="219.136"/>
      <point x="917.504" y="159.744" type="qcurve" smooth="yes"/>
      <point x="966.656" y="92.16"/>
      <point x="1056.77" y="92.16" type="qcurve" smooth="yes"/>
      <point x="1163.26" y="92.16"/>
      <point x="1226.75" y="202.752" type="qcurve" smooth="yes"/>
      <point x="1282.05" y="294.912"/>
    </contour>
  </outline>
</glyph>
<glyph name="uniE006" format="2">
  <advance width="1522"/>
  <unicode hex="E006"/>
  <outline>
    <contour>
      <point x="1521.66" y="409.6" type="qcurve" smooth="yes"/>
      <point x="1521.66" y="215.04"/>
      <point x="1415.17" y="69.632" type="qcurve" smooth="yes"/>
      <point x="1298.43" y="-92.16"/>
      <point x="1112.06" y="-92.16" type="qcurve" smooth="yes"/>
      <point x="944.128" y="-92.16"/>
      <point x="841.728" y="28.672" type="qcurve" smooth="yes"/>
      <point x="745.472" y="141.312"/>
      <point x="745.472" y="311.296" type="qcurve" smooth="yes"/>
      <point x="745.472" y="448.512"/>
      <point x="849.92" y="563.2" type="qcurve" smooth="yes"/>
      <point x="940.032" y="659.456"/>
      <point x="1081.34" y="716.8" type="qcurve"/>
      <point x="1030.14" y="727.04"/>
      <point x="974.848" y="727.04" type="qcurve" smooth="yes"/>
      <point x="933.888" y="727.04"/>
      <point x="878.592" y="778.24"/>
      <point x="878.592" y="819.2" type="qcurve" smooth="yes"/>
      <point x="878.592" y="860.16"/>
      <point x="933.888" y="911.36"/>
      <point x="974.848" y="911.36" type="qcurve" smooth="yes"/>
      <point x="1210.37" y="911.36"/>
      <point x="1304.58" y="1042.43" type="qcurve" smooth="yes"/>
      <point x="1337.34" y="1087.49"/>
      <point x="1337.34" y="1128.45" type="qcurve" smooth="yes"/>
      <point x="1337.34" y="1165.31"/>
      <point x="1304.58" y="1212.42" type="qcurve" smooth="yes"/>
      <point x="1210.37" y="1343.49"/>
      <point x="919.552" y="1343.49" type="qcurve" smooth="yes"/>
      <point x="825.344" y="1343.49"/>
      <point x="729.088" y="1327.1" type="qcurve" smooth="yes"/>
      <point x="626.688" y="1310.72"/>
      <point x="534.528" y="1277.95" type="qcurve" smooth="yes"/>
      <point x="389.12" y="1224.7"/>
      <point x="389.12" y="1163.26" type="qcurve" smooth="yes"/>
      <point x="389.12" y="1118.21"/>
      <point x="454.656" y="1052.67"/>
      <point x="540.672" y="1052.67"/>
      <point x="591.872" y="1001.47"/>
      <point x="591.872" y="960.512" type="qcurve" smooth="yes"/>
      <point x="591.872" y="921.6"/>
      <point x="540.672" y="868.352"/>
      <point x="499.712" y="868.352" type="qcurve" smooth="yes"/>
      <point x="378.88" y="868.352"/>
      <point x="204.8" y="1042.43"/>
      <point x="204.8" y="1163.26" type="qcurve" smooth="yes"/>
      <point x="204.8" y="1300.48"/>
      <point x="360.448" y="1396.74" type="qcurve" smooth="yes"/>
      <point x="475.136" y="1468.42"/>
      <point x="636.928" y="1503.23" type="qcurve" smooth="yes"/>
      <point x="763.904" y="1529.86"/>
      <point x="897.024" y="1529.86" type="qcurve" smooth="yes"/>
      <point x="1134.59" y="1529.86"/>
      <point x="1302.53" y="1445.89" type="qcurve" smooth="yes"/>
      <point x="1521.66" y="1339.39"/>
      <point x="1521.66" y="1128.45" type="qcurve" smooth="yes"/>
      <point x="1521.66" y="931.84"/>
      <point x="1318.91" y="815.104" type="qcurve"/>
      <point x="1521.66" y="684.032"/>
    </contour>
    <contour>
      <point x="1337.34" y="409.6" type="qcurve" smooth="yes"/>
      <point x="1337.34" y="509.952"/>
      <point x="1292.29" y="581.632" type="qcurve"/>
      <point x="1171.46" y="567.296"/>
      <point x="1062.91" y="499.712" type="qcurve" smooth="yes"/>
      <point x="929.792" y="417.792"/>
      <point x="929.792" y="311.296" type="qcurve" smooth="yes"/>
      <point x="929.792" y="219.136"/>
      <point x="972.8" y="159.744" type="qcurve" smooth="yes"/>
      <point x="1021.95" y="92.16"/>
      <point x="1112.06" y="92.16" type="qcurve" smooth="yes"/>
      <point x="1218.56" y="92.16"/>
      <point x="1282.05" y="202.752" type="qcurve" smooth="yes"/>
      <point x="1337.34" y="294.912"/>
    </contour>
  </outline>
</glyph>
<glyph name="uniE007" format="2">
  <advance width="1980"/>
  <unicode hex="E007"/>
  <outline>
    <contour>
      <point x="1980.42" y="677.888" type="qcurve" smooth="yes"/>
      <point x="1980.42" y="573.44"/>
      <point x="1835.01" y="464.896"/>
      <point x="1726.46" y="464.896" type="qcurve" smooth="yes"/>
      <point x="1626.11" y="464.896"/>
      <point x="1521.66" y="542.72" type="qcurve"/>
      <point x="1488.9" y="497.664"/>
      <point x="1435.65" y="403.456" type="qcurve" smooth="yes"/>
      <point x="1404.93" y="350.208"/>
      <point x="1355.78" y="350.208" type="qcurve" smooth="yes"/>
      <point x="1316.86" y="350.208"/>
      <point x="1257.47" y="403.456"/>
      <point x="1257.47" y="440.32" type="qcurve" smooth="yes"/>
      <point x="1257.47" y="477.184"/>
      <point x="1325.06" y="585.728" type="qcurve"/>
      <point x="1183.74" y="585.728" type="line"/>
      <point x="1210.37" y="505.856"/>
      <point x="1210.37" y="409.6" type="qcurve" smooth="yes"/>
      <point x="1210.37" y="215.04"/>
      <point x="1103.87" y="69.632" type="qcurve" smooth="yes"/>
      <point x="987.136" y="-92.16"/>
      <point x="800.768" y="-92.16" type="qcurve" smooth="yes"/>
      <point x="632.832" y="-92.16"/>
      <point x="530.432" y="28.672" type="qcurve" smooth="yes"/>
      <point x="434.176" y="141.312"/>
      <point x="434.176" y="311.296" type="qcurve" smooth="yes"/>
      <point x="434.176" y="452.608"/>
      <point x="538.624" y="563.2" type="qcurve" smooth="yes"/>
      <point x="626.688" y="657.408"/>
      <point x="772.096" y="716.8" type="qcurve"/>
      <point x="720.896" y="727.04"/>
      <point x="661.504" y="727.04" type="qcurve" smooth="yes"/>
      <point x="567.296" y="727.04"/>
      <point x="567.296" y="819.2" type="qcurve" smooth="yes"/>
      <point x="567.296" y="911.36"/>
      <point x="661.504" y="911.36" type="qcurve" smooth="yes"/>
      <point x="897.024" y="911.36"/>
      <point x="995.328" y="1044.48" type="qcurve" smooth="yes"/>
      <point x="1026.05" y="1087.49"/>
      <point x="1026.05" y="1128.45" type="qcurve" smooth="yes"/>
      <point x="1026.05" y="1167.36"/>
      <point x="995.328" y="1210.37" type="qcurve" smooth="yes"/>
      <point x="897.024" y="1343.49"/>
      <point x="661.504" y="1343.49" type="qcurve" smooth="yes"/>
      <point x="485.376" y="1343.49"/>
      <point x="354.304" y="1257.47" type="qcurve" smooth="yes"/>
      <point x="323.584" y="1236.99"/>
      <point x="296.96" y="1236.99" type="qcurve" smooth="yes"/>
      <point x="260.096" y="1236.99"/>
      <point x="204.8" y="1296.38"/>
      <point x="204.8" y="1333.25" type="qcurve" smooth="yes"/>
      <point x="204.8" y="1374.21"/>
      <point x="241.664" y="1404.93" type="qcurve" smooth="yes"/>
      <point x="313.344" y="1464.32"/>
      <point x="442.368" y="1497.09" type="qcurve" smooth="yes"/>
      <point x="555.008" y="1527.81"/>
      <point x="661.504" y="1527.81" type="qcurve" smooth="yes"/>
      <point x="862.208" y="1527.81"/>
      <point x="1021.95" y="1429.5" type="qcurve" smooth="yes"/>
      <point x="1210.37" y="1314.82"/>
      <point x="1210.37" y="1128.45" type="qcurve" smooth="yes"/>
      <point x="1210.37" y="931.84"/>
      <point x="1005.57" y="815.104" type="qcurve"/>
      <point x="1038.34" y="794.624"/>
      <point x="1064.96" y="770.048" type="qcurve"/>
      <point x="1325.06" y="770.048" type="line"/>
      <point x="1257.47" y="876.544"/>
      <point x="1257.47" y="913.408" type="qcurve" smooth="yes"/>
      <point x="1257.47" y="952.32"/>
      <point x="1316.86" y="1005.57"/>
      <point x="1355.78" y="1005.57" type="qcurve" smooth="yes"/>
      <point x="1404.93" y="1005.57"/>
      <point x="1435.65" y="952.32" type="qcurve" smooth="yes"/>
      <point x="1488.9" y="856.064"/>
      <point x="1521.66" y="811.008" type="qcurve"/>
      <point x="1626.11" y="890.88"/>
      <point x="1726.46" y="890.88" type="qcurve" smooth="yes"/>
      <point x="1835.01" y="890.88"/>
      <point x="1904.64" y="839.68" type="qcurve" smooth="yes"/>
      <point x="1980.42" y="782.336"/>
    </contour>
    <contour>
      <point x="1796.1" y="677.888" type="qcurve" smooth="yes"/>
      <point x="1796.1" y="686.08"/>
      <point x="1794.05" y="690.176" type="qcurve"/>
      <point x="1773.57" y="706.56"/>
      <point x="1726.46" y="706.56" type="qcurve" smooth="yes"/>
      <point x="1691.65" y="706.56"/>
      <point x="1650.69" y="677.888" type="qcurve"/>
      <point x="1691.65" y="649.216"/>
      <point x="1726.46" y="649.216" type="qcurve" smooth="yes"/>
      <point x="1773.57" y="649.216"/>
      <point x="1792" y="661.504" type="qcurve"/>
      <point x="1796.1" y="667.648"/>
    </contour>
    <contour>
      <point x="1026.05" y="409.6" type="qcurve" smooth="yes"/>
      <point x="1026.05" y="509.952"/>
      <point x="980.992" y="581.632" type="qcurve"/>
      <point x="858.112" y="565.248"/>
      <point x="749.568" y="499.712" type="qcurve" smooth="yes"/>
      <point x="618.496" y="417.792"/>
      <point x="618.496" y="311.296" type="qcurve" smooth="yes"/>
      <point x="618.496" y="219.136"/>
      <point x="661.504" y="159.744" type="qcurve" smooth="yes"/>
      <point x="710.656" y="92.16"/>
      <point x="800.768" y="92.16" type="qcurve" smooth="yes"/>
      <point x="907.264" y="92.16"/>
      <point x="970.752" y="202.752" type="qcurve" smooth="yes"/>
      <point x="1026.05" y="294.912"/>
    </contour>
  </outline>
</glyph>
<glyph name="uniE00A" format="2">
  <advance width="1855"/>
  <unicode hex="E00A"/>
  <outline>
    <contour>
      <point x="1855.49" y="1179.65" type="qcurve" smooth="yes"/>
      <point x="1855.49" y="1046.53"/>
      <point x="1685.5" y="821.248"/>
      <point x="1556.48" y="776.192" type="qcurve" smooth="yes"/>
      <point x="1536" y="770.048"/>
      <point x="1519.62" y="770.048" type="qcurve" smooth="yes"/>
      <point x="1482.75" y="770.048"/>
      <point x="1431.55" y="827.392"/>
      <point x="1431.55" y="866.304" type="qcurve" smooth="yes"/>
      <point x="1431.55" y="917.504"/>
      <point x="1490.94" y="948.224" type="qcurve" smooth="yes"/>
      <point x="1671.17" y="1040.38"/>
      <point x="1671.17" y="1179.65" type="qcurve" smooth="yes"/>
      <point x="1671.17" y="1282.05"/>
      <point x="1576.96" y="1318.91" type="qcurve" smooth="yes"/>
      <point x="1517.57" y="1343.49"/>
      <point x="1392.64" y="1343.49" type="qcurve" smooth="yes"/>
      <point x="1363.97" y="1343.49"/>
      <point x="1294.34" y="1306.62"/>
      <point x="1294.34" y="1280" type="qcurve" smooth="yes"/>
      <point x="1294.34" y="1228.8"/>
      <point x="1392.64" y="1228.8" type="qcurve" smooth="yes"/>
      <point x="1484.8" y="1228.8"/>
      <point x="1484.8" y="1136.64" type="qcurve" smooth="yes"/>
      <point x="1484.8" y="1044.48"/>
      <point x="1392.64" y="1044.48" type="qcurve" smooth="yes"/>
      <point x="1271.81" y="1044.48"/>
      <point x="1198.08" y="1097.73" type="qcurve"/>
      <point x="1181.7" y="921.6"/>
      <point x="995.328" y="815.104" type="qcurve"/>
      <point x="1198.08" y="684.032"/>
      <point x="1198.08" y="409.6" type="qcurve" smooth="yes"/>
      <point x="1198.08" y="215.04"/>
      <point x="1093.63" y="69.632" type="qcurve" smooth="yes"/>
      <point x="976.896" y="-92.16"/>
      <point x="790.528" y="-92.16" type="qcurve" smooth="yes"/>
      <point x="622.592" y="-92.16"/>
      <point x="520.192" y="28.672" type="qcurve" smooth="yes"/>
      <point x="423.936" y="141.312"/>
      <point x="423.936" y="311.296" type="qcurve" smooth="yes"/>
      <point x="423.936" y="448.512"/>
      <point x="528.384" y="563.2" type="qcurve" smooth="yes"/>
      <point x="618.496" y="659.456"/>
      <point x="759.808" y="716.8" type="qcurve"/>
      <point x="708.608" y="727.04"/>
      <point x="651.264" y="727.04" type="qcurve" smooth="yes"/>
      <point x="555.008" y="727.04"/>
      <point x="555.008" y="819.2" type="qcurve" smooth="yes"/>
      <point x="555.008" y="911.36"/>
      <point x="651.264" y="911.36" type="qcurve" smooth="yes"/>
      <point x="878.592" y="911.36"/>
      <point x="978.944" y="1040.38" type="qcurve" smooth="yes"/>
      <point x="1013.76" y="1085.44"/>
      <point x="1013.76" y="1128.45" type="qcurve" smooth="yes"/>
      <point x="1013.76" y="1169.41"/>
      <point x="978.944" y="1214.46" type="qcurve" smooth="yes"/>
      <point x="878.592" y="1343.49"/>
      <point x="651.264" y="1343.49" type="qcurve" smooth="yes"/>
      <point x="473.088" y="1343.49"/>
      <point x="344.064" y="1257.47" type="qcurve" smooth="yes"/>
      <point x="311.296" y="1236.99"/>
      <point x="286.72" y="1236.99" type="qcurve" smooth="yes"/>
      <point x="249.856" y="1236.99"/>
      <point x="194.56" y="1296.38"/>
      <point x="194.56" y="1333.25" type="qcurve" smooth="yes"/>
      <point x="194.56" y="1372.16"/>
      <point x="231.424" y="1404.93" type="qcurve" smooth="yes"/>
      <point x="301.056" y="1464.32"/>
      <point x="432.128" y="1497.09" type="qcurve"/>
      <point x="544.768" y="1527.81"/>
      <point x="651.264" y="1527.81" type="qcurve" smooth="yes"/>
      <point x="784.384" y="1527.81"/>
      <point x="905.216" y="1482.75" type="qcurve" smooth="yes"/>
      <point x="1040.38" y="1431.55"/>
      <point x="1118.21" y="1339.39" type="qcurve"/>
      <point x="1142.78" y="1423.36"/>
      <point x="1302.53" y="1527.81"/>
      <point x="1392.64" y="1527.81" type="qcurve" smooth="yes"/>
      <point x="1855.49" y="1527.81"/>
    </contour>
    <contour>
      <point x="1013.76" y="409.6" type="qcurve" smooth="yes"/>
      <point x="1013.76" y="509.952"/>
      <point x="968.704" y="581.632" type="qcurve"/>
      <point x="847.872" y="565.248"/>
      <point x="739.328" y="499.712" type="qcurve" smooth="yes"/>
      <point x="608.256" y="417.792"/>
      <point x="608.256" y="311.296" type="qcurve" smooth="yes"/>
      <point x="608.256" y="219.136"/>
      <point x="651.264" y="159.744" type="qcurve" smooth="yes"/>
      <point x="700.416" y="92.16"/>
      <point x="790.528" y="92.16" type="qcurve" smooth="yes"/>
      <point x="897.024" y="92.16"/>
      <point x="960.512" y="202.752" type="qcurve" smooth="yes"/>
      <point x="1013.76" y="294.912"/>
    </contour>
  </outline>
</glyph>
<glyph name="uniE00B" format="2">
  <advance width="1620"/>
  <unicode hex="E00B"/>
  <outline>
    <contour>
      <point x="1619.97" y="356.352" type="line"/>
      <point x="1619.97" y="116.736"/>
      <point x="1435.65" y="-63.488" type="qcurve" smooth="yes"/>
      <point x="1404.93" y="-94.208"/>
      <point x="1370.11" y="-94.208" type="qcurve" smooth="yes"/>
      <point x="1333.25" y="-94.208"/>
      <point x="1275.9" y="-36.864"/>
      <point x="1275.9" y="0" type="qcurve" smooth="yes"/>
      <point x="1275.9" y="30.72"/>
      <point x="1306.62" y="71.68" type="qcurve"/>
      <point x="1335.3" y="102.4"/>
      <point x="1361.92" y="133.12" type="qcurve"/>
      <point x="1249.28" y="139.264"/>
      <point x="1181.7" y="223.232" type="qcurve"/>
      <point x="1136.64" y="86.016"/>
      <point x="1042.43" y="0" type="qcurve" smooth="yes"/>
      <point x="937.984" y="-92.16"/>
      <point x="800.768" y="-92.16" type="qcurve" smooth="yes"/>
      <point x="632.832" y="-92.16"/>
      <point x="530.432" y="28.672" type="qcurve" smooth="yes"/>
      <point x="434.176" y="141.312"/>
      <point x="434.176" y="311.296" type="qcurve" smooth="yes"/>
      <point x="434.176" y="448.512"/>
      <point x="538.624" y="563.2" type="qcurve" smooth="yes"/>
      <point x="628.736" y="659.456"/>
      <point x="770.048" y="716.8" type="qcurve"/>
      <point x="718.848" y="727.04"/>
      <point x="661.504" y="727.04" type="qcurve" smooth="yes"/>
      <point x="567.296" y="727.04"/>
      <point x="567.296" y="819.2" type="qcurve" smooth="yes"/>
      <point x="567.296" y="911.36"/>
      <point x="661.504" y="911.36" type="qcurve" smooth="yes"/>
      <point x="894.976" y="911.36"/>
      <point x="993.28" y="1044.48" type="qcurve"/>
      <point x="1026.05" y="1085.44"/>
      <point x="1026.05" y="1128.45" type="qcurve" smooth="yes"/>
      <point x="1026.05" y="1169.41"/>
      <point x="993.28" y="1210.37" type="qcurve"/>
      <point x="894.976" y="1343.49"/>
      <point x="661.504" y="1343.49" type="qcurve" smooth="yes"/>
      <point x="483.328" y="1343.49"/>
      <point x="354.304" y="1257.47" type="qcurve" smooth="yes"/>
      <point x="323.584" y="1236.99"/>
      <point x="296.96" y="1236.99" type="qcurve" smooth="yes"/>
      <point x="260.096" y="1236.99"/>
      <point x="204.8" y="1296.38"/>
      <point x="204.8" y="1333.25" type="qcurve" smooth="yes"/>
      <point x="204.8" y="1372.16"/>
      <point x="241.664" y="1404.93" type="qcurve" smooth="yes"/>
      <point x="311.296" y="1464.32"/>
      <point x="442.368" y="1497.09" type="qcurve"/>
      <point x="555.008" y="1527.81"/>
      <point x="661.504" y="1527.81" type="qcurve" smooth="yes"/>
      <point x="862.208" y="1527.81"/>
      <point x="1021.95" y="1429.5" type="qcurve" smooth="yes"/>
      <point x="1210.37" y="1314.82"/>
      <point x="1210.37" y="1128.45" type="qcurve" smooth="yes"/>
      <point x="1210.37" y="931.84"/>
      <point x="1005.57" y="815.104" type="qcurve"/>
      <point x="1169.41" y="710.656"/>
      <point x="1202.18" y="512" type="qcurve"/>
      <point x="1273.86" y="581.632"/>
      <point x="1376.26" y="581.632" type="qcurve" smooth="yes"/>
      <point x="1474.56" y="581.632"/>
      <point x="1619.97" y="452.608"/>
      <point x="1619.97" y="356.352" type="qcurve"/>
    </contour>
    <contour>
      <point x="1435.65" y="356.352" type="line"/>
      <point x="1435.65" y="397.312"/>
      <point x="1376.26" y="397.312" type="qcurve" smooth="yes"/>
      <point x="1318.91" y="397.312"/>
      <point x="1318.91" y="356.352" type="qcurve" smooth="yes"/>
      <point x="1318.91" y="317.44"/>
      <point x="1376.26" y="317.44" type="qcurve" smooth="yes"/>
      <point x="1435.65" y="317.44"/>
      <point x="1435.65" y="356.352" type="qcurve"/>
    </contour>
    <contour>
      <point x="1026.05" y="409.6" type="line"/>
      <point x="1026.05" y="509.952"/>
      <point x="980.992" y="581.632" type="qcurve"/>
      <point x="858.112" y="565.248"/>
      <point x="749.568" y="499.712" type="qcurve" smooth="yes"/>
      <point x="618.496" y="417.792"/>
      <point x="618.496" y="311.296" type="qcurve" smooth="yes"/>
      <point x="618.496" y="219.136"/>
      <point x="661.504" y="159.744" type="qcurve" smooth="yes"/>
      <point x="710.656" y="92.16"/>
      <point x="800.768" y="92.16" type="qcurve" smooth="yes"/>
      <point x="907.264" y="92.16"/>
      <point x="970.752" y="202.752" type="qcurve" smooth="yes"/>
      <point x="1026.05" y="294.912"/>
      <point x="1026.05" y="409.6" type="qcurve"/>
    </contour>
  </outline>
</glyph>
<glyph name="uniE00D" format="2">
  <advance width="1231"/>
  <unicode hex="E00D"/>
  <outline>
    <contour>
      <point x="1230.85" y="1189.89" type="qcurve" smooth="yes"/>
      <point x="1230.85" y="1007.62"/>
      <point x="1093.63" y="915.456" type="qcurve"/>
      <point x="1155.07" y="860.16"/>
      <point x="1155.07" y="788.48" type="qcurve" smooth="yes"/>
      <point x="1155.07" y="706.56"/>
      <point x="1079.3" y="647.168" type="qcurve"/>
      <point x="1206.27" y="538.624"/>
      <point x="1206.27" y="327.68" type="qcurve" smooth="yes"/>
      <point x="1206.27" y="165.888"/>
      <point x="1132.54" y="47.104" type="qcurve" smooth="yes"/>
      <point x="1044.48" y="-92.16"/>
      <point x="892.928" y="-92.16" type="qcurve" smooth="yes"/>
      <point x="763.904" y="-92.16"/>
      <point x="690.176" y="18.432" type="qcurve" smooth="yes"/>
      <point x="626.688" y="112.64"/>
      <point x="626.688" y="249.856" type="qcurve" smooth="yes"/>
      <point x="626.688" y="448.512"/>
      <point x="806.912" y="563.2" type="qcurve"/>
      <point x="786.432" y="563.2"/>
      <point x="765.952" y="563.2" type="qcurve" smooth="yes"/>
      <point x="577.536" y="563.2" type="line"/>
      <point x="546.816" y="473.088"/>
      <point x="391.168" y="360.448"/>
      <point x="296.96" y="360.448" type="qcurve" smooth="yes"/>
      <point x="204.8" y="360.448"/>
      <point x="204.8" y="452.608" type="qcurve" smooth="yes"/>
      <point x="204.8" y="544.768"/>
      <point x="296.96" y="544.768" type="qcurve" smooth="yes"/>
      <point x="342.016" y="544.768"/>
      <point x="407.552" y="610.304"/>
      <point x="407.552" y="655.36" type="qcurve" smooth="yes"/>
      <point x="407.552" y="700.416"/>
      <point x="342.016" y="765.952"/>
      <point x="296.96" y="765.952" type="qcurve" smooth="yes"/>
      <point x="204.8" y="765.952"/>
      <point x="204.8" y="858.112" type="qcurve" smooth="yes"/>
      <point x="204.8" y="950.272"/>
      <point x="296.96" y="950.272" type="qcurve" smooth="yes"/>
      <point x="391.168" y="950.272"/>
      <point x="546.816" y="837.632"/>
      <point x="577.536" y="747.52" type="qcurve"/>
      <point x="765.952" y="747.52" type="line" smooth="yes"/>
      <point x="890.88" y="747.52"/>
      <point x="958.464" y="788.48" type="qcurve"/>
      <point x="888.832" y="829.44"/>
      <point x="765.952" y="829.44" type="qcurve" smooth="yes"/>
      <point x="724.992" y="829.44"/>
      <point x="669.696" y="880.64"/>
      <point x="669.696" y="921.6" type="qcurve" smooth="yes"/>
      <point x="669.696" y="962.56"/>
      <point x="724.992" y="1013.76"/>
      <point x="765.952" y="1013.76" type="qcurve" smooth="yes"/>
      <point x="862.208" y="1013.76"/>
      <point x="944.128" y="1052.67" type="qcurve" smooth="yes"/>
      <point x="1046.53" y="1101.82"/>
      <point x="1046.53" y="1189.89" type="qcurve" smooth="yes"/>
      <point x="1046.53" y="1210.37"/>
      <point x="1017.86" y="1239.04" type="qcurve" smooth="yes"/>
      <point x="919.552" y="1343.49"/>
      <point x="684.032" y="1343.49" type="qcurve" smooth="yes"/>
      <point x="505.856" y="1343.49"/>
      <point x="368.64" y="1273.86" type="qcurve" smooth="yes"/>
      <point x="337.92" y="1257.47"/>
      <point x="317.44" y="1257.47" type="qcurve" smooth="yes"/>
      <point x="280.576" y="1257.47"/>
      <point x="225.28" y="1316.86"/>
      <point x="225.28" y="1355.78" type="qcurve" smooth="yes"/>
      <point x="225.28" y="1441.79"/>
      <point x="417.792" y="1490.94" type="qcurve" smooth="yes"/>
      <point x="557.056" y="1527.81"/>
      <point x="684.032" y="1527.81" type="qcurve" smooth="yes"/>
      <point x="874.496" y="1527.81"/>
      <point x="1032.19" y="1452.03" type="qcurve" smooth="yes"/>
      <point x="1230.85" y="1357.82"/>
    </contour>
    <contour>
      <point x="1021.95" y="327.68" type="qcurve" smooth="yes"/>
      <point x="1021.95" y="395.264"/>
      <point x="1001.47" y="444.416" type="qcurve"/>
      <point x="925.696" y="425.984"/>
      <point x="872.448" y="376.832" type="qcurve" smooth="yes"/>
      <point x="811.008" y="321.536"/>
      <point x="811.008" y="249.856" type="qcurve" smooth="yes"/>
      <point x="811.008" y="92.16"/>
      <point x="892.928" y="92.16" type="qcurve" smooth="yes"/>
      <point x="958.464" y="92.16"/>
      <point x="995.328" y="182.272" type="qcurve" smooth="yes"/>
      <point x="1021.95" y="247.808"/>
    </contour>
  </outline>
</glyph>
<glyph name="uniE00E" format="2">
  <advance width="1694"/>
  <unicode hex="E00E"/>
  <outline>
    <contour>
      <point x="1693.7" y="788.48" type="qcurve" smooth="yes"/>
      <point x="1693.7" y="690.176"/>
      <point x="1576.96" y="528.384"/>
      <point x="1486.85" y="493.568" type="qcurve" smooth="yes"/>
      <point x="1466.37" y="485.376"/>
      <point x="1447.94" y="485.376" type="qcurve" smooth="yes"/>
      <point x="1411.07" y="485.376"/>
      <point x="1359.87" y="544.768"/>
      <point x="1359.87" y="581.632" type="qcurve" smooth="yes"/>
      <point x="1359.87" y="628.736"/>
      <point x="1431.55" y="673.792"/>
      <point x="1466.37" y="696.32" type="qcurve"/>
      <point x="1101.82" y="696.32" type="line"/>
      <point x="1083.39" y="667.648"/>
      <point x="1056.77" y="647.168" type="qcurve"/>
      <point x="1185.79" y="538.624"/>
      <point x="1185.79" y="327.68" type="qcurve" smooth="yes"/>
      <point x="1185.79" y="165.888"/>
      <point x="1110.02" y="47.104" type="qcurve" smooth="yes"/>
      <point x="1024" y="-92.16"/>
      <point x="872.448" y="-92.16" type="qcurve" smooth="yes"/>
      <point x="741.376" y="-92.16"/>
      <point x="669.696" y="18.432" type="qcurve" smooth="yes"/>
      <point x="606.208" y="112.64"/>
      <point x="606.208" y="249.856" type="qcurve" smooth="yes"/>
      <point x="606.208" y="448.512"/>
      <point x="784.384" y="563.2" type="qcurve"/>
      <point x="763.904" y="563.2"/>
      <point x="743.424" y="563.2" type="qcurve" smooth="yes"/>
      <point x="702.464" y="563.2"/>
      <point x="647.168" y="614.4"/>
      <point x="647.168" y="655.36" type="qcurve" smooth="yes"/>
      <point x="647.168" y="696.32"/>
      <point x="702.464" y="747.52"/>
      <point x="743.424" y="747.52" type="qcurve" smooth="yes"/>
      <point x="868.352" y="747.52"/>
      <point x="935.936" y="788.48" type="qcurve"/>
      <point x="868.352" y="829.44"/>
      <point x="743.424" y="829.44" type="qcurve" smooth="yes"/>
      <point x="702.464" y="829.44"/>
      <point x="647.168" y="880.64"/>
      <point x="647.168" y="921.6" type="qcurve" smooth="yes"/>
      <point x="647.168" y="962.56"/>
      <point x="702.464" y="1013.76"/>
      <point x="743.424" y="1013.76" type="qcurve" smooth="yes"/>
      <point x="841.728" y="1013.76"/>
      <point x="923.648" y="1052.67" type="qcurve" smooth="yes"/>
      <point x="1024" y="1101.82"/>
      <point x="1024" y="1189.89" type="qcurve" smooth="yes"/>
      <point x="1024" y="1210.37"/>
      <point x="997.376" y="1239.04" type="qcurve" smooth="yes"/>
      <point x="899.072" y="1343.49"/>
      <point x="661.504" y="1343.49" type="qcurve" smooth="yes"/>
      <point x="485.376" y="1343.49"/>
      <point x="346.112" y="1273.86" type="qcurve" smooth="yes"/>
      <point x="315.392" y="1257.47"/>
      <point x="296.96" y="1257.47" type="qcurve" smooth="yes"/>
      <point x="258.048" y="1257.47"/>
      <point x="204.8" y="1316.86"/>
      <point x="204.8" y="1355.78" type="qcurve" smooth="yes"/>
      <point x="204.8" y="1441.79"/>
      <point x="397.312" y="1490.94" type="qcurve" smooth="yes"/>
      <point x="534.528" y="1527.81"/>
      <point x="661.504" y="1527.81" type="qcurve" smooth="yes"/>
      <point x="854.016" y="1527.81"/>
      <point x="1009.66" y="1452.03" type="qcurve" smooth="yes"/>
      <point x="1208.32" y="1357.82"/>
      <point x="1208.32" y="1189.89" type="qcurve" smooth="yes"/>
      <point x="1208.32" y="1007.62"/>
      <point x="1073.15" y="915.456" type="qcurve"/>
      <point x="1089.54" y="899.072"/>
      <point x="1103.87" y="880.64" type="qcurve"/>
      <point x="1466.37" y="880.64" type="line"/>
      <point x="1431.55" y="901.12"/>
      <point x="1359.87" y="948.224"/>
      <point x="1359.87" y="993.28" type="qcurve" smooth="yes"/>
      <point x="1359.87" y="1032.19"/>
      <point x="1411.07" y="1089.54"/>
      <point x="1447.94" y="1089.54" type="qcurve" smooth="yes"/>
      <point x="1466.37" y="1089.54"/>
      <point x="1486.85" y="1081.34" type="qcurve" smooth="yes"/>
      <point x="1576.96" y="1046.53"/>
      <point x="1693.7" y="884.736"/>
    </contour>
    <contour>
      <point x="1001.47" y="327.68" type="qcurve" smooth="yes"/>
      <point x="1001.47" y="395.264"/>
      <point x="980.992" y="444.416" type="qcurve"/>
      <point x="905.216" y="425.984"/>
      <point x="849.92" y="376.832" type="qcurve" smooth="yes"/>
      <point x="790.528" y="321.536"/>
      <point x="790.528" y="249.856" type="qcurve" smooth="yes"/>
      <point x="790.528" y="92.16"/>
      <point x="872.448" y="92.16" type="qcurve" smooth="yes"/>
      <point x="937.984" y="92.16"/>
      <point x="972.8" y="182.272" type="qcurve"/>
      <point x="1001.47" y="247.808"/>
    </contour>
  </outline>
</glyph>
<glyph name="uniE00F" format="2">
  <advance width="1327"/>
  <unicode hex="E00F"/>
  <outline>
    <contour>
      <point x="1327.1" y="1189.89" type="qcurve" smooth="yes"/>
      <point x="1327.1" y="1007.62"/>
      <point x="1189.89" y="915.456" type="qcurve"/>
      <point x="1251.33" y="860.16"/>
      <point x="1251.33" y="788.48" type="qcurve" smooth="yes"/>
      <point x="1251.33" y="706.56"/>
      <point x="1175.55" y="647.168" type="qcurve"/>
      <point x="1304.58" y="538.624"/>
      <point x="1304.58" y="327.68" type="qcurve" smooth="yes"/>
      <point x="1304.58" y="165.888"/>
      <point x="1228.8" y="47.104" type="qcurve" smooth="yes"/>
      <point x="1142.78" y="-92.16"/>
      <point x="989.184" y="-92.16" type="qcurve" smooth="yes"/>
      <point x="884.736" y="-92.16"/>
      <point x="815.104" y="-16.384" type="qcurve" smooth="yes"/>
      <point x="753.664" y="49.152"/>
      <point x="733.184" y="157.696" type="qcurve"/>
      <point x="430.08" y="157.696" type="line"/>
      <point x="464.896" y="135.168"/>
      <point x="538.624" y="90.112"/>
      <point x="538.624" y="43.008" type="qcurve" smooth="yes"/>
      <point x="538.624" y="6.144"/>
      <point x="487.424" y="-53.248"/>
      <point x="448.512" y="-53.248" type="qcurve" smooth="yes"/>
      <point x="432.128" y="-53.248"/>
      <point x="411.648" y="-45.056" type="qcurve" smooth="yes"/>
      <point x="319.488" y="-8.192"/>
      <point x="204.8" y="151.552"/>
      <point x="204.8" y="249.856" type="qcurve" smooth="yes"/>
      <point x="204.8" y="346.112"/>
      <point x="319.488" y="507.904"/>
      <point x="411.648" y="542.72" type="qcurve" smooth="yes"/>
      <point x="432.128" y="550.912"/>
      <point x="448.512" y="550.912" type="qcurve" smooth="yes"/>
      <point x="487.424" y="550.912"/>
      <point x="538.624" y="493.568"/>
      <point x="538.624" y="454.656" type="qcurve" smooth="yes"/>
      <point x="538.624" y="409.6"/>
      <point x="464.896" y="362.496"/>
      <point x="430.08" y="342.016" type="qcurve"/>
      <point x="735.232" y="342.016" type="line"/>
      <point x="772.096" y="479.232"/>
      <point x="903.168" y="563.2" type="qcurve"/>
      <point x="882.688" y="563.2"/>
      <point x="862.208" y="563.2" type="qcurve" smooth="yes"/>
      <point x="821.248" y="563.2"/>
      <point x="765.952" y="614.4"/>
      <point x="765.952" y="655.36" type="qcurve" smooth="yes"/>
      <point x="765.952" y="696.32"/>
      <point x="821.248" y="747.52"/>
      <point x="862.208" y="747.52" type="qcurve" smooth="yes"/>
      <point x="987.136" y="747.52"/>
      <point x="1054.72" y="788.48" type="qcurve"/>
      <point x="987.136" y="829.44"/>
      <point x="862.208" y="829.44" type="qcurve" smooth="yes"/>
      <point x="821.248" y="829.44"/>
      <point x="765.952" y="880.64"/>
      <point x="765.952" y="921.6" type="qcurve" smooth="yes"/>
      <point x="765.952" y="962.56"/>
      <point x="821.248" y="1013.76"/>
      <point x="862.208" y="1013.76" type="qcurve" smooth="yes"/>
      <point x="960.512" y="1013.76"/>
      <point x="1040.38" y="1052.67" type="qcurve" smooth="yes"/>
      <point x="1142.78" y="1101.82"/>
      <point x="1142.78" y="1189.89" type="qcurve" smooth="yes"/>
      <point x="1142.78" y="1210.37"/>
      <point x="1116.16" y="1239.04" type="qcurve" smooth="yes"/>
      <point x="1017.86" y="1343.49"/>
      <point x="780.288" y="1343.49" type="qcurve" smooth="yes"/>
      <point x="604.16" y="1343.49"/>
      <point x="464.896" y="1273.86" type="qcurve" smooth="yes"/>
      <point x="434.176" y="1257.47"/>
      <point x="415.744" y="1257.47" type="qcurve" smooth="yes"/>
      <point x="376.832" y="1257.47"/>
      <point x="323.584" y="1316.86"/>
      <point x="323.584" y="1355.78" type="qcurve" smooth="yes"/>
      <point x="323.584" y="1441.79"/>
      <point x="514.048" y="1490.94" type="qcurve" smooth="yes"/>
      <point x="653.312" y="1527.81"/>
      <point x="780.288" y="1527.81" type="qcurve" smooth="yes"/>
      <point x="970.752" y="1527.81"/>
      <point x="1128.45" y="1452.03" type="qcurve" smooth="yes"/>
      <point x="1327.1" y="1357.82"/>
    </contour>
    <contour>
      <point x="1120.26" y="327.68" type="qcurve" smooth="yes"/>
      <point x="1120.26" y="395.264"/>
      <point x="1099.78" y="444.416" type="qcurve"/>
      <point x="1024" y="425.984"/>
      <point x="968.704" y="376.832" type="qcurve" smooth="yes"/>
      <point x="907.264" y="321.536"/>
      <point x="907.264" y="249.856" type="qcurve" smooth="yes"/>
      <point x="907.264" y="92.16"/>
      <point x="989.184" y="92.16" type="qcurve" smooth="yes"/>
      <point x="1056.77" y="92.16"/>
      <point x="1091.58" y="182.272" type="qcurve"/>
      <point x="1120.26" y="247.808"/>
    </contour>
  </outline>
</glyph>
<glyph name="uniE010" format="2">
  <advance width="1802"/>
  <unicode hex="E010"/>
  <outline>
    <contour>
      <point x="1802.24" y="65.536" type="line"/>
      <point x="1802.24" y="32.768"/>
      <point x="1777.66" y="4.096" type="qcurve" smooth="yes"/>
      <point x="1695.74" y="-94.208"/>
      <point x="1558.53" y="-94.208" type="qcurve" smooth="yes"/>
      <point x="1464.32" y="-94.208"/>
      <point x="1312.77" y="14.336"/>
      <point x="1280" y="102.4" type="qcurve"/>
      <point x="1148.93" y="126.976" type="line"/>
      <point x="1069.06" y="-92.16"/>
      <point x="872.448" y="-92.16" type="qcurve" smooth="yes"/>
      <point x="741.376" y="-92.16"/>
      <point x="669.696" y="18.432" type="qcurve" smooth="yes"/>
      <point x="606.208" y="112.64"/>
      <point x="606.208" y="249.856" type="qcurve" smooth="yes"/>
      <point x="606.208" y="448.512"/>
      <point x="784.384" y="563.2" type="qcurve"/>
      <point x="763.904" y="563.2"/>
      <point x="743.424" y="563.2" type="qcurve" smooth="yes"/>
      <point x="702.464" y="563.2"/>
      <point x="647.168" y="614.4"/>
      <point x="647.168" y="655.36" type="qcurve" smooth="yes"/>
      <point x="647.168" y="696.32"/>
      <point x="702.464" y="747.52"/>
      <point x="743.424" y="747.52" type="qcurve" smooth="yes"/>
      <point x="868.352" y="747.52"/>
      <point x="935.936" y="788.48" type="qcurve"/>
      <point x="868.352" y="829.44"/>
      <point x="743.424" y="829.44" type="qcurve" smooth="yes"/>
      <point x="702.464" y="829.44"/>
      <point x="647.168" y="880.64"/>
      <point x="647.168" y="921.6" type="qcurve" smooth="yes"/>
      <point x="647.168" y="962.56"/>
      <point x="702.464" y="1013.76"/>
      <point x="743.424" y="1013.76" type="qcurve" smooth="yes"/>
      <point x="841.728" y="1013.76"/>
      <point x="923.648" y="1052.67" type="qcurve" smooth="yes"/>
      <point x="1024" y="1101.82"/>
      <point x="1024" y="1189.89" type="qcurve" smooth="yes"/>
      <point x="1024" y="1210.37"/>
      <point x="997.376" y="1239.04" type="qcurve" smooth="yes"/>
      <point x="897.024" y="1343.49"/>
      <point x="661.504" y="1343.49" type="qcurve" smooth="yes"/>
      <point x="485.376" y="1343.49"/>
      <point x="346.112" y="1273.86" type="qcurve"/>
      <point x="315.392" y="1257.47"/>
      <point x="296.96" y="1257.47" type="qcurve" smooth="yes"/>
      <point x="258.048" y="1257.47"/>
      <point x="204.8" y="1316.86"/>
      <point x="204.8" y="1355.78" type="qcurve" smooth="yes"/>
      <point x="204.8" y="1441.79"/>
      <point x="397.312" y="1490.94" type="qcurve" smooth="yes"/>
      <point x="534.528" y="1527.81"/>
      <point x="661.504" y="1527.81" type="qcurve" smooth="yes"/>
      <point x="854.016" y="1527.81"/>
      <point x="1009.66" y="1452.03" type="qcurve" smooth="yes"/>
      <point x="1208.32" y="1357.82"/>
      <point x="1208.32" y="1189.89" type="qcurve" smooth="yes"/>
      <point x="1208.32" y="1007.62"/>
      <point x="1073.15" y="915.456" type="qcurve"/>
      <point x="1132.54" y="860.16"/>
      <point x="1132.54" y="788.48" type="qcurve" smooth="yes"/>
      <point x="1132.54" y="706.56"/>
      <point x="1056.77" y="647.168" type="qcurve"/>
      <point x="1191.94" y="532.48"/>
      <point x="1185.79" y="309.248" type="qcurve"/>
      <point x="1277.95" y="290.816" type="line"/>
      <point x="1306.62" y="380.928"/>
      <point x="1462.27" y="495.616"/>
      <point x="1558.53" y="495.616" type="qcurve" smooth="yes"/>
      <point x="1650.69" y="495.616"/>
      <point x="1650.69" y="403.456" type="qcurve" smooth="yes"/>
      <point x="1650.69" y="311.296"/>
      <point x="1558.53" y="311.296" type="qcurve" smooth="yes"/>
      <point x="1513.47" y="311.296"/>
      <point x="1447.94" y="245.76"/>
      <point x="1447.94" y="200.704" type="qcurve" smooth="yes"/>
      <point x="1447.94" y="155.648"/>
      <point x="1513.47" y="90.112"/>
      <point x="1558.53" y="90.112" type="qcurve" smooth="yes"/>
      <point x="1599.49" y="90.112"/>
      <point x="1675.26" y="159.744"/>
      <point x="1708.03" y="159.744" type="qcurve" smooth="yes"/>
      <point x="1744.9" y="159.744"/>
      <point x="1802.24" y="102.4"/>
      <point x="1802.24" y="65.536" type="qcurve"/>
    </contour>
    <contour>
      <point x="1001.47" y="327.68" type="line"/>
      <point x="1001.47" y="395.264"/>
      <point x="980.992" y="444.416" type="qcurve"/>
      <point x="905.216" y="425.984"/>
      <point x="849.92" y="376.832" type="qcurve" smooth="yes"/>
      <point x="790.528" y="321.536"/>
      <point x="790.528" y="249.856" type="qcurve" smooth="yes"/>
      <point x="790.528" y="92.16"/>
      <point x="872.448" y="92.16" type="qcurve" smooth="yes"/>
      <point x="937.984" y="92.16"/>
      <point x="972.8" y="182.272" type="qcurve"/>
      <point x="1001.47" y="247.808"/>
      <point x="1001.47" y="327.68" type="qcurve"/>
    </contour>
  </outline>
</glyph>
<glyph name="uniE011" format="2">
  <advance width="1708"/>
  <unicode hex="E011"/>
  <outline>
    <contour>
      <point x="1708.03" y="1095.68" type="qcurve" smooth="yes"/>
      <point x="1708.03" y="1064.96"/>
      <point x="1683.46" y="1034.24" type="qcurve" smooth="yes"/>
      <point x="1601.54" y="937.984"/>
      <point x="1464.32" y="937.984" type="qcurve" smooth="yes"/>
      <point x="1380.35" y="937.984"/>
      <point x="1236.99" y="1028.1"/>
      <point x="1200.13" y="1105.92" type="qcurve"/>
      <point x="1169.41" y="980.992"/>
      <point x="1073.15" y="915.456" type="qcurve"/>
      <point x="1132.54" y="860.16"/>
      <point x="1132.54" y="788.48" type="qcurve" smooth="yes"/>
      <point x="1132.54" y="706.56"/>
      <point x="1056.77" y="647.168" type="qcurve"/>
      <point x="1185.79" y="538.624"/>
      <point x="1185.79" y="327.68" type="qcurve" smooth="yes"/>
      <point x="1185.79" y="165.888"/>
      <point x="1110.02" y="47.104" type="qcurve" smooth="yes"/>
      <point x="1024" y="-92.16"/>
      <point x="872.448" y="-92.16" type="qcurve" smooth="yes"/>
      <point x="741.376" y="-92.16"/>
      <point x="669.696" y="18.432" type="qcurve" smooth="yes"/>
      <point x="606.208" y="112.64"/>
      <point x="606.208" y="249.856" type="qcurve" smooth="yes"/>
      <point x="606.208" y="448.512"/>
      <point x="784.384" y="563.2" type="qcurve"/>
      <point x="763.904" y="563.2"/>
      <point x="743.424" y="563.2" type="qcurve" smooth="yes"/>
      <point x="702.464" y="563.2"/>
      <point x="647.168" y="614.4"/>
      <point x="647.168" y="655.36" type="qcurve" smooth="yes"/>
      <point x="647.168" y="696.32"/>
      <point x="702.464" y="747.52"/>
      <point x="743.424" y="747.52" type="qcurve" smooth="yes"/>
      <point x="868.352" y="747.52"/>
      <point x="935.936" y="788.48" type="qcurve"/>
      <point x="868.352" y="829.44"/>
      <point x="743.424" y="829.44" type="qcurve" smooth="yes"/>
      <point x="702.464" y="829.44"/>
      <point x="647.168" y="880.64"/>
      <point x="647.168" y="921.6" type="qcurve" smooth="yes"/>
      <point x="647.168" y="962.56"/>
      <point x="702.464" y="1013.76"/>
      <point x="743.424" y="1013.76" type="qcurve" smooth="yes"/>
      <point x="841.728" y="1013.76"/>
      <point x="923.648" y="1052.67" type="qcurve" smooth="yes"/>
      <point x="1024" y="1101.82"/>
      <point x="1024" y="1189.89" type="qcurve" smooth="yes"/>
      <point x="1024" y="1210.37"/>
      <point x="997.376" y="1239.04" type="qcurve" smooth="yes"/>
      <point x="897.024" y="1343.49"/>
      <point x="661.504" y="1343.49" type="qcurve" smooth="yes"/>
      <point x="485.376" y="1343.49"/>
      <point x="346.112" y="1273.86" type="qcurve" smooth="yes"/>
      <point x="315.392" y="1257.47"/>
      <point x="296.96" y="1257.47" type="qcurve" smooth="yes"/>
      <point x="258.048" y="1257.47"/>
      <point x="204.8" y="1316.86"/>
      <point x="204.8" y="1355.78" type="qcurve" smooth="yes"/>
      <point x="204.8" y="1441.79"/>
      <point x="397.312" y="1490.94" type="qcurve" smooth="yes"/>
      <point x="534.528" y="1527.81"/>
      <point x="661.504" y="1527.81" type="qcurve" smooth="yes"/>
      <point x="813.056" y="1527.81"/>
      <point x="952.32" y="1476.61" type="qcurve" smooth="yes"/>
      <point x="1120.26" y="1417.22"/>
      <point x="1179.65" y="1306.62" type="qcurve"/>
      <point x="1204.22" y="1404.93"/>
      <point x="1363.97" y="1527.81"/>
      <point x="1464.32" y="1527.81" type="qcurve" smooth="yes"/>
      <point x="1556.48" y="1527.81"/>
      <point x="1556.48" y="1435.65" type="qcurve" smooth="yes"/>
      <point x="1556.48" y="1343.49"/>
      <point x="1464.32" y="1343.49" type="qcurve" smooth="yes"/>
      <point x="1419.26" y="1343.49"/>
      <point x="1353.73" y="1277.95"/>
      <point x="1353.73" y="1232.9" type="qcurve" smooth="yes"/>
      <point x="1353.73" y="1187.84"/>
      <point x="1419.26" y="1122.3"/>
      <point x="1464.32" y="1122.3" type="qcurve" smooth="yes"/>
      <point x="1505.28" y="1122.3"/>
      <point x="1583.1" y="1189.89"/>
      <point x="1613.82" y="1189.89" type="qcurve" smooth="yes"/>
      <point x="1650.69" y="1189.89"/>
      <point x="1708.03" y="1134.59"/>
    </contour>
    <contour>
      <point x="1001.47" y="327.68" type="qcurve" smooth="yes"/>
      <point x="1001.47" y="395.264"/>
      <point x="980.992" y="444.416" type="qcurve"/>
      <point x="905.216" y="425.984"/>
      <point x="849.92" y="376.832" type="qcurve" smooth="yes"/>
      <point x="790.528" y="321.536"/>
      <point x="790.528" y="249.856" type="qcurve" smooth="yes"/>
      <point x="790.528" y="92.16"/>
      <point x="872.448" y="92.16" type="qcurve" smooth="yes"/>
      <point x="937.984" y="92.16"/>
      <point x="972.8" y="182.272" type="qcurve"/>
      <point x="1001.47" y="247.808"/>
    </contour>
  </outline>
</glyph>
<glyph name="uniE013" format="2">
  <advance width="1987"/>
  <unicode hex="E013"/>
  <outline>
    <contour>
      <point x="1986.56" y="788.48" type="qcurve" smooth="yes"/>
      <point x="1986.56" y="681.984"/>
      <point x="1910.78" y="626.688" type="qcurve" smooth="yes"/>
      <point x="1843.2" y="575.488"/>
      <point x="1732.61" y="575.488" type="qcurve" smooth="yes"/>
      <point x="1632.26" y="575.488"/>
      <point x="1527.81" y="655.36" type="qcurve"/>
      <point x="1484.8" y="595.968"/>
      <point x="1439.74" y="514.048" type="qcurve"/>
      <point x="1413.12" y="460.8"/>
      <point x="1359.87" y="460.8" type="qcurve" smooth="yes"/>
      <point x="1323.01" y="460.8"/>
      <point x="1263.62" y="514.048"/>
      <point x="1263.62" y="550.912" type="qcurve" smooth="yes"/>
      <point x="1263.62" y="587.776"/>
      <point x="1331.2" y="696.32" type="qcurve"/>
      <point x="1103.87" y="696.32" type="line"/>
      <point x="1083.39" y="669.696"/>
      <point x="1056.77" y="647.168" type="qcurve"/>
      <point x="1185.79" y="538.624"/>
      <point x="1185.79" y="327.68" type="qcurve" smooth="yes"/>
      <point x="1185.79" y="165.888"/>
      <point x="1110.02" y="47.104" type="qcurve" smooth="yes"/>
      <point x="1024" y="-92.16"/>
      <point x="872.448" y="-92.16" type="qcurve" smooth="yes"/>
      <point x="741.376" y="-92.16"/>
      <point x="669.696" y="18.432" type="qcurve" smooth="yes"/>
      <point x="606.208" y="112.64"/>
      <point x="606.208" y="249.856" type="qcurve" smooth="yes"/>
      <point x="606.208" y="448.512"/>
      <point x="784.384" y="563.2" type="qcurve"/>
      <point x="763.904" y="563.2"/>
      <point x="743.424" y="563.2" type="qcurve" smooth="yes"/>
      <point x="702.464" y="563.2"/>
      <point x="647.168" y="614.4"/>
      <point x="647.168" y="655.36" type="qcurve" smooth="yes"/>
      <point x="647.168" y="696.32"/>
      <point x="702.464" y="747.52"/>
      <point x="743.424" y="747.52" type="qcurve" smooth="yes"/>
      <point x="868.352" y="747.52"/>
      <point x="935.936" y="788.48" type="qcurve"/>
      <point x="868.352" y="829.44"/>
      <point x="743.424" y="829.44" type="qcurve" smooth="yes"/>
      <point x="702.464" y="829.44"/>
      <point x="647.168" y="880.64"/>
      <point x="647.168" y="921.6" type="qcurve" smooth="yes"/>
      <point x="647.168" y="962.56"/>
      <point x="702.464" y="1013.76"/>
      <point x="743.424" y="1013.76" type="qcurve" smooth="yes"/>
      <point x="841.728" y="1013.76"/>
      <point x="923.648" y="1052.67" type="qcurve" smooth="yes"/>
      <point x="1024" y="1101.82"/>
      <point x="1024" y="1189.89" type="qcurve" smooth="yes"/>
      <point x="1024" y="1210.37"/>
      <point x="997.376" y="1239.04" type="qcurve" smooth="yes"/>
      <point x="899.072" y="1343.49"/>
      <point x="661.504" y="1343.49" type="qcurve" smooth="yes"/>
      <point x="485.376" y="1343.49"/>
      <point x="346.112" y="1273.86" type="qcurve" smooth="yes"/>
      <point x="315.392" y="1257.47"/>
      <point x="296.96" y="1257.47" type="qcurve" smooth="yes"/>
      <point x="258.048" y="1257.47"/>
      <point x="204.8" y="1316.86"/>
      <point x="204.8" y="1355.78" type="qcurve" smooth="yes"/>
      <point x="204.8" y="1441.79"/>
      <point x="397.312" y="1490.94" type="qcurve" smooth="yes"/>
      <point x="534.528" y="1527.81"/>
      <point x="661.504" y="1527.81" type="qcurve" smooth="yes"/>
      <point x="854.016" y="1527.81"/>
      <point x="1009.66" y="1452.03" type="qcurve" smooth="yes"/>
      <point x="1208.32" y="1357.82"/>
      <point x="1208.32" y="1189.89" type="qcurve" smooth="yes"/>
      <point x="1208.32" y="1007.62"/>
      <point x="1073.15" y="915.456" type="qcurve"/>
      <point x="1089.54" y="899.072"/>
      <point x="1101.82" y="880.64" type="qcurve"/>
      <point x="1331.2" y="880.64" type="line"/>
      <point x="1263.62" y="987.136"/>
      <point x="1263.62" y="1026.05" type="qcurve" smooth="yes"/>
      <point x="1263.62" y="1062.91"/>
      <point x="1323.01" y="1116.16"/>
      <point x="1359.87" y="1116.16" type="qcurve" smooth="yes"/>
      <point x="1413.12" y="1116.16"/>
      <point x="1439.74" y="1062.91" type="qcurve" smooth="yes"/>
      <point x="1484.8" y="978.944"/>
      <point x="1527.81" y="921.6" type="qcurve"/>
      <point x="1632.26" y="1001.47"/>
      <point x="1732.61" y="1001.47" type="qcurve" smooth="yes"/>
      <point x="1843.2" y="1001.47"/>
      <point x="1910.78" y="950.272" type="qcurve" smooth="yes"/>
      <point x="1986.56" y="892.928"/>
    </contour>
    <contour>
      <point x="1802.24" y="788.48" type="qcurve" smooth="yes"/>
      <point x="1802.24" y="796.672"/>
      <point x="1798.14" y="804.864" type="qcurve"/>
      <point x="1779.71" y="817.152"/>
      <point x="1732.61" y="817.152" type="qcurve" smooth="yes"/>
      <point x="1697.79" y="817.152"/>
      <point x="1656.83" y="788.48" type="qcurve"/>
      <point x="1697.79" y="759.808"/>
      <point x="1732.61" y="759.808" type="qcurve" smooth="yes"/>
      <point x="1777.66" y="759.808"/>
      <point x="1800.19" y="774.144" type="qcurve"/>
      <point x="1802.24" y="778.24"/>
    </contour>
    <contour>
      <point x="1001.47" y="327.68" type="qcurve" smooth="yes"/>
      <point x="1001.47" y="395.264"/>
      <point x="980.992" y="444.416" type="qcurve"/>
      <point x="905.216" y="425.984"/>
      <point x="849.92" y="376.832" type="qcurve" smooth="yes"/>
      <point x="790.528" y="321.536"/>
      <point x="790.528" y="249.856" type="qcurve" smooth="yes"/>
      <point x="790.528" y="92.16"/>
      <point x="872.448" y="92.16" type="qcurve" smooth="yes"/>
      <point x="937.984" y="92.16"/>
      <point x="972.8" y="182.272" type="qcurve"/>
      <point x="1001.47" y="247.808"/>
    </contour>
  </outline>
</glyph>
<glyph name="uniE014" format="2">
  <advance width="1372"/>
  <unicode hex="E014"/>
  <outline>
    <contour>
      <point x="1372.16" y="1189.89" type="qcurve" smooth="yes"/>
      <point x="1372.16" y="1007.62"/>
      <point x="1234.94" y="915.456" type="qcurve"/>
      <point x="1296.38" y="860.16"/>
      <point x="1296.38" y="788.48" type="qcurve" smooth="yes"/>
      <point x="1296.38" y="706.56"/>
      <point x="1220.61" y="647.168" type="qcurve"/>
      <point x="1347.58" y="538.624"/>
      <point x="1347.58" y="327.68" type="qcurve" smooth="yes"/>
      <point x="1347.58" y="165.888"/>
      <point x="1273.86" y="47.104" type="qcurve" smooth="yes"/>
      <point x="1185.79" y="-92.16"/>
      <point x="1034.24" y="-92.16" type="qcurve" smooth="yes"/>
      <point x="835.584" y="-92.16"/>
      <point x="780.288" y="139.264" type="qcurve"/>
      <point x="737.28" y="139.264" type="line"/>
      <point x="714.752" y="36.864"/>
      <point x="552.96" y="-92.16"/>
      <point x="448.512" y="-92.16" type="qcurve" smooth="yes"/>
      <point x="311.296" y="-92.16"/>
      <point x="229.376" y="4.096" type="qcurve" smooth="yes"/>
      <point x="204.8" y="34.816"/>
      <point x="204.8" y="65.536" type="qcurve" smooth="yes"/>
      <point x="204.8" y="104.448"/>
      <point x="262.144" y="159.744"/>
      <point x="299.008" y="159.744" type="qcurve" smooth="yes"/>
      <point x="331.776" y="159.744"/>
      <point x="407.552" y="92.16"/>
      <point x="448.512" y="92.16" type="qcurve" smooth="yes"/>
      <point x="493.568" y="92.16"/>
      <point x="559.104" y="157.696"/>
      <point x="559.104" y="202.752" type="qcurve" smooth="yes"/>
      <point x="559.104" y="247.808"/>
      <point x="493.568" y="313.344"/>
      <point x="448.512" y="313.344" type="qcurve" smooth="yes"/>
      <point x="356.352" y="313.344"/>
      <point x="356.352" y="405.504" type="qcurve" smooth="yes"/>
      <point x="356.352" y="497.664"/>
      <point x="448.512" y="497.664" type="qcurve" smooth="yes"/>
      <point x="536.576" y="497.664"/>
      <point x="681.984" y="401.408"/>
      <point x="716.8" y="323.584" type="qcurve"/>
      <point x="776.192" y="323.584" type="line"/>
      <point x="806.912" y="473.088"/>
      <point x="948.224" y="563.2" type="qcurve"/>
      <point x="927.744" y="563.2"/>
      <point x="907.264" y="563.2" type="qcurve" smooth="yes"/>
      <point x="866.304" y="563.2"/>
      <point x="811.008" y="614.4"/>
      <point x="811.008" y="655.36" type="qcurve" smooth="yes"/>
      <point x="811.008" y="696.32"/>
      <point x="866.304" y="747.52"/>
      <point x="907.264" y="747.52" type="qcurve" smooth="yes"/>
      <point x="1032.19" y="747.52"/>
      <point x="1099.78" y="788.48" type="qcurve"/>
      <point x="1030.14" y="829.44"/>
      <point x="907.264" y="829.44" type="qcurve" smooth="yes"/>
      <point x="866.304" y="829.44"/>
      <point x="811.008" y="880.64"/>
      <point x="811.008" y="921.6" type="qcurve" smooth="yes"/>
      <point x="811.008" y="962.56"/>
      <point x="866.304" y="1013.76"/>
      <point x="907.264" y="1013.76" type="qcurve" smooth="yes"/>
      <point x="1003.52" y="1013.76"/>
      <point x="1085.44" y="1052.67" type="qcurve" smooth="yes"/>
      <point x="1187.84" y="1101.82"/>
      <point x="1187.84" y="1189.89" type="qcurve" smooth="yes"/>
      <point x="1187.84" y="1210.37"/>
      <point x="1159.17" y="1239.04" type="qcurve" smooth="yes"/>
      <point x="1058.82" y="1343.49"/>
      <point x="825.344" y="1343.49" type="qcurve" smooth="yes"/>
      <point x="647.168" y="1343.49"/>
      <point x="509.952" y="1273.86" type="qcurve" smooth="yes"/>
      <point x="479.232" y="1257.47"/>
      <point x="458.752" y="1257.47" type="qcurve" smooth="yes"/>
      <point x="421.888" y="1257.47"/>
      <point x="366.592" y="1316.86"/>
      <point x="366.592" y="1355.78" type="qcurve" smooth="yes"/>
      <point x="366.592" y="1441.79"/>
      <point x="559.104" y="1490.94" type="qcurve" smooth="yes"/>
      <point x="698.368" y="1527.81"/>
      <point x="825.344" y="1527.81" type="qcurve" smooth="yes"/>
      <point x="1015.81" y="1527.81"/>
      <point x="1173.5" y="1452.03" type="qcurve" smooth="yes"/>
      <point x="1372.16" y="1357.82"/>
    </contour>
    <contour>
      <point x="1163.26" y="327.68" type="qcurve" smooth="yes"/>
      <point x="1163.26" y="395.264"/>
      <point x="1142.78" y="444.416" type="qcurve"/>
      <point x="1067.01" y="425.984"/>
      <point x="1013.76" y="376.832" type="qcurve" smooth="yes"/>
      <point x="952.32" y="321.536"/>
      <point x="952.32" y="249.856" type="qcurve" smooth="yes"/>
      <point x="952.32" y="92.16"/>
      <point x="1034.24" y="92.16" type="qcurve" smooth="yes"/>
      <point x="1099.78" y="92.16"/>
      <point x="1136.64" y="182.272" type="qcurve" smooth="yes"/>
      <point x="1163.26" y="247.808"/>
    </contour>
  </outline>
</glyph>
<glyph name="uniE016" format="2">
  <advance width="1913"/>
  <unicode hex="E016"/>
  <outline>
    <contour>
      <point x="1912.83" y="1179.65" type="line"/>
      <point x="1912.83" y="1028.1"/>
      <point x="1808.38" y="911.36" type="qcurve" smooth="yes"/>
      <point x="1728.51" y="821.248"/>
      <point x="1613.82" y="776.192" type="qcurve"/>
      <point x="1595.39" y="770.048"/>
      <point x="1576.96" y="770.048" type="qcurve" smooth="yes"/>
      <point x="1538.05" y="770.048"/>
      <point x="1486.85" y="827.392"/>
      <point x="1486.85" y="866.304" type="qcurve" smooth="yes"/>
      <point x="1486.85" y="925.696"/>
      <point x="1546.24" y="948.224" type="qcurve" smooth="yes"/>
      <point x="1622.02" y="976.896"/>
      <point x="1671.17" y="1034.24" type="qcurve" smooth="yes"/>
      <point x="1728.51" y="1097.73"/>
      <point x="1728.51" y="1179.65" type="qcurve" smooth="yes"/>
      <point x="1728.51" y="1265.66"/>
      <point x="1599.49" y="1343.49"/>
      <point x="1449.98" y="1343.49" type="qcurve" smooth="yes"/>
      <point x="1411.07" y="1343.49"/>
      <point x="1349.63" y="1300.48"/>
      <point x="1349.63" y="1280" type="qcurve" smooth="yes"/>
      <point x="1349.63" y="1228.8"/>
      <point x="1447.94" y="1228.8" type="qcurve" smooth="yes"/>
      <point x="1540.1" y="1228.8"/>
      <point x="1540.1" y="1136.64" type="qcurve" smooth="yes"/>
      <point x="1540.1" y="1044.48"/>
      <point x="1447.94" y="1044.48" type="qcurve" smooth="yes"/>
      <point x="1277.95" y="1044.48"/>
      <point x="1206.27" y="1144.83" type="qcurve"/>
      <point x="1187.84" y="993.28"/>
      <point x="1073.15" y="915.456" type="qcurve"/>
      <point x="1132.54" y="860.16"/>
      <point x="1132.54" y="788.48" type="qcurve" smooth="yes"/>
      <point x="1132.54" y="706.56"/>
      <point x="1056.77" y="647.168" type="qcurve"/>
      <point x="1185.79" y="538.624"/>
      <point x="1185.79" y="327.68" type="qcurve" smooth="yes"/>
      <point x="1185.79" y="165.888"/>
      <point x="1110.02" y="47.104" type="qcurve" smooth="yes"/>
      <point x="1024" y="-92.16"/>
      <point x="872.448" y="-92.16" type="qcurve" smooth="yes"/>
      <point x="741.376" y="-92.16"/>
      <point x="669.696" y="18.432" type="qcurve" smooth="yes"/>
      <point x="606.208" y="112.64"/>
      <point x="606.208" y="249.856" type="qcurve" smooth="yes"/>
      <point x="606.208" y="448.512"/>
      <point x="784.384" y="563.2" type="qcurve"/>
      <point x="765.952" y="563.2"/>
      <point x="743.424" y="563.2" type="qcurve" smooth="yes"/>
      <point x="647.168" y="563.2"/>
      <point x="647.168" y="655.36" type="qcurve" smooth="yes"/>
      <point x="647.168" y="747.52"/>
      <point x="743.424" y="747.52" type="qcurve" smooth="yes"/>
      <point x="868.352" y="747.52"/>
      <point x="935.936" y="788.48" type="qcurve"/>
      <point x="868.352" y="829.44"/>
      <point x="743.424" y="829.44" type="qcurve" smooth="yes"/>
      <point x="647.168" y="829.44"/>
      <point x="647.168" y="921.6" type="qcurve" smooth="yes"/>
      <point x="647.168" y="1013.76"/>
      <point x="837.632" y="1013.76"/>
      <point x="919.552" y="1052.67" type="qcurve" smooth="yes"/>
      <point x="1024" y="1101.82"/>
      <point x="1024" y="1189.89" type="qcurve" smooth="yes"/>
      <point x="1024" y="1210.37"/>
      <point x="997.376" y="1239.04" type="qcurve"/>
      <point x="894.976" y="1343.49"/>
      <point x="661.504" y="1343.49" type="qcurve" smooth="yes"/>
      <point x="477.184" y="1343.49"/>
      <point x="346.112" y="1273.86" type="qcurve"/>
      <point x="317.44" y="1257.47"/>
      <point x="296.96" y="1257.47" type="qcurve" smooth="yes"/>
      <point x="258.048" y="1257.47"/>
      <point x="204.8" y="1316.86"/>
      <point x="204.8" y="1355.78" type="qcurve" smooth="yes"/>
      <point x="204.8" y="1441.79"/>
      <point x="397.312" y="1490.94" type="qcurve" smooth="yes"/>
      <point x="536.576" y="1527.81"/>
      <point x="661.504" y="1527.81" type="qcurve" smooth="yes"/>
      <point x="804.864" y="1527.81"/>
      <point x="940.032" y="1480.7" type="qcurve" smooth="yes"/>
      <point x="1103.87" y="1425.41"/>
      <point x="1169.41" y="1323.01" type="qcurve"/>
      <point x="1187.84" y="1427.46"/>
      <point x="1294.34" y="1484.8" type="qcurve" smooth="yes"/>
      <point x="1374.21" y="1527.81"/>
      <point x="1449.98" y="1527.81" type="qcurve" smooth="yes"/>
      <point x="1912.83" y="1527.81"/>
      <point x="1912.83" y="1179.65" type="qcurve"/>
    </contour>
    <contour>
      <point x="1001.47" y="327.68" type="line"/>
      <point x="1001.47" y="395.264"/>
      <point x="980.992" y="444.416" type="qcurve"/>
      <point x="905.216" y="425.984"/>
      <point x="849.92" y="376.832" type="qcurve" smooth="yes"/>
      <point x="790.528" y="321.536"/>
      <point x="790.528" y="249.856" type="qcurve" smooth="yes"/>
      <point x="790.528" y="92.16"/>
      <point x="872.448" y="92.16" type="qcurve" smooth="yes"/>
      <point x="937.984" y="92.16"/>
      <point x="974.848" y="182.272" type="qcurve" smooth="yes"/>
      <point x="1001.47" y="249.856"/>
      <point x="1001.47" y="327.68" type="qcurve"/>
    </contour>
  </outline>
</glyph>
<glyph name="uniE018" format="2">
  <advance width="1208"/>
  <unicode hex="E018"/>
  <outline>
    <contour>
      <point x="1210.37" y="94.208" type="qcurve" smooth="yes"/>
      <point x="1210.37" y="49.152"/>
      <point x="1163.26" y="18.432" type="qcurve" smooth="yes"/>
      <point x="1144.83" y="6.144"/>
      <point x="1097.73" y="-16.384" type="qcurve" smooth="yes"/>
      <point x="935.936" y="-92.16"/>
      <point x="706.56" y="-92.16" type="qcurve" smooth="yes"/>
      <point x="526.336" y="-92.16"/>
      <point x="393.216" y="-40.96" type="qcurve" smooth="yes"/>
      <point x="204.8" y="28.672"/>
      <point x="204.8" y="176.128" type="qcurve" smooth="yes"/>
      <point x="204.8" y="296.96"/>
      <point x="417.792" y="378.88" type="qcurve" smooth="yes"/>
      <point x="614.4" y="452.608"/>
      <point x="811.008" y="528.384" type="qcurve"/>
      <point x="1024" y="636.928"/>
      <point x="1024" y="819.2" type="qcurve" smooth="yes"/>
      <point x="1024" y="933.888" type="line"/>
      <point x="389.12" y="933.888" type="line"/>
      <point x="389.12" y="815.104"/>
      <point x="387.072" y="800.768" type="qcurve" smooth="yes"/>
      <point x="370.688" y="727.04"/>
      <point x="296.96" y="727.04" type="qcurve" smooth="yes"/>
      <point x="204.8" y="727.04"/>
      <point x="204.8" y="819.2" type="qcurve" smooth="yes"/>
      <point x="204.8" y="1026.05" type="line" smooth="yes"/>
      <point x="204.8" y="1224.7"/>
      <point x="507.904" y="1527.81"/>
      <point x="708.608" y="1527.81" type="qcurve" smooth="yes"/>
      <point x="907.264" y="1527.81"/>
      <point x="1208.32" y="1224.7"/>
      <point x="1208.32" y="1026.05" type="qcurve" smooth="yes"/>
      <point x="1208.32" y="819.2" type="line" smooth="yes"/>
      <point x="1208.32" y="653.312"/>
      <point x="1091.58" y="514.048" type="qcurve" smooth="yes"/>
      <point x="985.088" y="387.072"/>
      <point x="821.248" y="323.584" type="qcurve" smooth="yes"/>
      <point x="808.96" y="319.488"/>
      <point x="604.16" y="256" type="qcurve" smooth="yes"/>
      <point x="473.088" y="217.088"/>
      <point x="397.312" y="163.84" type="qcurve"/>
      <point x="430.08" y="129.024"/>
      <point x="542.72" y="108.544" type="qcurve" smooth="yes"/>
      <point x="632.832" y="92.16"/>
      <point x="706.56" y="92.16" type="qcurve" smooth="yes"/>
      <point x="907.264" y="92.16"/>
      <point x="1069.06" y="178.176" type="qcurve"/>
      <point x="1095.68" y="190.464"/>
      <point x="1118.21" y="190.464" type="qcurve" smooth="yes"/>
      <point x="1155.07" y="190.464"/>
      <point x="1210.37" y="133.12"/>
    </contour>
    <contour>
      <point x="1009.66" y="1118.21" type="line"/>
      <point x="976.896" y="1212.42"/>
      <point x="804.864" y="1343.49"/>
      <point x="708.608" y="1343.49" type="qcurve" smooth="yes"/>
      <point x="608.256" y="1343.49"/>
      <point x="436.224" y="1212.42"/>
      <point x="405.504" y="1118.21" type="qcurve"/>
    </contour>
  </outline>
</glyph>
<glyph name="uniE019" format="2">
  <advance width="1411"/>
  <unicode hex="E019"/>
  <outline>
    <contour>
      <point x="1411.07" y="94.208" type="qcurve" smooth="yes"/>
      <point x="1411.07" y="49.152"/>
      <point x="1363.97" y="18.432" type="qcurve" smooth="yes"/>
      <point x="1193.98" y="-92.16"/>
      <point x="909.312" y="-92.16" type="qcurve" smooth="yes"/>
      <point x="729.088" y="-92.16"/>
      <point x="595.968" y="-40.96" type="qcurve" smooth="yes"/>
      <point x="407.552" y="28.672"/>
      <point x="407.552" y="176.128" type="qcurve" smooth="yes"/>
      <point x="407.552" y="296.96"/>
      <point x="620.544" y="378.88" type="qcurve" smooth="yes"/>
      <point x="817.152" y="452.608"/>
      <point x="1013.76" y="528.384" type="qcurve"/>
      <point x="1226.75" y="636.928"/>
      <point x="1226.75" y="819.2" type="qcurve" smooth="yes"/>
      <point x="1226.75" y="933.888" type="line"/>
      <point x="591.872" y="933.888" type="line"/>
      <point x="591.872" y="819.2" type="line" smooth="yes"/>
      <point x="591.872" y="698.368"/>
      <point x="417.792" y="524.288"/>
      <point x="296.96" y="524.288" type="qcurve" smooth="yes"/>
      <point x="204.8" y="524.288"/>
      <point x="204.8" y="616.448" type="qcurve" smooth="yes"/>
      <point x="204.8" y="708.608"/>
      <point x="296.96" y="708.608" type="qcurve" smooth="yes"/>
      <point x="342.016" y="708.608"/>
      <point x="407.552" y="774.144"/>
      <point x="407.552" y="819.2" type="qcurve" smooth="yes"/>
      <point x="407.552" y="864.256"/>
      <point x="342.016" y="929.792"/>
      <point x="296.96" y="929.792" type="qcurve" smooth="yes"/>
      <point x="204.8" y="929.792"/>
      <point x="204.8" y="1021.95" type="qcurve" smooth="yes"/>
      <point x="204.8" y="1114.11"/>
      <point x="296.96" y="1114.11" type="qcurve" smooth="yes"/>
      <point x="356.352" y="1114.11"/>
      <point x="411.648" y="1091.58" type="qcurve"/>
      <point x="438.272" y="1269.76"/>
      <point x="729.088" y="1527.81"/>
      <point x="909.312" y="1527.81" type="qcurve" smooth="yes"/>
      <point x="1110.02" y="1527.81"/>
      <point x="1411.07" y="1224.7"/>
      <point x="1411.07" y="1026.05" type="qcurve" smooth="yes"/>
      <point x="1411.07" y="819.2" type="line" smooth="yes"/>
      <point x="1411.07" y="653.312"/>
      <point x="1294.34" y="514.048" type="qcurve" smooth="yes"/>
      <point x="1187.84" y="387.072"/>
      <point x="1024" y="323.584" type="qcurve" smooth="yes"/>
      <point x="1011.71" y="319.488"/>
      <point x="806.912" y="256" type="qcurve"/>
      <point x="673.792" y="217.088"/>
      <point x="600.064" y="163.84" type="qcurve"/>
      <point x="630.784" y="129.024"/>
      <point x="745.472" y="108.544" type="qcurve" smooth="yes"/>
      <point x="835.584" y="92.16"/>
      <point x="909.312" y="92.16" type="qcurve" smooth="yes"/>
      <point x="1110.02" y="92.16"/>
      <point x="1271.81" y="178.176" type="qcurve"/>
      <point x="1298.43" y="190.464"/>
      <point x="1320.96" y="190.464" type="qcurve" smooth="yes"/>
      <point x="1357.82" y="190.464"/>
      <point x="1411.07" y="133.12"/>
    </contour>
    <contour>
      <point x="1210.37" y="1118.21" type="line"/>
      <point x="1179.65" y="1212.42"/>
      <point x="1007.62" y="1343.49"/>
      <point x="911.36" y="1343.49" type="qcurve" smooth="yes"/>
      <point x="811.008" y="1343.49"/>
      <point x="638.976" y="1212.42"/>
      <point x="606.208" y="1118.21" type="qcurve"/>
    </contour>
  </outline>
</glyph>
<glyph name="uniE01A" format="2">
  <advance width="1645"/>
  <unicode hex="E01A"/>
  <outline>
    <contour>
      <point x="1644.54" y="1026.05" type="line"/>
      <point x="1644.54" y="927.744"/>
      <point x="1529.86" y="768"/>
      <point x="1439.74" y="731.136" type="qcurve" smooth="yes"/>
      <point x="1419.26" y="722.944"/>
      <point x="1400.83" y="722.944" type="qcurve" smooth="yes"/>
      <point x="1363.97" y="722.944"/>
      <point x="1310.72" y="780.288"/>
      <point x="1310.72" y="819.2" type="qcurve" smooth="yes"/>
      <point x="1310.72" y="866.304"/>
      <point x="1384.45" y="911.36"/>
      <point x="1419.26" y="933.888" type="qcurve"/>
      <point x="1208.32" y="933.888" type="line"/>
      <point x="1208.32" y="819.2" type="line" smooth="yes"/>
      <point x="1208.32" y="653.312"/>
      <point x="1091.58" y="514.048" type="qcurve" smooth="yes"/>
      <point x="985.088" y="387.072"/>
      <point x="821.248" y="323.584" type="qcurve"/>
      <point x="808.96" y="319.488"/>
      <point x="604.16" y="256" type="qcurve"/>
      <point x="471.04" y="217.088"/>
      <point x="397.312" y="163.84" type="qcurve"/>
      <point x="428.032" y="129.024"/>
      <point x="542.72" y="108.544" type="qcurve" smooth="yes"/>
      <point x="632.832" y="92.16"/>
      <point x="706.56" y="92.16" type="qcurve" smooth="yes"/>
      <point x="907.264" y="92.16"/>
      <point x="1069.06" y="178.176" type="qcurve"/>
      <point x="1095.68" y="190.464"/>
      <point x="1118.21" y="190.464" type="qcurve" smooth="yes"/>
      <point x="1155.07" y="190.464"/>
      <point x="1210.37" y="133.12"/>
      <point x="1210.37" y="94.208" type="qcurve" smooth="yes"/>
      <point x="1210.37" y="49.152"/>
      <point x="1163.26" y="18.432" type="qcurve" smooth="yes"/>
      <point x="993.28" y="-92.16"/>
      <point x="706.56" y="-92.16" type="qcurve" smooth="yes"/>
      <point x="526.336" y="-92.16"/>
      <point x="393.216" y="-40.96" type="qcurve" smooth="yes"/>
      <point x="204.8" y="28.672"/>
      <point x="204.8" y="176.128" type="qcurve" smooth="yes"/>
      <point x="204.8" y="296.96"/>
      <point x="417.792" y="378.88" type="qcurve" smooth="yes"/>
      <point x="614.4" y="452.608"/>
      <point x="811.008" y="528.384" type="qcurve"/>
      <point x="1024" y="636.928"/>
      <point x="1024" y="819.2" type="qcurve" smooth="yes"/>
      <point x="1024" y="933.888" type="line"/>
      <point x="389.12" y="933.888" type="line"/>
      <point x="389.12" y="815.104"/>
      <point x="387.072" y="800.768" type="qcurve"/>
      <point x="370.688" y="727.04"/>
      <point x="296.96" y="727.04" type="qcurve" smooth="yes"/>
      <point x="204.8" y="727.04"/>
      <point x="204.8" y="819.2" type="qcurve" smooth="yes"/>
      <point x="204.8" y="1026.05" type="line" smooth="yes"/>
      <point x="204.8" y="1224.7"/>
      <point x="507.904" y="1527.81"/>
      <point x="708.608" y="1527.81" type="qcurve" smooth="yes"/>
      <point x="880.64" y="1527.81"/>
      <point x="1165.31" y="1288.19"/>
      <point x="1200.13" y="1118.21" type="qcurve"/>
      <point x="1419.26" y="1118.21" type="line"/>
      <point x="1384.45" y="1138.69"/>
      <point x="1310.72" y="1183.74"/>
      <point x="1310.72" y="1230.85" type="qcurve" smooth="yes"/>
      <point x="1310.72" y="1269.76"/>
      <point x="1363.97" y="1327.1"/>
      <point x="1400.83" y="1327.1" type="qcurve" smooth="yes"/>
      <point x="1419.26" y="1327.1"/>
      <point x="1439.74" y="1318.91" type="qcurve" smooth="yes"/>
      <point x="1529.86" y="1284.1"/>
      <point x="1644.54" y="1122.3"/>
      <point x="1644.54" y="1026.05" type="qcurve"/>
    </contour>
    <contour>
      <point x="1009.66" y="1118.21" type="line"/>
      <point x="976.896" y="1214.46"/>
      <point x="802.816" y="1343.49"/>
      <point x="708.608" y="1343.49" type="qcurve" smooth="yes"/>
      <point x="610.304" y="1343.49"/>
      <point x="438.272" y="1214.46"/>
      <point x="405.504" y="1118.21" type="qcurve"/>
    </contour>
  </outline>
</glyph>
<glyph name="uniE01B" format="2">
  <advance width="1606"/>
  <unicode hex="E01B"/>
  <outline>
    <contour>
      <point x="1605.63" y="94.208" type="qcurve" smooth="yes"/>
      <point x="1605.63" y="49.152"/>
      <point x="1558.53" y="18.432" type="qcurve" smooth="yes"/>
      <point x="1390.59" y="-92.16"/>
      <point x="1101.82" y="-92.16" type="qcurve" smooth="yes"/>
      <point x="958.464" y="-92.16"/>
      <point x="837.632" y="-57.344" type="qcurve" smooth="yes"/>
      <point x="675.84" y="-10.24"/>
      <point x="622.592" y="83.968" type="qcurve"/>
      <point x="430.08" y="83.968" type="line"/>
      <point x="464.896" y="63.488"/>
      <point x="538.624" y="16.384"/>
      <point x="538.624" y="-28.672" type="qcurve" smooth="yes"/>
      <point x="538.624" y="-67.584"/>
      <point x="487.424" y="-124.928"/>
      <point x="448.512" y="-124.928" type="qcurve" smooth="yes"/>
      <point x="430.08" y="-124.928"/>
      <point x="411.648" y="-116.736" type="qcurve" smooth="yes"/>
      <point x="319.488" y="-81.92"/>
      <point x="204.8" y="79.872"/>
      <point x="204.8" y="176.128" type="qcurve" smooth="yes"/>
      <point x="204.8" y="274.432"/>
      <point x="319.488" y="434.176"/>
      <point x="411.648" y="471.04" type="qcurve" smooth="yes"/>
      <point x="430.08" y="479.232"/>
      <point x="448.512" y="479.232" type="qcurve" smooth="yes"/>
      <point x="487.424" y="479.232"/>
      <point x="538.624" y="419.84"/>
      <point x="538.624" y="382.976" type="qcurve" smooth="yes"/>
      <point x="538.624" y="335.872"/>
      <point x="464.896" y="290.816"/>
      <point x="430.08" y="268.288" type="qcurve"/>
      <point x="632.832" y="268.288" type="line"/>
      <point x="692.224" y="342.016"/>
      <point x="907.264" y="413.696" type="qcurve" smooth="yes"/>
      <point x="1173.5" y="503.808"/>
      <point x="1251.33" y="550.912" type="qcurve" smooth="yes"/>
      <point x="1419.26" y="653.312"/>
      <point x="1419.26" y="819.2" type="qcurve" smooth="yes"/>
      <point x="1419.26" y="933.888" type="line"/>
      <point x="784.384" y="933.888" type="line"/>
      <point x="784.384" y="815.104"/>
      <point x="782.336" y="800.768" type="qcurve" smooth="yes"/>
      <point x="765.952" y="727.04"/>
      <point x="692.224" y="727.04" type="qcurve" smooth="yes"/>
      <point x="600.064" y="727.04"/>
      <point x="600.064" y="819.2" type="qcurve" smooth="yes"/>
      <point x="600.064" y="1026.05" type="line" smooth="yes"/>
      <point x="600.064" y="1224.7"/>
      <point x="903.168" y="1527.81"/>
      <point x="1103.87" y="1527.81" type="qcurve" smooth="yes"/>
      <point x="1302.53" y="1527.81"/>
      <point x="1603.58" y="1224.7"/>
      <point x="1603.58" y="1026.05" type="qcurve" smooth="yes"/>
      <point x="1603.58" y="819.2" type="line" smooth="yes"/>
      <point x="1603.58" y="653.312"/>
      <point x="1486.85" y="514.048" type="qcurve" smooth="yes"/>
      <point x="1380.35" y="387.072"/>
      <point x="1216.51" y="323.584" type="qcurve" smooth="yes"/>
      <point x="1206.27" y="319.488"/>
      <point x="999.424" y="256" type="qcurve" smooth="yes"/>
      <point x="868.352" y="217.088"/>
      <point x="792.576" y="163.84" type="qcurve"/>
      <point x="823.296" y="129.024"/>
      <point x="940.032" y="108.544" type="qcurve" smooth="yes"/>
      <point x="1030.14" y="92.16"/>
      <point x="1101.82" y="92.16" type="qcurve" smooth="yes"/>
      <point x="1302.53" y="92.16"/>
      <point x="1466.37" y="178.176" type="qcurve"/>
      <point x="1492.99" y="190.464"/>
      <point x="1513.47" y="190.464" type="qcurve" smooth="yes"/>
      <point x="1552.38" y="190.464"/>
      <point x="1605.63" y="133.12"/>
    </contour>
    <contour>
      <point x="1404.93" y="1118.21" type="line"/>
      <point x="1372.16" y="1212.42"/>
      <point x="1202.18" y="1343.49"/>
      <point x="1103.87" y="1343.49" type="qcurve" smooth="yes"/>
      <point x="1005.57" y="1343.49"/>
      <point x="833.536" y="1212.42"/>
      <point x="800.768" y="1118.21" type="qcurve"/>
    </contour>
  </outline>
</glyph>
<glyph name="uniE01C" format="2">
  <advance width="1546"/>
  <unicode hex="E01C"/>
  <outline>
    <contour>
      <point x="1546.24" y="65.536" type="line"/>
      <point x="1546.24" y="34.816"/>
      <point x="1521.66" y="4.096" type="qcurve" smooth="yes"/>
      <point x="1439.74" y="-94.208"/>
      <point x="1302.53" y="-94.208" type="qcurve" smooth="yes"/>
      <point x="1185.79" y="-94.208"/>
      <point x="1101.82" y="-14.336" type="qcurve"/>
      <point x="935.936" y="-92.16"/>
      <point x="706.56" y="-92.16" type="qcurve" smooth="yes"/>
      <point x="526.336" y="-92.16"/>
      <point x="393.216" y="-40.96" type="qcurve" smooth="yes"/>
      <point x="204.8" y="28.672"/>
      <point x="204.8" y="176.128" type="qcurve" smooth="yes"/>
      <point x="204.8" y="296.96"/>
      <point x="417.792" y="378.88" type="qcurve" smooth="yes"/>
      <point x="614.4" y="452.608"/>
      <point x="811.008" y="528.384" type="qcurve"/>
      <point x="1024" y="636.928"/>
      <point x="1024" y="819.2" type="qcurve" smooth="yes"/>
      <point x="1024" y="933.888" type="line"/>
      <point x="389.12" y="933.888" type="line"/>
      <point x="389.12" y="815.104"/>
      <point x="387.072" y="800.768" type="qcurve"/>
      <point x="370.688" y="727.04"/>
      <point x="296.96" y="727.04" type="qcurve" smooth="yes"/>
      <point x="204.8" y="727.04"/>
      <point x="204.8" y="819.2" type="qcurve" smooth="yes"/>
      <point x="204.8" y="1026.05" type="line" smooth="yes"/>
      <point x="204.8" y="1224.7"/>
      <point x="507.904" y="1527.81"/>
      <point x="708.608" y="1527.81" type="qcurve" smooth="yes"/>
      <point x="907.264" y="1527.81"/>
      <point x="1208.32" y="1224.7"/>
      <point x="1208.32" y="1026.05" type="qcurve" smooth="yes"/>
      <point x="1208.32" y="819.2" type="line" smooth="yes"/>
      <point x="1208.32" y="653.312"/>
      <point x="1091.58" y="514.048" type="qcurve" smooth="yes"/>
      <point x="985.088" y="387.072"/>
      <point x="821.248" y="323.584" type="qcurve" smooth="yes"/>
      <point x="811.008" y="319.488"/>
      <point x="604.16" y="256" type="qcurve" smooth="yes"/>
      <point x="471.04" y="217.088"/>
      <point x="397.312" y="163.84" type="qcurve"/>
      <point x="428.032" y="129.024"/>
      <point x="542.72" y="108.544" type="qcurve" smooth="yes"/>
      <point x="632.832" y="92.16"/>
      <point x="706.56" y="92.16" type="qcurve" smooth="yes"/>
      <point x="890.88" y="92.16"/>
      <point x="1011.71" y="147.456" type="qcurve"/>
      <point x="1007.62" y="174.08"/>
      <point x="1007.62" y="200.704" type="qcurve" smooth="yes"/>
      <point x="1007.62" y="323.584"/>
      <point x="1181.7" y="495.616"/>
      <point x="1302.53" y="495.616" type="qcurve" smooth="yes"/>
      <point x="1394.69" y="495.616"/>
      <point x="1394.69" y="403.456" type="qcurve" smooth="yes"/>
      <point x="1394.69" y="311.296"/>
      <point x="1302.53" y="311.296" type="qcurve" smooth="yes"/>
      <point x="1257.47" y="311.296"/>
      <point x="1191.94" y="245.76"/>
      <point x="1191.94" y="200.704" type="qcurve" smooth="yes"/>
      <point x="1191.94" y="155.648"/>
      <point x="1257.47" y="90.112"/>
      <point x="1302.53" y="90.112" type="qcurve" smooth="yes"/>
      <point x="1343.49" y="90.112"/>
      <point x="1419.26" y="159.744"/>
      <point x="1452.03" y="159.744" type="qcurve" smooth="yes"/>
      <point x="1488.9" y="159.744"/>
      <point x="1546.24" y="102.4"/>
      <point x="1546.24" y="65.536" type="qcurve"/>
    </contour>
    <contour>
      <point x="1009.66" y="1118.21" type="line"/>
      <point x="976.896" y="1212.42"/>
      <point x="804.864" y="1343.49"/>
      <point x="708.608" y="1343.49" type="qcurve" smooth="yes"/>
      <point x="608.256" y="1343.49"/>
      <point x="436.224" y="1212.42"/>
      <point x="405.504" y="1118.21" type="qcurve"/>
    </contour>
  </outline>
</glyph>
<glyph name="uniE01F" format="2">
  <advance width="2003"/>
  <unicode hex="E01F"/>
  <outline>
    <contour>
      <point x="2002.94" y="1024" type="qcurve" smooth="yes"/>
      <point x="2002.94" y="921.6"/>
      <point x="1927.17" y="864.256" type="qcurve" smooth="yes"/>
      <point x="1859.58" y="813.056"/>
      <point x="1748.99" y="813.056" type="qcurve" smooth="yes"/>
      <point x="1648.64" y="813.056"/>
      <point x="1544.19" y="890.88" type="qcurve"/>
      <point x="1488.9" y="817.152"/>
      <point x="1456.13" y="749.568" type="qcurve" smooth="yes"/>
      <point x="1431.55" y="698.368"/>
      <point x="1376.26" y="698.368" type="qcurve" smooth="yes"/>
      <point x="1339.39" y="698.368"/>
      <point x="1280" y="749.568"/>
      <point x="1280" y="788.48" type="qcurve" smooth="yes"/>
      <point x="1280" y="825.344"/>
      <point x="1347.58" y="933.888" type="qcurve"/>
      <point x="1208.32" y="933.888" type="line"/>
      <point x="1208.32" y="819.2" type="line" smooth="yes"/>
      <point x="1208.32" y="647.168"/>
      <point x="1085.44" y="505.856" type="qcurve" smooth="yes"/>
      <point x="978.944" y="385.024"/>
      <point x="823.296" y="323.584" type="qcurve" smooth="yes"/>
      <point x="804.864" y="317.44"/>
      <point x="604.16" y="256" type="qcurve" smooth="yes"/>
      <point x="468.992" y="215.04"/>
      <point x="397.312" y="163.84" type="qcurve"/>
      <point x="425.984" y="129.024"/>
      <point x="544.768" y="108.544" type="qcurve" smooth="yes"/>
      <point x="634.88" y="92.16"/>
      <point x="706.56" y="92.16" type="qcurve" smooth="yes"/>
      <point x="921.6" y="92.16"/>
      <point x="1069.06" y="178.176" type="qcurve"/>
      <point x="1093.63" y="190.464"/>
      <point x="1118.21" y="190.464" type="qcurve" smooth="yes"/>
      <point x="1155.07" y="190.464"/>
      <point x="1210.37" y="133.12"/>
      <point x="1210.37" y="94.208" type="qcurve" smooth="yes"/>
      <point x="1210.37" y="45.056"/>
      <point x="1163.26" y="18.432" type="qcurve" smooth="yes"/>
      <point x="972.8" y="-92.16"/>
      <point x="706.56" y="-92.16" type="qcurve" smooth="yes"/>
      <point x="530.432" y="-92.16"/>
      <point x="395.264" y="-43.008" type="qcurve" smooth="yes"/>
      <point x="204.8" y="28.672"/>
      <point x="204.8" y="176.128" type="qcurve" smooth="yes"/>
      <point x="204.8" y="296.96"/>
      <point x="417.792" y="378.88" type="qcurve" smooth="yes"/>
      <point x="614.4" y="452.608"/>
      <point x="811.008" y="526.336" type="qcurve"/>
      <point x="1024" y="634.88"/>
      <point x="1024" y="819.2" type="qcurve" smooth="yes"/>
      <point x="1024" y="933.888" type="line"/>
      <point x="389.12" y="933.888" type="line"/>
      <point x="389.12" y="819.2" type="line" smooth="yes"/>
      <point x="389.12" y="727.04"/>
      <point x="296.96" y="727.04" type="qcurve" smooth="yes"/>
      <point x="204.8" y="727.04"/>
      <point x="204.8" y="819.2" type="qcurve" smooth="yes"/>
      <point x="204.8" y="1026.05" type="line" smooth="yes"/>
      <point x="204.8" y="1224.7"/>
      <point x="507.904" y="1527.81"/>
      <point x="708.608" y="1527.81" type="qcurve" smooth="yes"/>
      <point x="882.688" y="1527.81"/>
      <point x="1163.26" y="1288.19"/>
      <point x="1198.08" y="1118.21" type="qcurve"/>
      <point x="1347.58" y="1118.21" type="line"/>
      <point x="1280" y="1224.7"/>
      <point x="1280" y="1261.57" type="qcurve" smooth="yes"/>
      <point x="1280" y="1300.48"/>
      <point x="1339.39" y="1351.68"/>
      <point x="1376.26" y="1351.68" type="qcurve" smooth="yes"/>
      <point x="1431.55" y="1351.68"/>
      <point x="1456.13" y="1300.48" type="qcurve" smooth="yes"/>
      <point x="1488.9" y="1232.9"/>
      <point x="1544.19" y="1159.17" type="qcurve"/>
      <point x="1648.64" y="1236.99"/>
      <point x="1748.99" y="1236.99" type="qcurve" smooth="yes"/>
      <point x="1859.58" y="1236.99"/>
      <point x="1927.17" y="1185.79" type="qcurve" smooth="yes"/>
      <point x="2002.94" y="1128.45"/>
    </contour>
    <contour>
      <point x="1818.62" y="1024" type="qcurve" smooth="yes"/>
      <point x="1818.62" y="1034.24"/>
      <point x="1816.58" y="1038.34" type="qcurve"/>
      <point x="1794.05" y="1052.67"/>
      <point x="1748.99" y="1052.67" type="qcurve" smooth="yes"/>
      <point x="1714.18" y="1052.67"/>
      <point x="1671.17" y="1024" type="qcurve"/>
      <point x="1714.18" y="997.376"/>
      <point x="1748.99" y="997.376" type="qcurve" smooth="yes"/>
      <point x="1796.1" y="997.376"/>
      <point x="1814.53" y="1009.66" type="qcurve"/>
      <point x="1818.62" y="1015.81"/>
    </contour>
    <contour>
      <point x="1007.62" y="1118.21" type="line"/>
      <point x="974.848" y="1212.42"/>
      <point x="804.864" y="1343.49"/>
      <point x="708.608" y="1343.49" type="qcurve" smooth="yes"/>
      <point x="608.256" y="1343.49"/>
      <point x="438.272" y="1212.42"/>
      <point x="405.504" y="1118.21" type="qcurve"/>
    </contour>
  </outline>
</glyph>
<glyph name="uniE020" format="2">
  <advance width="1686"/>
  <unicode hex="E020"/>
  <outline>
    <contour>
      <point x="1687.55" y="94.208" type="qcurve" smooth="yes"/>
      <point x="1687.55" y="49.152"/>
      <point x="1640.45" y="18.432" type="qcurve" smooth="yes"/>
      <point x="1622.02" y="6.144"/>
      <point x="1574.91" y="-16.384" type="qcurve" smooth="yes"/>
      <point x="1413.12" y="-92.16"/>
      <point x="1183.74" y="-92.16" type="qcurve" smooth="yes"/>
      <point x="1046.53" y="-92.16"/>
      <point x="929.792" y="-59.392" type="qcurve"/>
      <point x="770.048" y="-18.432"/>
      <point x="712.704" y="71.68" type="qcurve"/>
      <point x="630.784" y="-92.16"/>
      <point x="448.512" y="-92.16" type="qcurve" smooth="yes"/>
      <point x="313.344" y="-92.16"/>
      <point x="229.376" y="4.096" type="qcurve" smooth="yes"/>
      <point x="204.8" y="34.816"/>
      <point x="204.8" y="65.536" type="qcurve" smooth="yes"/>
      <point x="204.8" y="104.448"/>
      <point x="262.144" y="159.744"/>
      <point x="299.008" y="159.744" type="qcurve" smooth="yes"/>
      <point x="331.776" y="159.744"/>
      <point x="407.552" y="92.16"/>
      <point x="448.512" y="92.16" type="qcurve" smooth="yes"/>
      <point x="493.568" y="92.16"/>
      <point x="559.104" y="157.696"/>
      <point x="559.104" y="202.752" type="qcurve" smooth="yes"/>
      <point x="559.104" y="247.808"/>
      <point x="493.568" y="313.344"/>
      <point x="448.512" y="313.344" type="qcurve" smooth="yes"/>
      <point x="356.352" y="313.344"/>
      <point x="356.352" y="405.504" type="qcurve" smooth="yes"/>
      <point x="356.352" y="497.664"/>
      <point x="448.512" y="497.664" type="qcurve" smooth="yes"/>
      <point x="546.816" y="497.664"/>
      <point x="702.464" y="378.88"/>
      <point x="731.136" y="286.72" type="qcurve"/>
      <point x="794.624" y="348.16"/>
      <point x="1009.66" y="419.84" type="qcurve" smooth="yes"/>
      <point x="1255.42" y="501.76"/>
      <point x="1341.44" y="557.056" type="qcurve" smooth="yes"/>
      <point x="1501.18" y="657.408"/>
      <point x="1501.18" y="819.2" type="qcurve" smooth="yes"/>
      <point x="1501.18" y="933.888" type="line"/>
      <point x="866.304" y="933.888" type="line"/>
      <point x="866.304" y="819.2" type="line" smooth="yes"/>
      <point x="866.304" y="727.04"/>
      <point x="774.144" y="727.04" type="qcurve" smooth="yes"/>
      <point x="681.984" y="727.04"/>
      <point x="681.984" y="819.2" type="qcurve" smooth="yes"/>
      <point x="681.984" y="1026.05" type="line" smooth="yes"/>
      <point x="681.984" y="1224.7"/>
      <point x="985.088" y="1527.81"/>
      <point x="1185.79" y="1527.81" type="qcurve" smooth="yes"/>
      <point x="1384.45" y="1527.81"/>
      <point x="1685.5" y="1224.7"/>
      <point x="1685.5" y="1026.05" type="qcurve" smooth="yes"/>
      <point x="1685.5" y="819.2" type="line" smooth="yes"/>
      <point x="1685.5" y="653.312"/>
      <point x="1568.77" y="514.048" type="qcurve" smooth="yes"/>
      <point x="1462.27" y="387.072"/>
      <point x="1298.43" y="323.584" type="qcurve" smooth="yes"/>
      <point x="1286.14" y="319.488"/>
      <point x="1081.34" y="256" type="qcurve" smooth="yes"/>
      <point x="950.272" y="217.088"/>
      <point x="874.496" y="163.84" type="qcurve"/>
      <point x="907.264" y="129.024"/>
      <point x="1019.9" y="108.544" type="qcurve" smooth="yes"/>
      <point x="1110.02" y="92.16"/>
      <point x="1183.74" y="92.16" type="qcurve" smooth="yes"/>
      <point x="1384.45" y="92.16"/>
      <point x="1546.24" y="178.176" type="qcurve"/>
      <point x="1572.86" y="190.464"/>
      <point x="1595.39" y="190.464" type="qcurve" smooth="yes"/>
      <point x="1632.26" y="190.464"/>
      <point x="1687.55" y="133.12"/>
    </contour>
    <contour>
      <point x="1484.8" y="1118.21" type="line"/>
      <point x="1452.03" y="1212.42"/>
      <point x="1284.1" y="1343.49"/>
      <point x="1185.79" y="1343.49" type="qcurve" smooth="yes"/>
      <point x="1085.44" y="1343.49"/>
      <point x="915.456" y="1212.42"/>
      <point x="882.688" y="1118.21" type="qcurve"/>
    </contour>
  </outline>
</glyph>
<glyph name="uniE021" format="2">
  <advance width="1706"/>
  <unicode hex="E021"/>
  <outline>
    <contour>
      <point x="1705.98" y="81.92" type="line"/>
      <point x="1705.98" y="-22.528"/>
      <point x="1542.14" y="-155.648"/>
      <point x="1435.65" y="-155.648" type="qcurve" smooth="yes"/>
      <point x="1355.78" y="-155.648"/>
      <point x="1294.34" y="-126.976" type="qcurve"/>
      <point x="1218.56" y="-88.064"/>
      <point x="1218.56" y="-14.336" type="qcurve" smooth="yes"/>
      <point x="1218.56" y="69.632"/>
      <point x="1294.34" y="69.632" type="qcurve" smooth="yes"/>
      <point x="1318.91" y="69.632"/>
      <point x="1404.93" y="28.672"/>
      <point x="1435.65" y="28.672" type="qcurve" smooth="yes"/>
      <point x="1462.27" y="28.672"/>
      <point x="1521.66" y="57.344"/>
      <point x="1521.66" y="81.92" type="qcurve" smooth="yes"/>
      <point x="1521.66" y="98.304"/>
      <point x="1454.08" y="135.168"/>
      <point x="1435.65" y="135.168" type="qcurve" smooth="yes"/>
      <point x="1378.3" y="135.168"/>
      <point x="1314.82" y="167.936" type="qcurve"/>
      <point x="1220.61" y="43.008"/>
      <point x="1040.38" y="-26.624" type="qcurve" smooth="yes"/>
      <point x="876.544" y="-92.16"/>
      <point x="706.56" y="-92.16" type="qcurve" smooth="yes"/>
      <point x="526.336" y="-92.16"/>
      <point x="393.216" y="-40.96" type="qcurve" smooth="yes"/>
      <point x="204.8" y="28.672"/>
      <point x="204.8" y="176.128" type="qcurve" smooth="yes"/>
      <point x="204.8" y="296.96"/>
      <point x="417.792" y="378.88" type="qcurve" smooth="yes"/>
      <point x="614.4" y="452.608"/>
      <point x="811.008" y="528.384" type="qcurve"/>
      <point x="1024" y="636.928"/>
      <point x="1024" y="819.2" type="qcurve" smooth="yes"/>
      <point x="1024" y="933.888" type="line"/>
      <point x="389.12" y="933.888" type="line"/>
      <point x="389.12" y="815.104"/>
      <point x="387.072" y="800.768" type="qcurve"/>
      <point x="370.688" y="727.04"/>
      <point x="296.96" y="727.04" type="qcurve" smooth="yes"/>
      <point x="204.8" y="727.04"/>
      <point x="204.8" y="819.2" type="qcurve" smooth="yes"/>
      <point x="204.8" y="1026.05" type="line" smooth="yes"/>
      <point x="204.8" y="1224.7"/>
      <point x="507.904" y="1527.81"/>
      <point x="708.608" y="1527.81" type="qcurve" smooth="yes"/>
      <point x="907.264" y="1527.81"/>
      <point x="1208.32" y="1224.7"/>
      <point x="1208.32" y="1026.05" type="qcurve" smooth="yes"/>
      <point x="1208.32" y="819.2" type="line" smooth="yes"/>
      <point x="1208.32" y="653.312"/>
      <point x="1091.58" y="514.048" type="qcurve" smooth="yes"/>
      <point x="985.088" y="387.072"/>
      <point x="821.248" y="323.584" type="qcurve" smooth="yes"/>
      <point x="811.008" y="319.488"/>
      <point x="604.16" y="256" type="qcurve" smooth="yes"/>
      <point x="471.04" y="217.088"/>
      <point x="397.312" y="163.84" type="qcurve"/>
      <point x="428.032" y="129.024"/>
      <point x="542.72" y="108.544" type="qcurve" smooth="yes"/>
      <point x="632.832" y="92.16"/>
      <point x="706.56" y="92.16" type="qcurve" smooth="yes"/>
      <point x="835.584" y="92.16"/>
      <point x="970.752" y="143.36" type="qcurve" smooth="yes"/>
      <point x="1124.35" y="202.752"/>
      <point x="1183.74" y="299.008" type="qcurve"/>
      <point x="1167.36" y="333.824"/>
      <point x="1167.36" y="374.784" type="qcurve" smooth="yes"/>
      <point x="1167.36" y="477.184"/>
      <point x="1251.33" y="546.816" type="qcurve" smooth="yes"/>
      <point x="1329.15" y="612.352"/>
      <point x="1435.65" y="612.352" type="qcurve" smooth="yes"/>
      <point x="1634.3" y="612.352"/>
      <point x="1634.3" y="495.616" type="qcurve" smooth="yes"/>
      <point x="1634.3" y="458.752"/>
      <point x="1583.1" y="403.456"/>
      <point x="1548.29" y="403.456" type="qcurve" smooth="yes"/>
      <point x="1529.86" y="403.456"/>
      <point x="1464.32" y="428.032"/>
      <point x="1435.65" y="428.032" type="qcurve" smooth="yes"/>
      <point x="1409.02" y="428.032"/>
      <point x="1384.45" y="415.744" type="qcurve" smooth="yes"/>
      <point x="1351.68" y="399.36"/>
      <point x="1351.68" y="374.784" type="qcurve" smooth="yes"/>
      <point x="1351.68" y="358.4"/>
      <point x="1419.26" y="319.488"/>
      <point x="1435.65" y="319.488" type="qcurve" smooth="yes"/>
      <point x="1533.95" y="319.488"/>
      <point x="1705.98" y="178.176"/>
      <point x="1705.98" y="81.92" type="qcurve"/>
    </contour>
    <contour>
      <point x="1009.66" y="1118.21" type="line"/>
      <point x="976.896" y="1212.42"/>
      <point x="804.864" y="1343.49"/>
      <point x="708.608" y="1343.49" type="qcurve" smooth="yes"/>
      <point x="608.256" y="1343.49"/>
      <point x="436.224" y="1212.42"/>
      <point x="405.504" y="1118.21" type="qcurve"/>
    </contour>
  </outline>
</glyph>
<glyph name="uniE027" format="2">
  <advance width="1604"/>
  <unicode hex="E027"/>
  <outline>
    <contour>
      <point x="1605.63" y="94.208" type="line"/>
      <point x="1605.63" y="49.152"/>
      <point x="1558.53" y="18.432" type="qcurve" smooth="yes"/>
      <point x="1392.64" y="-92.16"/>
      <point x="1101.82" y="-92.16" type="qcurve" smooth="yes"/>
      <point x="946.176" y="-92.16"/>
      <point x="819.2" y="-51.2" type="qcurve" smooth="yes"/>
      <point x="645.12" y="2.048"/>
      <point x="610.304" y="116.736" type="qcurve"/>
      <point x="430.08" y="116.736" type="line"/>
      <point x="464.896" y="94.208"/>
      <point x="538.624" y="49.152"/>
      <point x="538.624" y="2.048" type="qcurve" smooth="yes"/>
      <point x="538.624" y="-34.816"/>
      <point x="487.424" y="-94.208"/>
      <point x="448.512" y="-94.208" type="qcurve" smooth="yes"/>
      <point x="432.128" y="-94.208"/>
      <point x="411.648" y="-86.016" type="qcurve" smooth="yes"/>
      <point x="319.488" y="-51.2"/>
      <point x="204.8" y="112.64"/>
      <point x="204.8" y="208.896" type="qcurve" smooth="yes"/>
      <point x="204.8" y="305.152"/>
      <point x="319.488" y="468.992"/>
      <point x="411.648" y="503.808" type="qcurve"/>
      <point x="432.128" y="509.952"/>
      <point x="448.512" y="509.952" type="qcurve" smooth="yes"/>
      <point x="487.424" y="509.952"/>
      <point x="538.624" y="452.608"/>
      <point x="538.624" y="413.696" type="qcurve" smooth="yes"/>
      <point x="538.624" y="368.64"/>
      <point x="464.896" y="321.536"/>
      <point x="430.08" y="301.056" type="qcurve"/>
      <point x="669.696" y="301.056" type="line"/>
      <point x="747.52" y="364.544"/>
      <point x="901.12" y="417.792" type="qcurve"/>
      <point x="1026.05" y="456.704"/>
      <point x="1150.98" y="495.616" type="qcurve"/>
      <point x="1214.46" y="518.144"/>
      <point x="1290.24" y="534.528" type="qcurve"/>
      <point x="1245.18" y="577.536"/>
      <point x="1157.12" y="663.552" type="qcurve" smooth="yes"/>
      <point x="1114.11" y="706.56"/>
      <point x="1114.11" y="745.472" type="qcurve" smooth="yes"/>
      <point x="1114.11" y="823.296"/>
      <point x="1218.56" y="823.296" type="qcurve" smooth="yes"/>
      <point x="1419.26" y="823.296" type="line"/>
      <point x="1419.26" y="933.888" type="line"/>
      <point x="784.384" y="933.888" type="line"/>
      <point x="784.384" y="921.6"/>
      <point x="786.432" y="894.976" type="qcurve"/>
      <point x="786.432" y="872.448"/>
      <point x="786.432" y="858.112" type="qcurve" smooth="yes"/>
      <point x="786.432" y="727.04"/>
      <point x="692.224" y="727.04" type="qcurve" smooth="yes"/>
      <point x="600.064" y="727.04"/>
      <point x="600.064" y="819.2" type="qcurve" smooth="yes"/>
      <point x="600.064" y="1026.05" type="line" smooth="yes"/>
      <point x="600.064" y="1224.7"/>
      <point x="903.168" y="1527.81"/>
      <point x="1103.87" y="1527.81" type="qcurve" smooth="yes"/>
      <point x="1302.53" y="1527.81"/>
      <point x="1603.58" y="1224.7"/>
      <point x="1603.58" y="1026.05" type="qcurve" smooth="yes"/>
      <point x="1603.58" y="731.136" type="line" smooth="yes"/>
      <point x="1603.58" y="667.648"/>
      <point x="1548.29" y="649.216" type="qcurve"/>
      <point x="1521.66" y="638.976"/>
      <point x="1441.79" y="638.976" type="qcurve"/>
      <point x="1509.38" y="559.104"/>
      <point x="1509.38" y="495.616" type="qcurve" smooth="yes"/>
      <point x="1509.38" y="397.312"/>
      <point x="1343.49" y="356.352" type="qcurve" smooth="yes"/>
      <point x="923.648" y="256"/>
      <point x="792.576" y="163.84" type="qcurve"/>
      <point x="870.4" y="92.16"/>
      <point x="1101.82" y="92.16" type="qcurve" smooth="yes"/>
      <point x="1292.29" y="92.16"/>
      <point x="1466.37" y="178.176" type="qcurve"/>
      <point x="1492.99" y="190.464"/>
      <point x="1513.47" y="190.464" type="qcurve" smooth="yes"/>
      <point x="1550.34" y="190.464"/>
      <point x="1605.63" y="133.12"/>
      <point x="1605.63" y="94.208" type="qcurve"/>
    </contour>
    <contour>
      <point x="1404.93" y="1118.21" type="line"/>
      <point x="1372.16" y="1212.42"/>
      <point x="1202.18" y="1343.49"/>
      <point x="1103.87" y="1343.49" type="qcurve" smooth="yes"/>
      <point x="1003.52" y="1343.49"/>
      <point x="833.536" y="1212.42"/>
      <point x="800.768" y="1118.21" type="qcurve"/>
    </contour>
  </outline>
</glyph>
<glyph name="uniE029" format="2">
  <advance width="1688"/>
  <unicode hex="E029"/>
  <outline>
    <contour>
      <point x="1687.55" y="1097.73" type="qcurve" smooth="yes"/>
      <point x="1687.55" y="1064.96"/>
      <point x="1662.98" y="1034.24" type="qcurve" smooth="yes"/>
      <point x="1581.06" y="937.984"/>
      <point x="1443.84" y="937.984" type="qcurve" smooth="yes"/>
      <point x="1296.38" y="937.984"/>
      <point x="1206.27" y="1056.77" type="qcurve"/>
      <point x="1208.32" y="1040.38"/>
      <point x="1208.32" y="1026.05" type="qcurve" smooth="yes"/>
      <point x="1208.32" y="731.136" type="line" smooth="yes"/>
      <point x="1208.32" y="667.648"/>
      <point x="1153.02" y="649.216" type="qcurve" smooth="yes"/>
      <point x="1126.4" y="638.976"/>
      <point x="1046.53" y="638.976" type="qcurve"/>
      <point x="1114.11" y="559.104"/>
      <point x="1114.11" y="495.616" type="qcurve" smooth="yes"/>
      <point x="1114.11" y="397.312"/>
      <point x="946.176" y="356.352" type="qcurve" smooth="yes"/>
      <point x="528.384" y="256"/>
      <point x="397.312" y="163.84" type="qcurve"/>
      <point x="475.136" y="92.16"/>
      <point x="706.56" y="92.16" type="qcurve" smooth="yes"/>
      <point x="897.024" y="92.16"/>
      <point x="1069.06" y="178.176" type="qcurve"/>
      <point x="1097.73" y="190.464"/>
      <point x="1118.21" y="190.464" type="qcurve" smooth="yes"/>
      <point x="1155.07" y="190.464"/>
      <point x="1210.37" y="133.12"/>
      <point x="1210.37" y="94.208" type="qcurve" smooth="yes"/>
      <point x="1210.37" y="49.152"/>
      <point x="1163.26" y="18.432" type="qcurve" smooth="yes"/>
      <point x="995.328" y="-92.16"/>
      <point x="706.56" y="-92.16" type="qcurve" smooth="yes"/>
      <point x="528.384" y="-92.16"/>
      <point x="393.216" y="-40.96" type="qcurve" smooth="yes"/>
      <point x="204.8" y="28.672"/>
      <point x="204.8" y="176.128" type="qcurve" smooth="yes"/>
      <point x="204.8" y="260.096"/>
      <point x="317.44" y="331.776" type="qcurve" smooth="yes"/>
      <point x="399.36" y="382.976"/>
      <point x="550.912" y="432.128" type="qcurve" smooth="yes"/>
      <point x="653.312" y="464.896"/>
      <point x="755.712" y="495.616" type="qcurve"/>
      <point x="821.248" y="518.144"/>
      <point x="894.976" y="534.528" type="qcurve"/>
      <point x="849.92" y="577.536"/>
      <point x="761.856" y="663.552" type="qcurve" smooth="yes"/>
      <point x="718.848" y="706.56"/>
      <point x="718.848" y="745.472" type="qcurve" smooth="yes"/>
      <point x="718.848" y="823.296"/>
      <point x="823.296" y="823.296" type="qcurve" smooth="yes"/>
      <point x="1024" y="823.296" type="line"/>
      <point x="1024" y="933.888" type="line"/>
      <point x="389.12" y="933.888" type="line"/>
      <point x="389.12" y="921.6"/>
      <point x="389.12" y="894.976" type="qcurve"/>
      <point x="391.168" y="872.448"/>
      <point x="391.168" y="858.112" type="qcurve" smooth="yes"/>
      <point x="391.168" y="727.04"/>
      <point x="296.96" y="727.04" type="qcurve" smooth="yes"/>
      <point x="204.8" y="727.04"/>
      <point x="204.8" y="819.2" type="qcurve" smooth="yes"/>
      <point x="204.8" y="1026.05" type="line" smooth="yes"/>
      <point x="204.8" y="1224.7"/>
      <point x="507.904" y="1527.81"/>
      <point x="708.608" y="1527.81" type="qcurve" smooth="yes"/>
      <point x="843.776" y="1527.81"/>
      <point x="1083.39" y="1376.26"/>
      <point x="1148.93" y="1253.38" type="qcurve"/>
      <point x="1157.12" y="1368.06"/>
      <point x="1327.1" y="1527.81"/>
      <point x="1443.84" y="1527.81" type="qcurve" smooth="yes"/>
      <point x="1536" y="1527.81"/>
      <point x="1536" y="1435.65" type="qcurve" smooth="yes"/>
      <point x="1536" y="1343.49"/>
      <point x="1443.84" y="1343.49" type="qcurve" smooth="yes"/>
      <point x="1398.78" y="1343.49"/>
      <point x="1333.25" y="1277.95"/>
      <point x="1333.25" y="1232.9" type="qcurve" smooth="yes"/>
      <point x="1333.25" y="1187.84"/>
      <point x="1398.78" y="1122.3"/>
      <point x="1443.84" y="1122.3" type="qcurve" smooth="yes"/>
      <point x="1484.8" y="1122.3"/>
      <point x="1560.58" y="1189.89"/>
      <point x="1593.34" y="1189.89" type="qcurve" smooth="yes"/>
      <point x="1630.21" y="1189.89"/>
      <point x="1687.55" y="1134.59"/>
    </contour>
    <contour>
      <point x="1009.66" y="1118.21" type="line"/>
      <point x="976.896" y="1212.42"/>
      <point x="806.912" y="1343.49"/>
      <point x="708.608" y="1343.49" type="qcurve" smooth="yes"/>
      <point x="608.256" y="1343.49"/>
      <point x="436.224" y="1212.42"/>
      <point x="405.504" y="1118.21" type="qcurve"/>
    </contour>
  </outline>
</glyph>
<glyph name="uniE02B" format="2">
  <advance width="2066"/>
  <unicode hex="E02B"/>
  <outline>
    <contour>
      <point x="2066.43" y="1015.81" type="line"/>
      <point x="2066.43" y="909.312"/>
      <point x="1990.66" y="854.016" type="qcurve" smooth="yes"/>
      <point x="1923.07" y="802.816"/>
      <point x="1812.48" y="802.816" type="qcurve" smooth="yes"/>
      <point x="1712.13" y="802.816"/>
      <point x="1607.68" y="882.688" type="qcurve"/>
      <point x="1564.67" y="823.296"/>
      <point x="1519.62" y="741.376" type="qcurve"/>
      <point x="1492.99" y="688.128"/>
      <point x="1439.74" y="688.128" type="qcurve" smooth="yes"/>
      <point x="1402.88" y="688.128"/>
      <point x="1343.49" y="741.376"/>
      <point x="1343.49" y="778.24" type="qcurve" smooth="yes"/>
      <point x="1343.49" y="817.152"/>
      <point x="1411.07" y="923.648" type="qcurve"/>
      <point x="1208.32" y="923.648" type="line"/>
      <point x="1208.32" y="731.136" type="line" smooth="yes"/>
      <point x="1208.32" y="692.224"/>
      <point x="1157.12" y="638.976"/>
      <point x="1046.53" y="638.976" type="qcurve"/>
      <point x="1114.11" y="559.104"/>
      <point x="1114.11" y="495.616" type="qcurve" smooth="yes"/>
      <point x="1114.11" y="395.264"/>
      <point x="946.176" y="356.352" type="qcurve" smooth="yes"/>
      <point x="532.48" y="260.096"/>
      <point x="397.312" y="163.84" type="qcurve"/>
      <point x="436.224" y="129.024"/>
      <point x="544.768" y="108.544" type="qcurve" smooth="yes"/>
      <point x="628.736" y="92.16"/>
      <point x="706.56" y="92.16" type="qcurve" smooth="yes"/>
      <point x="907.264" y="92.16"/>
      <point x="1069.06" y="178.176" type="qcurve"/>
      <point x="1095.68" y="190.464"/>
      <point x="1118.21" y="190.464" type="qcurve" smooth="yes"/>
      <point x="1155.07" y="190.464"/>
      <point x="1210.37" y="133.12"/>
      <point x="1210.37" y="94.208" type="qcurve" smooth="yes"/>
      <point x="1210.37" y="47.104"/>
      <point x="1163.26" y="18.432" type="qcurve" smooth="yes"/>
      <point x="987.136" y="-92.16"/>
      <point x="706.56" y="-92.16" type="qcurve" smooth="yes"/>
      <point x="528.384" y="-92.16"/>
      <point x="393.216" y="-40.96" type="qcurve" smooth="yes"/>
      <point x="204.8" y="28.672"/>
      <point x="204.8" y="176.128" type="qcurve" smooth="yes"/>
      <point x="204.8" y="294.912"/>
      <point x="428.032" y="387.072" type="qcurve"/>
      <point x="591.872" y="442.368"/>
      <point x="755.712" y="495.616" type="qcurve" smooth="yes"/>
      <point x="815.104" y="516.096"/>
      <point x="894.976" y="534.528" type="qcurve"/>
      <point x="886.784" y="542.72"/>
      <point x="761.856" y="663.552" type="qcurve" smooth="yes"/>
      <point x="718.848" y="704.512"/>
      <point x="718.848" y="745.472" type="qcurve" smooth="yes"/>
      <point x="718.848" y="823.296"/>
      <point x="823.296" y="823.296" type="qcurve" smooth="yes"/>
      <point x="1024" y="823.296" type="line"/>
      <point x="1024" y="933.888" type="line"/>
      <point x="389.12" y="933.888" type="line"/>
      <point x="389.12" y="815.104"/>
      <point x="387.072" y="800.768" type="qcurve"/>
      <point x="370.688" y="727.04"/>
      <point x="296.96" y="727.04" type="qcurve" smooth="yes"/>
      <point x="204.8" y="727.04"/>
      <point x="204.8" y="819.2" type="qcurve" smooth="yes"/>
      <point x="204.8" y="1026.05" type="line" smooth="yes"/>
      <point x="204.8" y="1224.7"/>
      <point x="507.904" y="1527.81"/>
      <point x="708.608" y="1527.81" type="qcurve" smooth="yes"/>
      <point x="884.736" y="1527.81"/>
      <point x="1169.41" y="1282.05"/>
      <point x="1200.13" y="1107.97" type="qcurve"/>
      <point x="1411.07" y="1107.97" type="line"/>
      <point x="1343.49" y="1232.9"/>
      <point x="1343.49" y="1253.38" type="qcurve" smooth="yes"/>
      <point x="1343.49" y="1290.24"/>
      <point x="1402.88" y="1343.49"/>
      <point x="1439.74" y="1343.49" type="qcurve" smooth="yes"/>
      <point x="1492.99" y="1343.49"/>
      <point x="1519.62" y="1290.24" type="qcurve"/>
      <point x="1564.67" y="1206.27"/>
      <point x="1607.68" y="1148.93" type="qcurve"/>
      <point x="1712.13" y="1228.8"/>
      <point x="1812.48" y="1228.8" type="qcurve" smooth="yes"/>
      <point x="1923.07" y="1228.8"/>
      <point x="1990.66" y="1177.6" type="qcurve" smooth="yes"/>
      <point x="2066.43" y="1122.3"/>
      <point x="2066.43" y="1015.81" type="qcurve"/>
    </contour>
    <contour>
      <point x="1882.11" y="1015.81" type="line"/>
      <point x="1882.11" y="1026.05"/>
      <point x="1878.02" y="1032.19" type="qcurve"/>
      <point x="1859.58" y="1044.48"/>
      <point x="1812.48" y="1044.48" type="qcurve" smooth="yes"/>
      <point x="1777.66" y="1044.48"/>
      <point x="1734.66" y="1015.81" type="qcurve"/>
      <point x="1777.66" y="987.136"/>
      <point x="1812.48" y="987.136" type="qcurve" smooth="yes"/>
      <point x="1857.54" y="987.136"/>
      <point x="1880.06" y="1001.47" type="qcurve"/>
      <point x="1882.11" y="1005.57"/>
      <point x="1882.11" y="1015.81" type="qcurve"/>
    </contour>
    <contour>
      <point x="1009.66" y="1118.21" type="line"/>
      <point x="976.896" y="1212.42"/>
      <point x="804.864" y="1343.49"/>
      <point x="708.608" y="1343.49" type="qcurve" smooth="yes"/>
      <point x="608.256" y="1343.49"/>
      <point x="436.224" y="1212.42"/>
      <point x="405.504" y="1118.21" type="qcurve"/>
    </contour>
  </outline>
</glyph>
<glyph name="uniE030" format="2">
  <advance width="1210"/>
  <unicode hex="E030"/>
  <outline>
    <contour>
      <point x="1210.37" y="335.872" type="line"/>
      <point x="1210.37" y="143.36"/>
      <point x="1026.05" y="20.48" type="qcurve" smooth="yes"/>
      <point x="862.208" y="-90.112"/>
      <point x="661.504" y="-90.112" type="qcurve" smooth="yes"/>
      <point x="555.008" y="-90.112"/>
      <point x="440.32" y="-59.392" type="qcurve" smooth="yes"/>
      <point x="309.248" y="-24.576"/>
      <point x="241.664" y="34.816" type="qcurve" smooth="yes"/>
      <point x="204.8" y="67.584"/>
      <point x="204.8" y="104.448" type="qcurve" smooth="yes"/>
      <point x="204.8" y="143.36"/>
      <point x="260.096" y="200.704"/>
      <point x="296.96" y="200.704" type="qcurve" smooth="yes"/>
      <point x="323.584" y="200.704"/>
      <point x="354.304" y="180.224" type="qcurve" smooth="yes"/>
      <point x="485.376" y="94.208"/>
      <point x="661.504" y="94.208" type="qcurve" smooth="yes"/>
      <point x="780.288" y="94.208"/>
      <point x="892.928" y="155.648" type="qcurve" smooth="yes"/>
      <point x="1026.05" y="227.328"/>
      <point x="1026.05" y="335.872" type="qcurve" smooth="yes"/>
      <point x="1026.05" y="452.608"/>
      <point x="901.12" y="548.864" type="qcurve" smooth="yes"/>
      <point x="784.384" y="638.976"/>
      <point x="661.504" y="638.976" type="qcurve" smooth="yes"/>
      <point x="569.344" y="638.976"/>
      <point x="569.344" y="731.136" type="qcurve" smooth="yes"/>
      <point x="569.344" y="823.296"/>
      <point x="661.504" y="823.296" type="qcurve" smooth="yes"/>
      <point x="782.336" y="823.296"/>
      <point x="897.024" y="903.168" type="qcurve"/>
      <point x="1026.05" y="989.184"/>
      <point x="1026.05" y="1103.87" type="qcurve" smooth="yes"/>
      <point x="1026.05" y="1212.42"/>
      <point x="892.928" y="1284.1" type="qcurve" smooth="yes"/>
      <point x="780.288" y="1345.54"/>
      <point x="661.504" y="1345.54" type="qcurve" smooth="yes"/>
      <point x="485.376" y="1345.54"/>
      <point x="354.304" y="1259.52" type="qcurve"/>
      <point x="323.584" y="1236.99"/>
      <point x="296.96" y="1236.99" type="qcurve" smooth="yes"/>
      <point x="260.096" y="1236.99"/>
      <point x="204.8" y="1296.38"/>
      <point x="204.8" y="1333.25" type="qcurve" smooth="yes"/>
      <point x="204.8" y="1372.16"/>
      <point x="241.664" y="1404.93" type="qcurve" smooth="yes"/>
      <point x="309.248" y="1464.32"/>
      <point x="440.32" y="1499.14" type="qcurve" smooth="yes"/>
      <point x="555.008" y="1529.86"/>
      <point x="661.504" y="1529.86" type="qcurve" smooth="yes"/>
      <point x="862.208" y="1529.86"/>
      <point x="1026.05" y="1419.26" type="qcurve" smooth="yes"/>
      <point x="1210.37" y="1294.34"/>
      <point x="1210.37" y="1103.87" type="qcurve" smooth="yes"/>
      <point x="1210.37" y="872.448"/>
      <point x="966.656" y="727.04" type="qcurve"/>
      <point x="1210.37" y="571.392"/>
      <point x="1210.37" y="335.872" type="qcurve"/>
    </contour>
  </outline>
</glyph>
<glyph name="uniE031" format="2">
  <advance width="1210"/>
  <unicode hex="E031"/>
  <outline>
    <contour>
      <point x="1210.37" y="335.872" type="qcurve" smooth="yes"/>
      <point x="1210.37" y="143.36"/>
      <point x="1026.05" y="20.48" type="qcurve" smooth="yes"/>
      <point x="862.208" y="-90.112"/>
      <point x="661.504" y="-90.112" type="qcurve" smooth="yes"/>
      <point x="555.008" y="-90.112"/>
      <point x="442.368" y="-59.392" type="qcurve" smooth="yes"/>
      <point x="313.344" y="-24.576"/>
      <point x="241.664" y="34.816" type="qcurve" smooth="yes"/>
      <point x="204.8" y="65.536"/>
      <point x="204.8" y="104.448" type="qcurve" smooth="yes"/>
      <point x="204.8" y="143.36"/>
      <point x="260.096" y="200.704"/>
      <point x="296.96" y="200.704" type="qcurve" smooth="yes"/>
      <point x="323.584" y="200.704"/>
      <point x="354.304" y="180.224" type="qcurve" smooth="yes"/>
      <point x="485.376" y="94.208"/>
      <point x="661.504" y="94.208" type="qcurve" smooth="yes"/>
      <point x="780.288" y="94.208"/>
      <point x="892.928" y="155.648" type="qcurve" smooth="yes"/>
      <point x="1026.05" y="227.328"/>
      <point x="1026.05" y="335.872" type="qcurve" smooth="yes"/>
      <point x="1026.05" y="434.176"/>
      <point x="927.744" y="524.288" type="qcurve" smooth="yes"/>
      <point x="841.728" y="606.208"/>
      <point x="737.28" y="630.784" type="qcurve"/>
      <point x="704.512" y="542.72"/>
      <point x="552.96" y="436.224"/>
      <point x="460.8" y="436.224" type="qcurve" smooth="yes"/>
      <point x="368.64" y="436.224"/>
      <point x="368.64" y="528.384" type="qcurve" smooth="yes"/>
      <point x="368.64" y="620.544"/>
      <point x="458.752" y="620.544" type="qcurve" smooth="yes"/>
      <point x="505.856" y="620.544"/>
      <point x="569.344" y="686.08"/>
      <point x="569.344" y="731.136" type="qcurve" smooth="yes"/>
      <point x="569.344" y="776.192"/>
      <point x="505.856" y="841.728"/>
      <point x="458.752" y="841.728" type="qcurve" smooth="yes"/>
      <point x="368.64" y="841.728"/>
      <point x="368.64" y="933.888" type="qcurve" smooth="yes"/>
      <point x="368.64" y="1026.05"/>
      <point x="460.8" y="1026.05" type="qcurve" smooth="yes"/>
      <point x="552.96" y="1026.05"/>
      <point x="704.512" y="917.504"/>
      <point x="737.28" y="831.488" type="qcurve"/>
      <point x="839.68" y="851.968"/>
      <point x="925.696" y="925.696" type="qcurve"/>
      <point x="1026.05" y="1007.62"/>
      <point x="1026.05" y="1103.87" type="qcurve" smooth="yes"/>
      <point x="1026.05" y="1212.42"/>
      <point x="892.928" y="1284.1" type="qcurve" smooth="yes"/>
      <point x="780.288" y="1345.54"/>
      <point x="661.504" y="1345.54" type="qcurve" smooth="yes"/>
      <point x="485.376" y="1345.54"/>
      <point x="354.304" y="1259.52" type="qcurve"/>
      <point x="323.584" y="1236.99"/>
      <point x="296.96" y="1236.99" type="qcurve" smooth="yes"/>
      <point x="260.096" y="1236.99"/>
      <point x="204.8" y="1296.38"/>
      <point x="204.8" y="1333.25" type="qcurve" smooth="yes"/>
      <point x="204.8" y="1372.16"/>
      <point x="241.664" y="1404.93" type="qcurve" smooth="yes"/>
      <point x="313.344" y="1464.32"/>
      <point x="442.368" y="1499.14" type="qcurve" smooth="yes"/>
      <point x="555.008" y="1529.86"/>
      <point x="661.504" y="1529.86" type="qcurve" smooth="yes"/>
      <point x="862.208" y="1529.86"/>
      <point x="1026.05" y="1419.26" type="qcurve" smooth="yes"/>
      <point x="1210.37" y="1294.34"/>
      <point x="1210.37" y="1103.87" type="qcurve" smooth="yes"/>
      <point x="1210.37" y="872.448"/>
      <point x="966.656" y="727.04" type="qcurve"/>
      <point x="1210.37" y="571.392"/>
    </contour>
  </outline>
</glyph>
